<?xml version="1.0" encoding="utf-8" ?>
<svg baseProfile="full" height="300mm" version="1.1" viewBox="0,0,200,300" width="200mm" xmlns="http://www.w3.org/2000/svg" xmlns:ev="http://www.w3.org/2001/xml-events" xmlns:xlink="http://www.w3.org/1999/xlink"><defs /><rect fill="#222222" height="300" width="200" x="0" y="0" /><text fill="#FFFFFF" style="font-size:12px; font-family:Arial; font-weight:bold;" x="10" y="20">Over 3km Runs</text><text fill="#FFFFFF" style="font-size:4px; font-family:Arial" x="10" y="280">ATHLETE</text><text fill="#FFFFFF" style="font-size:9px; font-family:Arial" x="10" y="290">Awua</text><text fill="#FFFFFF" style="font-size:4px; font-family:Arial" x="65" y="280">SPECIAL TRACKS</text><rect fill="yellow" height="2.6" width="2.6" x="65" y="283" /><text fill="#FFFFFF" style="font-size:3px; font-family:Arial" x="70" y="285.5">Over 20.0 km</text><rect fill="red" height="2.6" width="2.6" x="65" y="287" /><text fill="#FFFFFF" style="font-size:3px; font-family:Arial" x="70" y="289.5">Over 40.0 km</text><text fill="#FFFFFF" style="font-size:4px; font-family:Arial" x="120" y="280">STATISTICS</text><text fill="#FFFFFF" style="font-size:3px; font-family:Arial" x="120" y="285">Number: 2</text><text fill="#FFFFFF" style="font-size:3px; font-family:Arial" x="120" y="290">Weekly: 1.0</text><text fill="#FFFFFF" style="font-size:3px; font-family:Arial" x="141" y="285">Total: 26.2 km</text><text fill="#FFFFFF" style="font-size:3px; font-family:Arial" x="141" y="290">Avg: 13.1 km</text><text fill="#FFFFFF" style="font-size:3px; font-family:Arial" x="167" y="285">Min: 13.0 km</text><text fill="#FFFFFF" style="font-size:3px; font-family:Arial" x="167" y="290">Max: 13.2 km</text><polyline fill="none" points="51.54357459372841,64.22928760366631 50.865583456354216,63.57680922438158 50.18759231898002,62.2252438008436 49.50960118160583,61.199915547913406 48.193500738590956,61.29312730557285 46.75775480037555,61.66597413975978 46.03988183173351,60.87367424092372 46.03988183173351,59.98816090699984 46.87740029534325,59.66191870486364 48.273264401825145,59.335676261631306 49.7488921713084,58.82300907812896 51.22451994079165,58.40355366736185 52.660265878774226,57.984097858017776 54.01624815352261,57.56464165027137 55.412112259771675,57.23839765775483 56.76809453452006,56.86554708547192 58.124076809268445,56.53930257630418 59.51994091575034,56.352877034340054 60.836041358765215,55.98002571443794 62.15214180201292,55.56056760306819 63.468242245027795,55.141109093267005 64.82422451977618,54.76825675019063 66.0605612997897,55.047896037081955 66.81831610039808,56.39948342717253 67.57607090100646,57.6578541752242 68.33382570138201,58.916221337683965 69.05169867048971,60.17458491434809 69.76957163959742,61.33973317712662 70.52732643997297,62.55148410933907 71.24519940908067,63.809837327571586 71.96307237818837,65.06818696038681 72.68094534706324,66.37313834793167 73.31905465293676,67.58487546950346 73.99704579031095,68.8432143459795 74.63515509595163,70.14815457898658 75.35302806505933,71.35988134302897 76.03101920243353,72.5716047824244 76.70901033980772,73.73672033884213 77.42688330868259,74.90183282180806 78.10487444605678,76.20675515354378 78.86262924666516,77.3718611203949 79.7001477102749,78.39715182874352 80.33825701614842,79.56225201723282 80.97636632202193,80.72734913235763 81.49483013292775,81.9390468717902 82.33234859677032,83.05753414228093 83.0901033973787,83.94300122262212 83.40915805008262,84.03620818053605 84.08714918745682,83.57017319457373 84.92466765106656,83.15074128701235 85.12407680950128,83.10413771707681 85.24372230423614,83.05753414228093 85.68242245190777,82.73130898101954 85.88183160987683,82.73130898101954 86.32053175754845,83.616776715382 87.11816838989034,84.82846652780427 88.19497784343548,86.08675627637422 89.3116691284813,87.11202675459208 89.75036927615292,88.74313397382502 90.26883308682591,90.23442673191312 90.90694239293225,91.5393037648173 91.50516986683942,92.84417694280273 92.30280649918132,93.91603416972794 93.18020679452457,95.03449111161171 94.05760708986782,96.19954741437687 94.8552437222097,97.45780477003427 95.45347119634971,98.7626604642428 96.37075332319364,99.834503329359 96.49039881839417,100.95294528538943 97.00886262906715,102.1645875419199 98.12555391411297,102.67720441939309 99.40177252562717,102.1645875419199 100.67799113737419,101.65197006988456 101.99409158038907,101.09275033089216 103.31019202363677,100.71993677809951 104.58641063491814,100.440326407057 105.86262924666516,100.02091051870957 107.13884785817936,99.50829055882059 108.29542097472586,99.04227189710946 109.65140324947424,98.7626604642428 110.92762186122127,98.52965080155991 112.20384047250263,98.1102330989088 113.48005908401683,97.73741702904226 114.71639586403035,97.22479441904579 116.03249630704522,96.94518183570472 117.26883308705874,96.61896693133167 118.54505169857293,96.19954741437687 119.78138847835362,95.8267297319835 120.97784342686646,95.45391173454118 122.21418020664714,95.08109342263197 123.49039881816134,94.70827479599393 124.76661742967553,94.38205823960016 126.08271787292324,94.14904626610223 127.03988183150068,95.220900326618 127.91728212707676,96.24614960263716 128.43574593774974,97.504406825552 128.95420974865556,98.71605854143854 129.63220088602975,99.92770693390048 130.31019202340394,101.09275033089216 130.86853766604327,102.2577906549559 131.46676514018327,103.23642215252039 132.14475627755746,104.54126077672117 132.78286558343098,105.93929788278183 133.34121122583747,107.33733056421624 134.01920236297883,108.68875795052736 134.73707533208653,110.08678193058586 135.45494830119424,111.43820090556983 136.13293943856843,112.78961574638379 136.85081240767613,114.14102645302773 138.00738552422263,114.8866305903939 139.4830132939387,114.84003036873764 140.87887740018778,114.79343014204642 142.23485967493616,114.60702918641618 143.63072378118522,114.42062815206009 145.0664697191678,114.46722841795417 146.42245199391618,114.42062815206009 147.77843426866457,114.28082732466282 149.17429837491363,114.187626748404 150.49039881839417,114.23422703900724 151.64697193494067,115.445832867641 152.24519940908067,116.75063542841235 152.64401772525162,118.10203401785111 152.96307237795554,119.40682873330661 153.1624815359246,120.7582191976253 153.3618906941265,122.15620498271892 153.2821270308923,123.55418634414673 152.76366321998648,124.71916743271868 152.32496307231486,125.23175813863054 152.80354505172,123.97357989003649 153.04283604142256,122.62219926135731 152.92319054645486,121.17761539766798 152.76366321998648,119.77962651572307 152.4844903985504,118.47483290132368 152.20531757758,117.21663540910231 152.0457902511116,115.86523411114467 151.9660265876446,114.51382867890061 151.4874446084723,113.20901951150154 151.00886262906715,111.95080702155246 150.41063515492715,110.73919160716468 149.77252584928647,109.57417365149013 149.13441654364578,108.36255171860103 148.49630723753944,107.19752749518375 147.89807976363227,105.9858990435605 147.25997045775875,104.72766597996815 146.70162481535226,103.56263216992375 146.14327917271294,102.44419682156877 145.54505169857293,101.27915698912693 144.90694239293225,100.11411408384447 144.30871491855942,98.949068105896 143.67060561291873,97.73741702904226 143.07237813877873,96.52576262853108 142.43426883313805,95.36070718604606 141.79615952726454,94.2422510702745 141.2378138846252,93.03058708229219 140.71935007395223,91.8189197703905 140.1211225995794,90.60724913462764 139.72230428364128,89.30236934821005 139.4830132939387,87.99748570672818 139.12407680950128,86.69259821018204 138.60561299836263,85.38770685871714 137.84785819775425,84.26922548902803 136.73116691294126,83.33715551742353 135.57459379616193,82.73130898101954 134.2983751844149,82.31187627659529 132.98227474140003,82.0788579354703 131.62629246688448,82.03225425255368 130.31019202340394,81.9856505645439 129.07385524362326,82.12546161358478 128.8744460856542,81.9856505645439 130.42983751837164,81.9390468717902 131.9054652878549,82.0788579354703 133.26144756260328,82.1720652866934 134.57754800585099,82.31187627659529 135.93353028059937,82.82451619452331 137.12998522887938,83.616776715382 138.1270310189575,84.64205292696715 138.9246676512994,85.713930058002 139.4431314622052,87.01882044566446 139.72230428364128,88.46351602117647 140.04135893657804,89.95480972330552 140.59970457898453,91.25968758220552 141.07828655838966,92.56456158636138 141.71639586403035,93.77622685278766 142.35450516967103,95.03449111161171 142.99261447554454,96.24614960263716 143.7104874444194,97.45780477003427 144.26883308705874,98.71605854143854 144.94682422443293,99.92770693390048 145.58493353030644,101.23255533183692 146.30280649918132,102.53739987543668 146.9807976365555,103.84224056458334 147.6189069421962,105.1004761501099 148.2570162480697,106.35870815179078 148.9350073854439,107.52373458744842 149.57311669108458,108.73535882111173 150.2112259969581,109.94697973167058 150.8094534710981,111.25179853418376 151.4874446084723,112.51001301518409 152.0457902511116,113.81482424720889 152.44460856728256,115.16623181756586 152.92319054645486,116.56423529863241 153.24224519939162,117.96223435553838 153.48153618886136,119.31362923872075 153.72082717856392,120.71161959515302 153.80059084203094,121.96980713363155 153.72082717856392,121.27081449909019 153.44165435736068,119.68642709963024 153.1624815359246,118.24183363598422 152.84342688322067,116.89043547428446 152.44460856728256,115.49243302544346 151.9660265876446,114.09442615270382 151.4076809452381,112.60321394517086 150.72968980809674,111.20519792896812 150.0516986704897,109.94697973167058 149.33382570161484,108.64215707502444 148.735598227242,107.43053258568398 148.09748892160133,106.12570249586133 147.37961595249362,104.91407110434375 146.74150664685294,103.6092335813737 146.06351550947875,102.35099374814308 145.34564254060388,101.13935200273409 144.66765140322968,99.88110513414722 144.02954209712334,98.62285468136542 143.35155095998198,97.31799857423175 142.75332348584197,96.05974082031753 142.19497784343548,94.75487714161864 141.47710487432778,93.54321455970057 140.83899556845427,92.33154865400866 140.32053175754845,91.07327669550432 139.76218611514196,89.67519253763021 139.4830132939387,88.27710395446047 139.20384047250263,86.92561411738279 138.60561299836263,85.62072345419438 137.80797636602074,84.45563924731687 136.7710487442091,83.47696613852168 135.53471196442842,82.77791259021615 134.17872968991287,82.2652726182423 132.78286558343098,82.0788579354703 131.4268833086826,82.1720652866934 130.03101920243353,82.21866895502899 128.63515509595163,82.31187627659529 127.23929098946974,82.45168722237577 125.88330871472135,82.5914981237438 124.48744460847229,82.68470536681707 123.29098966019228,82.87111979391193 124.2880354502704,82.77791259021615 125.84342688322067,82.40508357874933 127.31905465293676,82.2652726182423 128.79468242242,82.1720652866934 130.23042836040258,82.1720652866934 131.62629246688448,82.1720652866934 133.02215657313354,82.1720652866934 134.45790251111612,82.45168722237577 135.85376661736518,82.87111979391193 137.16986706038006,83.75658724806271 138.2466765139252,84.78186313502374 139.00443131453358,85.94694648150471 139.4830132939387,87.29843931295909 139.68242245190777,88.74313397382502 140.20088626281358,89.95480972330552 140.55982274725102,91.07327669550432 141.03840472665615,92.37815125042107 141.63663220079616,93.58981702808524 142.27474150643684,94.89468414869043 142.87296898080967,96.15294522145996 143.55096011818387,97.31799857423175 144.18906942382455,98.62285468136542 144.86706056119874,99.834503329359 145.54505169857293,101.09275033089216 146.22304283594713,102.44419682156877 146.90103397332132,103.79563917784253 147.5790251106955,105.1004761501099 148.21713441656902,106.31210703053512 148.8552437222097,107.57033558105468 149.5332348595839,108.78195968686487 150.2511078286916,110.04018120252294 150.84933530259877,111.344999729743 151.52732643997297,112.51001301518409 152.0059084193781,113.90802490198985 152.4844903985504,115.30603236483876 152.92319054645486,116.70403540320694 153.2023633676581,118.10203401785111 153.48153618886136,119.50002820845111 153.76070901029743,120.89801797521068 154.0,121.96980713363155 153.76070901029743,120.8048187950044 153.44165435736068,119.31362923872075 153.04283604142256,117.96223435553838 152.68389955651946,116.61083533838973 152.28508124058135,115.2128320049087 151.72673559817486,113.81482424720889 151.12850812403485,112.46341254268191 150.53028064966202,111.11199670395581 149.85228951228783,109.90037898888113 149.21418020664714,108.59555619451567 148.49630723753944,107.24412852319074 147.81831610016525,105.89269671717193 147.18020679452457,104.58786208493984 146.5022156573832,103.32962503912859 145.824224520009,102.02478283588425 145.14623338263482,100.8131401957944 144.54800590826198,99.55489239798044 143.8700147708878,98.20343706733547 143.1920236335136,96.94518183570472 142.43426883313805,95.64032077253796 141.79615952726454,94.19564867060399 141.15805022162385,92.93738202235545 140.55982274725102,91.77231711498462 140.5199409155175,91.02667396157631 140.08124076784588,90.327632362023 139.68242245190777,88.83633991875104 139.36336779920384,87.34504244037089 138.8847858197987,85.99354975140886 138.08714918745682,84.78186313502374 137.09010339714587,83.75658724806271 135.85376661736518,82.96432697781711 134.57754800585099,82.45168722237577 133.2215657311026,82.21866895502899 131.82570162485354,82.2652726182423 130.42983751837164,82.2652726182423 129.03397341212258,82.2652726182423 127.59822747390717,82.35847993014613 126.20236336765811,82.49829086117097 124.80649926140904,82.73130898101954 123.41063515492715,82.82451619452331 122.0546528804116,82.82451619452331 121.01772525836714,82.2652726182423 120.33973412099294,80.86716057968442 119.66174298361875,79.42244015692268 118.98375184624456,78.07092322516837 118.34564254060388,76.76600640115794 117.70753323473036,75.41448134058737 117.06942392885685,74.10955666785594 116.43131462321617,72.85123279626714 115.75332348584197,71.639510124136 114.59675036929548,71.17346205725335 113.28064992604777,71.68611490371404 111.92466765129939,72.19876715517603 110.52880354481749,72.71141881146468 109.1329394383356,73.17746525534312 107.73707533231936,73.69011577568017 106.38109305733815,74.1561611868965 105.0251107828226,74.7154150310962 103.7488921713084,75.2746681671415 102.4726735597942,75.78731625311775 101.07680945331231,76.29996374403709 99.80059084179811,76.99902754541836 98.40472673554905,77.3718611203949 97.04874446080066,77.9311108927941 95.73264401755296,78.58356806545635 94.45642540603876,79.18942029136815 93.18020679452457,79.84187560525606 91.7843426882755,80.30791452495032 90.38847858202644,80.82055676876917 88.87296898080967,81.2399908893567 87.47710487432778,81.706028333836 86.08124076807871,82.1720652866934 85.20384047250263,81.37980217425502 84.92466765106656,80.49432995519601 84.28655834542587,79.70206383345067 83.64844903978519,79.23602427431615 82.89069423917681,79.65545989960083 82.33234859677032,80.02829123215633 81.45494830119424,80.82055676876917 80.41802067938261,79.56225201723282 79.62038404704072,78.1175273261033 78.58345642546192,76.99902754541836 77.74593796161935,75.83392059514881 76.94830132927746,74.62220610622899 76.23042836040258,73.31727909258916 75.55243722302839,72.0123482234776 74.79468242242001,70.70741349863238 74.07680945331231,69.44907993375091 73.43870014767163,68.09753248144989 72.68094534706324,66.79258618934546 71.96307237818837,65.44103060741327 71.16543574584648,64.13607646565652 70.36779911373742,62.924329881207086 69.6100443128962,61.61936830263585 68.81240768101998,60.361008842883166 68.01477104867809,59.10264579745126 67.2570162480697,57.751066680735676 66.539143278962,56.53930257630418 65.78138847858645,55.32753514678916 64.62481536180712,55.0012895015534 63.22895125532523,55.23432212998159 61.91285081231035,55.60717407951597 60.4372230428271,56.02663214658969 58.961595273111016,56.39948342717253 57.44608567189425,56.632515317818616 55.970457902411,56.91215342414216 54.494830132694915,57.331610251480015 53.05908419494517,57.704460430453764 51.58345642546192,58.123916505341185" stroke="#4dd2ff" stroke-linecap="round" stroke-linejoin="round" stroke-width="0.5"><title>2024-09-30 13.0km</title><desc>9223370309153937807</desc></polyline><polyline fill="none" points="55.0,193.51443604027736 54.13537117908709,193.56036288963514 53.42794759827666,192.45811716889148 52.28820960689336,191.26401448794059 51.26637554587796,189.74841790524079 50.48034934489988,188.2328160444158 49.419213973684236,187.13055683035054 47.88646288192831,187.08462930243695 46.353711790405214,187.26833938472555 46.07860261993483,186.3497881978401 46.31441048020497,186.02829482435482 47.100436681183055,185.7527288866404 48.63318777293898,185.33937965301448 50.126637554494664,184.92603002657415 51.58078602608293,184.60453560127644 52.99563318770379,184.23711311022635 54.37117903935723,183.82376243686303 55.74672489077784,183.3185555251839 57.08296943223104,182.90520397937507 58.37991266371682,182.76742004347034 59.67685589520261,182.53778005356435 60.97379912668839,182.17035581727396 62.31004366814159,181.84885935633793 63.6855895195622,181.4814345384948 65.02183406124823,181.0221530800627 66.31877729250118,181.0221530800627 67.57641921378672,180.47101469000336 68.44104803493246,180.14951697349898 69.58078602608293,179.73616241753916 70.87772925756872,179.41466415816103 72.21397379902191,179.13909403255093 73.58951965067536,178.86352373225964 74.96506550209597,178.49609639385017 76.37991266371682,178.17459721828345 77.75545851513743,177.76124078640714 79.09170305659063,177.30195540146087 80.46724890824407,177.25602683640318 81.56768558965996,176.6130264152598 82.82532751071267,176.15373981872108 84.16157205216587,175.8322389124951 85.4978165938519,175.37295149173588 86.79475982533768,174.91366358613595 88.05240174662322,174.50030405668076 89.27074235817418,173.995086320705 90.52838427945971,173.44393903081072 91.8253275109455,172.89279104277375 93.08296943246387,172.479429593659 94.301310043782,171.97420951139065 95.51965065510012,171.331201285735 96.77729257638566,170.73412136820843 97.95633187750354,170.13704063137993 99.13537117908709,169.7696059246082 100.11790393013507,170.8259798703657 100.94323144108057,171.97420951139065 101.72925764182582,173.07650711626047 102.4759825328365,174.22473081896896 103.37991266371682,175.28109394942294 104.20524017466232,176.38338317768648 104.8733624452725,177.577526690613 105.58078602608293,178.81759533190052 106.2096069867257,180.05766043940093 106.91703056753613,181.29772201325977 107.50655021821149,182.53778005356435 108.13537117908709,183.8696903088712 108.76419213972986,185.20159648775007 109.39301310037263,186.44164340375573 109.98253275104798,187.72761425122735 110.57205240172334,188.9676539695065 111.24017467233352,190.25361735274782 111.82969432324171,191.5395769357856 112.37991266371682,192.87145964137744 112.96943231439218,194.2033382707741 112.45851528388448,195.25965290609747 111.08296943223104,195.71891933929874 109.74672489077784,196.22411185578676 108.3711790391244,196.68337727122707 107.07423580787145,197.2344951298437 105.73799126618542,197.7396858872089 104.40174672496505,198.19894970330643 103.10480349324644,198.70413934116368 102.04366812226363,199.43895958567737 100.70742358081043,199.85229542804882 99.33187772915699,200.26563087804243 97.87772925756872,200.67896593516343 96.58078602608293,201.13822664963664 95.28384279459715,201.64341287573916 93.94759825314395,202.10267257248051 92.76855895179324,202.79156120869447 91.43231441057287,203.20489386713598 90.05676855891943,203.3885971448617 88.60262008733116,203.75600346771535 87.06986899557523,204.2152609352488 85.53711790381931,204.7663692564529 84.12227074243128,205.3634024837229 84.27947598230094,206.0522859590128 84.90829694317654,207.01672099274583 86.12663755449466,207.7515272029268 87.65938864625059,207.2463480666338 89.07423580787145,206.69524288570392 90.44978165929206,206.09821148533956 91.74672489101067,205.54710485044052 93.04366812226363,205.13377441631746 94.41921397391707,204.62859224161366 95.6768558952026,204.12340948049678 96.89519650652073,203.61822613317054 98.23144104797393,203.1130421991984 99.4890829694923,202.47007998081972 100.78602620074525,201.87304278460215 102.12227074219845,201.5056348722719 103.37991266371682,201.04637454549083 104.67685589496978,200.5871137342474 105.93449781648815,200.0360001209192 107.23144104797393,199.5308120290283 108.52838427945971,199.0715496185294 109.86462882091291,198.56636040710146 111.24017467233352,198.10709697884158 112.53711790381931,197.6478330658574 113.8733624452725,197.14264220185578 115.13100436679088,197.46412736506318 115.72052401746623,198.84191823148285 116.349344978109,200.1737785896985 117.01746724895202,201.4597088614246 117.6855895195622,202.69970945364912 118.27510917023756,204.0315580063907 118.90393013088033,205.45525367671507 119.49344978155568,206.78709379743668 120.08296943246387,208.07300452981144 119.8471615719609,209.1292855036154 118.1965065500699,209.404836640344 116.66375545831397,209.72631274614832 115.24890829669312,210.13963881888776 113.8733624452725,210.5988895505434 112.45851528388448,211.05813979756203 111.12227074243128,211.56331450969446 109.74672489077784,212.02256373912678 108.44978165905923,212.75736149851582 107.19213973800652,213.35438376458478 106.13100436679088,214.22695329564158 105.30567685584538,215.32914388732752 104.63755458500236,216.47725611907663 104.44104803469963,217.85498679970624 104.63755458500236,219.1867889793357 105.06986899557523,220.4726630790974 105.81659388635308,221.6666856276861 106.56331877736375,222.81478114327183 107.62445414834656,223.7332553754386 108.44978165905923,224.78949834645027 109.39301310037263,225.57019802569994 109.74672489077784,226.85605326859513 110.45414847158827,228.00413509717328 111.04366812226363,229.19813698675716 111.55458515277132,230.3921356013161 112.30131004354917,231.54020810363 113.08733624452725,232.73420029421686 113.8733624452725,233.97411179498886 114.54148471611552,235.16809730965178 115.2096069867257,236.36207954966812 115.72052401746623,237.60198071735795 116.46724890824407,238.79595628168317 117.09606986888684,239.98992857150733 117.76419213972986,241.22981940643513 118.39301310037263,242.42378502097563 118.86462882114574,243.57182579295477 118.55021834070794,243.11260984753608 117.76419213972986,241.59719379045418 117.05676855891943,240.21953825189848 116.349344978109,238.84187835347257 115.64192139729857,237.60198071735795 114.89519650652073,236.31615721646813 114.14847161551006,235.03032991761575 113.40174672496505,233.8822666197084 112.69432314415462,232.73420029421686 111.86899563320912,231.58613094079192 111.04366812226363,230.3462126382219 110.21834061131813,229.15221389764338 109.39301310037263,227.95821188221453 108.60698689939454,226.71828324571834 107.6637554585468,225.75389186441316 106.99563318770379,224.6058041008946 106.44541484722868,223.41178961467813 105.62008733628318,222.21777185302926 104.79475982533768,220.93190290839993 104.08733624452725,219.64603016528417 103.85152838425711,218.31422939093318 104.04803493455984,216.89057578114443 104.59825327503495,215.60469109908445 105.42358078598045,214.4565765657171 106.56331877736375,213.5380827584595 107.82096069864929,212.9410607443715 109.07860262016766,212.43588763143634 110.41484716162086,211.88478902130737 111.79039301304147,211.6092394545267 113.04803493455984,211.14998978888616 114.38427947601303,210.69073963872506 115.75982532743365,210.32333916967036 117.05676855891943,209.91001327132108 118.43231441034004,209.63446245444356 119.76855895202607,209.2670610937639 120.79039301304147,208.71595847135177 122.08733624452725,208.67003322124947 123.54148471611552,208.48633217276074 124.95633187750354,208.2107804544794 126.41048034932464,208.16485515102977 127.86462882091291,208.16485515102977 129.24017467256635,208.11892984289443 130.69432314415462,208.11892984289443 132.1877729257103,208.16485515102977 133.681222707266,208.39448161932523 135.01746724895202,208.8537341923511 136.23580786027014,209.68038760271156 137.25764192128554,210.78258970743627 137.96506550209597,211.97663883806672 138.397379912436,213.3084590038634 138.59388646297157,214.6861997146043 138.397379912436,215.6965401308844 137.17903930111788,216.5231805453368 135.80349344969727,216.89057578114443 134.5065502182115,217.3038950507762 133.1703056767583,217.7172139279137 131.75545851513743,218.08460815582657 130.34061135351658,218.40607785098837 128.92576419212855,218.81939568155212 127.62882096064277,219.23271311967983 127.8253275109455,220.1511949102569 129.24017467256635,219.92157464424963 130.57641921401955,219.50825786034693 131.8733624452725,219.09494068383356 133.2096069867257,218.68162311491324 134.54585152841173,218.36015362333274 135.88209606986493,217.9468353568227 137.21834061131813,217.62536532245576 138.55458515277132,217.44166805339046 139.4978165938519,218.5897747130657 140.08733624452725,219.87565057657775 140.71615720517002,221.06967476280988 141.38427947601303,222.30961948935874 142.05240174662322,223.54956068389583 142.72052401746623,224.83542189581203 143.38864628830925,226.02943247699295 143.97816593875177,227.3152863633586 144.60698689962737,228.55521329923067 145.23580786027014,229.79513670346932 145.8253275109455,230.98913368038484 146.49344978155568,232.22905015171273 147.1615720523987,233.4689630913781 147.82969432300888,234.6629499917035 148.41921397391707,235.85693361706217 149.048034934327,237.0049917070428 149.59825327503495,238.24489104366512 149.6768558952026,239.53070884765475 150.03056768560782,240.72467912227148 150.81659388635308,241.87272437495994 151.24890829692595,243.2503746819857 151.4847161571961,244.6739420859085 151.64192139729857,246.05158352840226 151.87772925756872,247.42922061157878 151.75982532743365,248.80685333517613 151.28820960689336,250.00079816952348 151.72052401746623,249.90895637543872 152.11353711783886,248.4854060895741 152.07423580787145,247.15369354368886 151.87772925756872,245.7760555886489 151.56331877736375,244.35249178859522 151.24890829692595,243.02076660026796 150.89519650652073,241.68903733807383 150.54148471611552,240.3573040018964 149.91266375523992,239.025566591823 149.3624454147648,237.78566947890795 148.81222707405686,236.49984652042622 148.22270742361434,235.35178709836327 147.59388646273874,234.06595695088618 147.08296943246387,232.780123005301 146.45414847158827,231.4024395631859 145.78602620074525,230.11659775016597 145.15720524010248,228.8307521387469 144.52838427945971,227.54490272898693 143.8602620086167,226.35089630476432 143.23144104797393,225.2028101158794 142.60262008733116,224.05472089882824 141.93449781672098,222.90662865358172 141.3449781658128,221.62076174415415 140.71615720517002,220.3808150550758 140.04803493455984,219.09494068383356 139.45851528388448,217.76313822332304 140.12663755449466,216.79872700123815 141.3449781658128,216.43133168798522 142.75982532743365,215.88023813645123 144.21397379925475,215.420992977306 145.668122270843,215.00767191959312 147.08296943246387,214.64027509454172 148.4978165938519,214.2728779593599 149.91266375523992,213.90548051401856 151.3275109170936,213.49215801729588 152.70305676828139,213.03291033845744 153.88209606986493,212.57366217498202 153.60698689962737,211.47146460576914 152.15283842780627,211.70108932937728 150.73799126641825,212.2062632953748 149.3624454147648,212.66551184642594 148.0262008733116,213.07883512807894 146.6899563318584,213.49215801729588 145.31441048020497,213.90548051401856 143.93886462878436,214.3188026182179 142.4847161571961,214.6861997146043 140.99126637540758,215.0535965010058 139.65502183395438,215.46691751512117 138.55458515277132,215.19137021602364 138.1615720523987,213.72178167500533 137.8471615719609,212.3899627738865 137.21834061131813,211.19591477731592 136.3537117904052,210.0018635049346 135.33187772892416,209.1292855036154 134.11353711783886,208.48633217276074 132.73799126641825,208.16485515102977 131.32314410456456,208.02707921201363 129.8689956329763,207.98115388918086 128.45414847158827,208.02707921201363 127.03930130996741,208.11892984289443 125.70305676851422,208.11892984289443 124.3275109170936,208.25670575286495 123.03056768537499,208.48633217276074 121.81222707405686,208.67003322124947 120.90829694317654,207.7515272029268 120.27947598253377,206.41969003342092 119.65065502165817,205.08784878824372 118.94323144084774,203.75600346771535 118.31441048020497,202.4241540717776 117.6855895195622,201.0923005999066 117.09606986888684,199.7604430525389 116.62445414834656,198.33672875360935 116.07423580787145,197.28042158661992 115.2096069867257,197.14264220185578 114.06986899557523,197.0507892544847 113.55895196506754,196.13225871452596 112.89082969422452,194.75445926992688 112.41921397368424,193.3766554632166 111.59388646273874,192.1366283078387 111.12227074243128,190.71288906861446 110.49344978155568,189.38099975706427 109.90393013088033,188.0491063693189 109.19650655030273,186.76313647185452 108.56768558942713,185.47716277450672 107.86026200884953,184.14525743896957 107.27074235794134,182.8133480269753 106.68122270726599,181.57329077203758 106.09170305659063,180.42508645940688 105.42358078598045,179.23095076036407 104.63755458500236,177.94495480458136 103.85152838425711,176.70488367657526 102.98689956311136,175.5566665182414 102.12227074219845,174.54623291277676 101.25764192151837,173.3520810812479 100.43231441034004,172.20385507601895 99.52838427945971,171.1474844752811 98.78165938868187,169.99925265272032 97.75982532743365,169.99925265272032 96.77729257638566,170.73412136820843 95.75545851537026,171.5149180185399 94.45851528365165,172.11199686469627 93.12227074219845,172.6631458416232 91.94323144108057,173.39801005850313 90.60698689962737,173.9032284875575 89.23144104797393,174.408446330257 87.93449781648815,174.9595923986053 86.63755458500236,175.41888025563094 85.26200873358175,175.8322389124951 83.80786026222631,176.10781113235862 82.35371179040521,176.4752404873143 81.01746724895202,176.70488367657526 79.72052401746623,177.21009826631052 78.34497816604562,177.48566961364122 76.89082969422452,177.80716929814662 75.51528384280391,178.2664541498525 74.10043668118306,178.6338816821808 72.64628820959479,178.95538051842595 71.23144104797393,179.41466415816103 69.77729257638566,179.82801901947823 68.3231441047974,180.24137348821387 67.53711790405214,180.3332299834583 66.24017467256635,180.83844036099617 64.78602620074525,180.8843685479369 63.331877729156986,181.25179386991658 61.79912663763389,181.61921888162033 60.26637554587796,182.1244277660153 58.77292576408945,182.53778005356435 57.27947598230094,182.8592760056781 55.786026200978085,183.1807717202464 54.213973799021915,183.5481951031834 52.87772925756872,183.96154603824834" stroke="#4dd2ff" stroke-linecap="round" stroke-linejoin="round" stroke-width="0.5"><title>2024-09-27 13.2km</title><desc>9223370309412080807</desc></polyline></svg>