<?xml version="1.0" encoding="utf-8" ?>
<svg baseProfile="full" height="200mm" version="1.1" viewBox="0,0,200,200" width="200mm" xmlns="http://www.w3.org/2000/svg" xmlns:ev="http://www.w3.org/2001/xml-events" xmlns:xlink="http://www.w3.org/1999/xlink"><defs /><rect fill="#1a1a1a" height="200" width="200" x="0" y="0" /><text alignment-baseline="middle" fill="#e1ed5e" style="dominant-baseline: central; font-size:9.0px; font-family:Arial;" text-anchor="middle" x="100.0" y="100.0">2026</text><line stroke="#e1ed5e" stroke-width="0.3" x1="100.0" x2="100.0" y1="15.0" y2="10.0" /><path d="M 100.0 14.0 a86.0,86.0 0 0,1 42.46469731375804,11.215312516191453" fill="none" id="id85" stroke="none" /><text fill="#e1ed5e" style="font-size:6.75px; font-family:Arial;" text-anchor="middle"><textPath startOffset="22.20632615414155" xlink:href="#id85">January</textPath></text><path d="M 102.16513564639614 79.11191278185805 l 5.018412762186225 -48.41500053249032 a69.67439514994214,69.67439514994214 0 0,0 1.1918744119371298,0.133920977511429 l -5.85105387763308 48.321443601508285" fill="red" stroke="none" /><path d="M 105.01212808612495 79.60689891045804 l 12.957584974184895 -52.721186632558634 a75.29016972075425,75.29016972075425 0 0,0 1.2558798677417182,0.32015174161908483 l -13.863173730611638 52.490331894770684" fill="red" stroke="none" /><path d="M 106.0581310904928 79.89281104454417 l 17.80143856981503 -59.08371470599761 a82.70718401138247,82.70718401138247 0 0,0 1.3596061763159735,0.4224362572051159 l -18.81583011884172 58.76853831390997" fill="red" stroke="none" /><path d="M 106.74666289553966 80.11325718540242 l 16.97288621936195 -50.02998197657536 a73.83065363207105,73.83065363207105 0 0,0 1.1999871779236704,0.4186519640116801 l -17.831555401348893 49.73040915939147" fill="red" stroke="none" /><path d="M 107.76421540070413 80.48803036053334 l 18.692372249323842 -46.97512639658852 a71.55756402639233,71.55756402639233 0 0,0 1.140546234885488,0.4652574466202568 l -19.49820235379772 46.64640806378468" fill="red" stroke="none" /><path d="M 108.43124777332544 80.76684994638697 l 23.047949744940095 -52.57640242468236 a78.4063243847525,78.4063243847525 0 0,0 1.2314194193993095,0.5525019984699672 l -23.949551282806183 52.171880095695855" fill="red" stroke="none" /><path d="M 109.08828744355905 81.06846463323043 l 26.420933888458546 -55.03664441059482 a82.04996294443228,82.04996294443228 0 0,0 1.2679795483903633,0.6221920576204328 l -27.364384703859344 54.573697192839546" fill="red" stroke="none" /><path d="M 109.41281617654863 81.2277094730956 l 20.203539689382772 -40.29258721378772 a66.07411230807718,66.07411230807718 0 0,0 1.0123167941431692,0.5185479805577345 l -20.8941169711147 39.93884670791748" fill="red" stroke="none" /><line stroke="#e1ed5e" stroke-width="0.3" x1="143.23703022742887" x2="145.7803849466894" y1="26.81831364943548" y2="22.513508569990506" /><path d="M 143.74570117128098 25.957352633546492 a86.0,86.0 0 0,1 28.547481713284135,27.462654790039103" fill="none" id="id86" stroke="none" /><text fill="#e1ed5e" style="font-size:6.75px; font-family:Arial;" text-anchor="middle"><textPath startOffset="19.985693538727396" xlink:href="#id86">February</textPath></text><line stroke="#e1ed5e" stroke-width="0.3" x1="172.23445277983987" x2="176.4835382374775" y1="55.19839476539836" y2="52.563006222186495" /><path d="M 173.08426987136738 54.67131705675599 a86.0,86.0 0 0,1 12.851231095245387,41.99856678651699" fill="none" id="id87" stroke="none" /><text fill="#e1ed5e" style="font-size:6.75px; font-family:Arial;" text-anchor="middle"><textPath startOffset="22.20632615414155" xlink:href="#id87">March</textPath></text><path d="M 120.83666639777658 97.38593545837742 l 62.352321683559886 -7.822412188651778 a83.84108649426186,83.84108649426186 0 0,0 0.16732144470333732,1.433507956733921 l -62.47773348126681 6.747960493593004" fill="red" stroke="none" /><line stroke="#e1ed5e" stroke-width="0.3" x1="184.98032266829074" x2="189.97916517819016" y1="98.17113171792111" y2="98.06355123074" /><path d="M 185.9800911702706 98.14961562048488 a86.0,86.0 0 0,1 -9.607161424134198,41.387399972396054" fill="none" id="id88" stroke="none" /><text fill="#e1ed5e" style="font-size:6.75px; font-family:Arial;" text-anchor="middle"><textPath startOffset="21.466115282336823" xlink:href="#id88">April</textPath></text><path d="M 120.95626037817324 101.35467743843564 l 53.76282924691273 3.47539544236228 a74.87504229338003,74.87504229338003 0 0,0 -0.09421220416877918,1.2854506739382847 l -53.69504048407961 -4.400319252797335" fill="red" stroke="none" /><path d="M 120.8583938346157 102.4346265915055 l 13.791592555090132 1.6097777345688167 a34.88522270474374,34.88522270474374 0 0,0 -0.07475154149052643,0.5958433343772307 l -13.761839504352757 -1.8469388232334423" fill="red" stroke="none" /><path d="M 120.81339534386255 102.79330883721812 l 49.133532974394896 6.594077015963457 a70.5740447637512,70.5740447637512 0 0,0 -0.17195180828258033,1.2026305466364595 l -49.01274711509571 -7.438853034580326" fill="red" stroke="none" /><path d="M 120.76222939487914 103.15116336523771 l 58.30957436292526 8.849868242972626 a79.97733997310735,79.97733997310735 0 0,0 -0.21829337229091966,1.3593130376328526 l -58.14859923627305 -9.852260510298683" fill="red" stroke="none" /><path d="M 120.32669344350535 105.2749913415812 l 60.92608705447369 15.810962200124006 a83.94421823696801,83.94421823696801 0 0,0 -0.37499850441883975,1.395508937810287 l -60.64490047371307 -16.85736207110984" fill="red" stroke="none" /><path d="M 119.41010516605496 108.01547362559984 l 58.230315498164885 24.046420876799505 a84.0,84.0 0 0,0 -0.5633960752307643,1.331701897335346 l -57.80776844174181 -25.045197299801014" fill="red" stroke="none" /><line stroke="#e1ed5e" stroke-width="0.3" x1="174.80103733775053" x2="179.2010983576182" y1="140.37084112569926" y2="142.7455964860345" /><path d="M 175.68104954172406 140.8457921977663 a86.0,86.0 0 0,1 -30.038265399797805,32.042727171017184" fill="none" id="id89" stroke="none" /><text fill="#e1ed5e" style="font-size:6.75px; font-family:Arial;" text-anchor="middle"><textPath startOffset="22.206326154141568" xlink:href="#id89">May</textPath></text><line stroke="#e1ed5e" stroke-width="0.3" x1="143.8653032363475" x2="146.44561519142675" y1="172.8068346515853" y2="177.08958963109032" /><path d="M 144.38136562736335 173.6633856474863 a86.0,86.0 0 0,1 -40.68145358897372,12.25698825130547" fill="none" id="id90" stroke="none" /><text fill="#e1ed5e" style="font-size:6.75px; font-family:Arial;" text-anchor="middle"><textPath startOffset="21.466115282336833" xlink:href="#id90">June</textPath></text><line stroke="#e1ed5e" stroke-width="0.3" x1="102.19456741930631" x2="102.32365962044197" y1="184.97166512339345" y2="189.96999836594603" /><path d="M 102.22038585953345 185.97133177190398 a86.0,86.0 0 0,1 -42.740103519485714,-10.115201625700543" fill="none" id="id91" stroke="none" /><text fill="#e1ed5e" style="font-size:6.75px; font-family:Arial;" text-anchor="middle"><textPath startOffset="22.20632615414155" xlink:href="#id91">July</textPath></text><line stroke="#e1ed5e" stroke-width="0.3" x1="58.666819895761336" x2="56.23545636021788" y1="174.27360380694188" y2="178.64263932499728" /><path d="M 58.180547188652646 175.14741091055294 a86.0,86.0 0 0,1 -31.652253787137756,-30.449443065178592" fill="none" id="id92" stroke="none" /><text fill="#e1ed5e" style="font-size:6.75px; font-family:Arial;" text-anchor="middle"><textPath startOffset="22.20632615414155" xlink:href="#id92">August</textPath></text><line stroke="#e1ed5e" stroke-width="0.3" x1="26.63291911575756" x2="22.317208475507996" y1="142.92168965132927" y2="145.44649492493687" /><path d="M 25.769776987707644 143.4266507060508 a86.0,86.0 0 0,1 -11.730757126820373,-40.83630448921669" fill="none" id="id93" stroke="none" /><text fill="#e1ed5e" style="font-size:6.75px; font-family:Arial;" text-anchor="middle"><textPath startOffset="21.46611528233685" xlink:href="#id93">September</textPath></text><line stroke="#e1ed5e" stroke-width="0.3" x1="15.007084014347285" x2="10.007500721073583" y1="101.09737516637583" y2="101.16192664675087" /><path d="M 14.007167355692545 101.11028546245083 a86.0,86.0 0 0,1 10.666146001902534,-42.60595125391555" fill="none" id="id94" stroke="none" /><text fill="#e1ed5e" style="font-size:6.75px; font-family:Arial;" text-anchor="middle"><textPath startOffset="22.20632615414155" xlink:href="#id94">October</textPath></text><line stroke="#e1ed5e" stroke-width="0.3" x1="26.266209847984243" x2="21.928928074336255" y1="57.711370442889674" y2="55.22380399835377" /><path d="M 25.398753493254645 57.213857153982495 a86.0,86.0 0 0,1 29.58750427330803,-30.492523968695096" fill="none" id="id95" stroke="none" /><text fill="#e1ed5e" style="font-size:6.75px; font-family:Arial;" text-anchor="middle"><textPath startOffset="21.46611528233685" xlink:href="#id95">November</textPath></text><line stroke="#e1ed5e" stroke-width="0.3" x1="56.762969772571076" x2="54.21961505331055" y1="26.818313649435495" y2="22.513508569990535" /><path d="M 56.25429882871897 25.957352633546506 a86.0,86.0 0 0,1 42.265352541879196,-11.944610805530505" fill="none" id="id96" stroke="none" /><text fill="#e1ed5e" style="font-size:6.75px; font-family:Arial;" text-anchor="middle"><textPath startOffset="22.20632615414155" xlink:href="#id96">December</textPath></text></svg>