<?xml version="1.0" encoding="utf-8" ?>
<svg baseProfile="full" height="200mm" version="1.1" viewBox="0,0,200,200" width="200mm" xmlns="http://www.w3.org/2000/svg" xmlns:ev="http://www.w3.org/2001/xml-events" xmlns:xlink="http://www.w3.org/1999/xlink"><defs /><rect fill="#1a1a1a" height="200" width="200" x="0" y="0" /><text alignment-baseline="middle" fill="#e1ed5e" style="dominant-baseline: central; font-size:9.0px; font-family:Arial;" text-anchor="middle" x="100.0" y="100.0">2023</text><line stroke="#e1ed5e" stroke-width="0.3" x1="100.0" x2="100.0" y1="15.0" y2="10.0" /><path d="M 100.0 14.0 a86.0,86.0 0 0,1 42.46469731375804,11.215312516191453" fill="none" id="id49" stroke="none" /><text fill="#e1ed5e" style="font-size:6.75px; font-family:Arial;" text-anchor="middle"><textPath startOffset="22.20632615414155" xlink:href="#id49">January</textPath></text><path d="M 103.59715602781102 79.31037775812273 l 2.974721687273119 -17.10959088473374 a38.36626238888774,38.36626238888774 0 0,0 0.6496776233587979,0.11872443303395877 l -3.268794431734818 17.05585097034904" fill="red" stroke="none" /><line stroke="#e1ed5e" stroke-width="0.3" x1="143.23703022742887" x2="145.7803849466894" y1="26.81831364943548" y2="22.513508569990506" /><path d="M 143.74570117128098 25.957352633546492 a86.0,86.0 0 0,1 28.547481713284135,27.462654790039103" fill="none" id="id50" stroke="none" /><text fill="#e1ed5e" style="font-size:6.75px; font-family:Arial;" text-anchor="middle"><textPath startOffset="19.985693538727396" xlink:href="#id50">February</textPath></text><path d="M 110.99172775467656 82.1063720568725 l 6.3445892203186 -10.328468962675746 a33.121513250726544,33.121513250726544 0 0,0 0.4832284430700435,0.30259760671899866 l -6.521436815760906 10.217727014633804" fill="red" stroke="none" /><path d="M 111.60114157652 82.49532879139004 l 9.568484534362703 -14.437646039738393 a38.320551938466394,38.320551938466394 0 0,0 0.5466979746911821,0.36913291291865985 l -9.815587203460428 14.270801214521063" fill="red" stroke="none" /><path d="M 114.68862486808459 84.99185889309783 l 10.000548339404194 -10.218086578702737 a35.2975613451604,35.2975613451604 0 0,0 0.43057007419180293,0.4287210694585043 l -10.174954213763318 10.044429658594114" fill="red" stroke="none" /><path d="M 114.94478906791727 85.2469230424477 l 20.32350516238554 -20.06279475376167 a49.5580215599239,49.5580215599239 0 0,0 0.5940726212764114,0.6122440566830303 l -20.66584204736506 19.709986501528526" fill="red" stroke="none" /><path d="M 115.4437574822437 85.77008943001954 l 41.9705339675071 -38.671738119341796 a78.0703868103995,78.0703868103995 0 0,0 0.9021083732909243,0.9961305972683194 l -42.62998598141406 37.943554734803925" fill="red" stroke="none" /><path d="M 116.82858285166822 87.43820079747576 l 16.633451172619964 -12.416141960208533 a41.75649968294229,41.75649968294229 0 0,0 0.4249964358479844,0.5796946608760497 l -16.844710220981575 12.127984855660989" fill="red" stroke="none" /><line stroke="#e1ed5e" stroke-width="0.3" x1="172.23445277983987" x2="176.4835382374775" y1="55.19839476539836" y2="52.563006222186495" /><path d="M 173.08426987136738 54.67131705675599 a86.0,86.0 0 0,1 12.851231095245387,41.99856678651699" fill="none" id="id51" stroke="none" /><text fill="#e1ed5e" style="font-size:6.75px; font-family:Arial;" text-anchor="middle"><textPath startOffset="22.20632615414155" xlink:href="#id51">March</textPath></text><path d="M 118.21658344932153 89.55222093294921 l 24.79263970854305 -14.219352541296416 a49.58084971464807,49.58084971464807 0 0,0 0.41823184119895995,0.7439877779300178 l -25.033729191034443 13.790481253431604" fill="red" stroke="none" /><path d="M 119.196687751892 91.48605970444005 l 26.24654481740249 -11.640628759931719 a49.712111604311986,49.712111604311986 0 0,0 0.3401948700417671,0.7852166639788837 l -26.443030397286936 11.187112951366233" fill="red" stroke="none" /><line stroke="#e1ed5e" stroke-width="0.3" x1="184.98032266829074" x2="189.97916517819016" y1="98.17113171792111" y2="98.06355123074" /><path d="M 185.9800911702706 98.14961562048488 a86.0,86.0 0 0,1 -9.607161424134198,41.387399972396054" fill="none" id="id52" stroke="none" /><text fill="#e1ed5e" style="font-size:6.75px; font-family:Arial;" text-anchor="middle"><textPath startOffset="21.466115282336823" xlink:href="#id52">April</textPath></text><path d="M 120.13307415673323 105.97154293290107 l 18.099522414296633 5.368384098750818 a39.87888395688015,39.87888395688015 0 0,0 -0.2008627745225057,0.6564311689819029 l -18.004432867267994 -5.6791422402847775" fill="red" stroke="none" /><path d="M 119.79798401119884 107.00284435728193 l 21.55377949511619 7.623895596142237 a43.86239695624604,43.86239695624604 0 0,0 -0.25790199420259874,0.7096355235464838 l -21.419353239908364 -7.993778916694852" fill="red" stroke="none" /><path d="M 118.97047184881838 109.00673069616215 l 20.688967351021326 9.822631656046397 a43.90234622701332,43.90234622701332 0 0,0 -0.3299924942336827,0.6798822786695692 l -20.51682160017293 -10.17730289068124" fill="red" stroke="none" /><line stroke="#e1ed5e" stroke-width="0.3" x1="174.80103733775053" x2="179.2010983576182" y1="140.37084112569926" y2="142.7455964860345" /><path d="M 175.68104954172406 140.8457921977663 a86.0,86.0 0 0,1 -30.038265399797805,32.042727171017184" fill="none" id="id53" stroke="none" /><text fill="#e1ed5e" style="font-size:6.75px; font-family:Arial;" text-anchor="middle"><textPath startOffset="22.206326154141568" xlink:href="#id53">May</textPath></text><path d="M 118.48025628344425 109.97397251340804 l 25.19669692201462 13.59890028981833 a49.632213062777424,49.632213062777424 0 0,0 -0.41223946710844417,0.7483343758493765 l -24.958881045454667 -14.03060518406551" fill="red" stroke="none" /><path d="M 116.93607887273984 112.41649034213515 l 18.474885568034527 13.544648672886254 a43.908053265694356,43.908053265694356 0 0,0 -0.45212484857419877,0.6056951198519341 l -18.23899945276524 -13.860656672247503" fill="red" stroke="none" /><path d="M 115.80600337817218 113.82643327865902 l 18.10552701485525 15.837960758097955 a45.05516804058338,45.05516804058338 0 0,0 -0.5156481388648206,0.5793361503630146 l -17.830220026342094 -16.147271078201836" fill="red" stroke="none" /><line stroke="#e1ed5e" stroke-width="0.3" x1="143.8653032363475" x2="146.44561519142675" y1="172.8068346515853" y2="177.08958963109032" /><path d="M 144.38136562736335 173.6633856474863 a86.0,86.0 0 0,1 -40.68145358897372,12.25698825130547" fill="none" id="id54" stroke="none" /><text fill="#e1ed5e" style="font-size:6.75px; font-family:Arial;" text-anchor="middle"><textPath startOffset="21.466115282336833" xlink:href="#id54">June</textPath></text><path d="M 110.21172684928248 118.3499491758327 l 11.122910013205244 19.987298567824293 a43.87381103360812,43.87381103360812 0 0,0 -0.6630736561168,0.361560625823391 l -10.777213545219794 -20.175799845407457" fill="red" stroke="none" /><path d="M 109.89434966115114 118.52300852407294 l 12.490059111164156 23.382382804869664 a47.509194673430564,47.509194673430564 0 0,0 -0.7246489175018841,0.37910206461406315 l -12.085719291135776 -23.593914288428444" fill="red" stroke="none" /><path d="M 107.93186726928326 119.44442032107085 l 8.650398591801903 21.205849827463712 a43.90234622701332,43.90234622701332 0 0,0 -0.7021844195222222,0.27941367196274497 l -8.284093096237815 -21.351610343832526" fill="red" stroke="none" /><path d="M 102.34483914955558 120.86867818915974 l 2.5585277250110576 22.770470947407293 a43.9137603043754,43.9137603043754 0 0,0 -0.7519027031394392,0.0779377895250723 l -2.166192425266016 -22.811138105388125" fill="red" stroke="none" /><line stroke="#e1ed5e" stroke-width="0.3" x1="102.19456741930631" x2="102.32365962044197" y1="184.97166512339345" y2="189.96999836594603" /><path d="M 102.22038585953345 185.97133177190398 a86.0,86.0 0 0,1 -42.740103519485714,-10.115201625700543" fill="none" id="id55" stroke="none" /><text fill="#e1ed5e" style="font-size:6.75px; font-family:Arial;" text-anchor="middle"><textPath startOffset="22.20632615414155" xlink:href="#id55">July</textPath></text><path d="M 98.73552117531835 120.96189622390904 l -1.9381267971386438 32.12929469232184 a53.18769816106531,53.18769816106531 0 0,0 -0.9134030773966749,-0.06299362403018237 l 2.490892635314249 -32.09117272377537" fill="red" stroke="none" /><line stroke="#e1ed5e" stroke-width="0.3" x1="58.666819895761336" x2="56.23545636021788" y1="174.27360380694188" y2="178.64263932499728" /><path d="M 58.180547188652646 175.14741091055294 a86.0,86.0 0 0,1 -31.652253787137756,-30.449443065178592" fill="none" id="id56" stroke="none" /><text fill="#e1ed5e" style="font-size:6.75px; font-family:Arial;" text-anchor="middle"><textPath startOffset="22.20632615414155" xlink:href="#id56">August</textPath></text><line stroke="#e1ed5e" stroke-width="0.3" x1="26.63291911575756" x2="22.317208475507996" y1="142.92168965132927" y2="145.44649492493687" /><path d="M 25.769776987707644 143.4266507060508 a86.0,86.0 0 0,1 -11.730757126820373,-40.83630448921669" fill="none" id="id57" stroke="none" /><text fill="#e1ed5e" style="font-size:6.75px; font-family:Arial;" text-anchor="middle"><textPath startOffset="21.46611528233685" xlink:href="#id57">September</textPath></text><path d="M 79.67330655649465 105.27499134158121 l -53.20985027913685 13.808517370982491 a75.97238687480184,75.97238687480184 0 0,0 -0.3175959996955333,-1.268638145310666 l 53.43965759312744 -12.890551386274433" fill="red" stroke="none" /><path d="M 79.4281124754447 104.21870165774334 l -57.88603771063833 11.870759207611528 a80.09067850348764,80.09067850348764 0 0,0 -0.26532923197676117,-1.3529080375678988 l 58.081796875590754 -10.872587442975675" fill="red" stroke="none" /><line stroke="#e1ed5e" stroke-width="0.3" x1="15.007084014347285" x2="10.007500721073583" y1="101.09737516637583" y2="101.16192664675087" /><path d="M 14.007167355692545 101.11028546245083 a86.0,86.0 0 0,1 10.666146001902534,-42.60595125391555" fill="none" id="id58" stroke="none" /><text fill="#e1ed5e" style="font-size:6.75px; font-family:Arial;" text-anchor="middle"><textPath startOffset="22.20632615414155" xlink:href="#id58">October</textPath></text><path d="M 79.16333360222342 97.38593545837743 l -62.50999919332974 -7.842193624867687 a84.0,84.0 0 0,0 0.19233600376866455,-1.4331266317413625 l 62.36574719050324 8.91703859867371" fill="red" stroke="none" /><path d="M 79.46518482838121 95.60439243477599 l -57.85985062940764 -12.385268385608073 a80.17057704502218,80.17057704502218 0 0,0 0.3004702100347069,-1.3469490352981308 l 57.63808603237089 13.379395590456163" fill="red" stroke="none" /><path d="M 79.62865764111835 94.90015583598534 l -32.264928870612074 -8.07733267176666 a54.26062143310082,54.26062143310082 0 0,0 0.23462206957724643,-0.9040945424467576 l 32.12111046916452 8.631523639762282" fill="red" stroke="none" /><path d="M 79.81627453868168 94.20196356495316 l -46.92044232161886 -13.478504483755064 a69.81800887761572,69.81800887761572 0 0,0 0.34175617085816135,-1.1522319120405167 l 46.68148025364899 14.28416578254212" fill="red" stroke="none" /><line stroke="#e1ed5e" stroke-width="0.3" x1="26.266209847984243" x2="21.928928074336255" y1="57.711370442889674" y2="55.22380399835377" /><path d="M 25.398753493254645 57.213857153982495 a86.0,86.0 0 0,1 29.58750427330803,-30.492523968695096" fill="none" id="id59" stroke="none" /><text fill="#e1ed5e" style="font-size:6.75px; font-family:Arial;" text-anchor="middle"><textPath startOffset="21.46611528233685" xlink:href="#id59">November</textPath></text><path d="M 87.80319425747018 82.90503203632743 l -33.18295741148639 -46.50902915599042 a78.13316423589093,78.13316423589093 0 0,0 1.1015617569544256,-0.7717144069208579 l 32.37746451494831 47.07332840567522" fill="red" stroke="none" /><line stroke="#e1ed5e" stroke-width="0.3" x1="56.762969772571076" x2="54.21961505331055" y1="26.818313649435495" y2="22.513508569990535" /><path d="M 56.25429882871897 25.957352633546506 a86.0,86.0 0 0,1 42.265352541879196,-11.944610805530505" fill="none" id="id60" stroke="none" /><text fill="#e1ed5e" style="font-size:6.75px; font-family:Arial;" text-anchor="middle"><textPath startOffset="22.20632615414155" xlink:href="#id60">December</textPath></text></svg>