<?xml version="1.0" encoding="utf-8" ?>
<svg baseProfile="full" height="200mm" version="1.1" viewBox="0,0,200,200" width="200mm" xmlns="http://www.w3.org/2000/svg" xmlns:ev="http://www.w3.org/2001/xml-events" xmlns:xlink="http://www.w3.org/1999/xlink"><defs /><rect fill="#1a1a1a" height="200" width="200" x="0" y="0" /><text alignment-baseline="middle" fill="#e1ed5e" style="dominant-baseline: central; font-size:9.0px; font-family:Arial;" text-anchor="middle" x="100.0" y="100.0">2022</text><line stroke="#e1ed5e" stroke-width="0.3" x1="100.0" x2="100.0" y1="15.0" y2="10.0" /><path d="M 100.0 14.0 a86.0,86.0 0 0,1 42.46469731375804,11.215312516191453" fill="none" id="id37" stroke="none" /><text fill="#e1ed5e" style="font-size:6.75px; font-family:Arial;" text-anchor="middle"><textPath startOffset="22.20632615414155" xlink:href="#id37">January</textPath></text><path d="M 100.36148047927253 79.00311137660856 l 0.32423213040278703 -18.833287882911222 a39.836078651221335,39.836078651221335 0 0,0 0.6855094182301784,0.017704685823102775 l -0.6483681838278332 18.82491640494576" fill="red" stroke="none" /><line stroke="#e1ed5e" stroke-width="0.3" x1="143.23703022742887" x2="145.7803849466894" y1="26.81831364943548" y2="22.513508569990506" /><path d="M 143.74570117128098 25.957352633546492 a86.0,86.0 0 0,1 28.547481713284135,27.462654790039103" fill="none" id="id38" stroke="none" /><text fill="#e1ed5e" style="font-size:6.75px; font-family:Arial;" text-anchor="middle"><textPath startOffset="19.985693538727396" xlink:href="#id38">February</textPath></text><path d="M 115.92442197804982 86.31012108654704 l 17.130244030941157 -14.726497882606617 a43.590152731799144,43.590152731799144 0 0,0 0.4842438089906753,0.5731919314850802 l -17.381198453418953 14.42944700149243" fill="red" stroke="none" /><path d="M 117.2510076193507 88.02491185347247 l 15.566166778827391 -10.805526459272562 a39.94900921547902,39.94900921547902 0 0,0 0.3872686141450398,0.5682689048207925 l -15.749859858641164 10.535979531181363" fill="red" stroke="none" /><line stroke="#e1ed5e" stroke-width="0.3" x1="172.23445277983987" x2="176.4835382374775" y1="55.19839476539836" y2="52.563006222186495" /><path d="M 173.08426987136738 54.67131705675599 a86.0,86.0 0 0,1 12.851231095245387,41.99856678651699" fill="none" id="id39" stroke="none" /><text fill="#e1ed5e" style="font-size:6.75px; font-family:Arial;" text-anchor="middle"><textPath startOffset="22.20632615414155" xlink:href="#id39">March</textPath></text><path d="M 117.84615892207809 88.93136811851018 l 16.13991991261029 -10.010379986496735 a39.99222794354387,39.99222794354387 0 0,0 0.3578051343775289,0.5881375623911731 l -16.309840845274042 9.73107465089848" fill="red" stroke="none" /><path d="M 118.03404312379186 89.2402003453031 l 14.653381823608214 -8.742767864284119 a38.06334049350275,38.06334049350275 0 0,0 0.3308616459252745,0.5655498032645953 l -14.801703144003815 8.489238648665628" fill="red" stroke="none" /><path d="M 119.196687751892 91.48605970444005 l 57.506144886451864 -25.504602175071376 a83.90819844670685,83.90819844670685 0 0,0 0.5742089351026534,1.3253533905223691 l -57.9366445313972 24.510949639962405" fill="red" stroke="none" /><path d="M 119.97218684219823 93.5106431181261 l 59.91656052659467 -19.46807064562169 a84.0,84.0 0 0,0 0.4349780649271753,1.3789993342943234 l -60.24279407529006 18.433821144900946" fill="red" stroke="none" /><line stroke="#e1ed5e" stroke-width="0.3" x1="184.98032266829074" x2="189.97916517819016" y1="98.17113171792111" y2="98.06355123074" /><path d="M 185.9800911702706 98.14961562048488 a86.0,86.0 0 0,1 -9.607161424134198,41.387399972396054" fill="none" id="id40" stroke="none" /><text fill="#e1ed5e" style="font-size:6.75px; font-family:Arial;" text-anchor="middle"><textPath startOffset="21.466115282336823" xlink:href="#id40">April</textPath></text><line stroke="#e1ed5e" stroke-width="0.3" x1="174.80103733775053" x2="179.2010983576182" y1="140.37084112569926" y2="142.7455964860345" /><path d="M 175.68104954172406 140.8457921977663 a86.0,86.0 0 0,1 -30.038265399797805,32.042727171017184" fill="none" id="id41" stroke="none" /><text fill="#e1ed5e" style="font-size:6.75px; font-family:Arial;" text-anchor="middle"><textPath startOffset="22.206326154141568" xlink:href="#id41">May</textPath></text><line stroke="#e1ed5e" stroke-width="0.3" x1="143.8653032363475" x2="146.44561519142675" y1="172.8068346515853" y2="177.08958963109032" /><path d="M 144.38136562736335 173.6633856474863 a86.0,86.0 0 0,1 -40.68145358897372,12.25698825130547" fill="none" id="id42" stroke="none" /><text fill="#e1ed5e" style="font-size:6.75px; font-family:Arial;" text-anchor="middle"><textPath startOffset="21.466115282336833" xlink:href="#id42">June</textPath></text><path d="M 109.2508944713604 118.85261126421891 l 8.339612789075657 16.995489300336946 a39.9313443270567,39.9313443270567 0 0,0 -0.6196723459956452,0.2974803835043606 l -8.045827775079779 -17.136523960340867" fill="red" stroke="none" /><path d="M 108.59647513512805 119.15986991738527 l 13.97126205484123 31.139223849854307 a55.12986119773097,55.12986119773097 0 0,0 -0.8691598691217356,0.3810141443689239 l -13.43318151106174 -31.375102547517688" fill="red" stroke="none" /><path d="M 107.59598834532513 119.57807347666477 l 22.720288813067878 58.55979019070601 a83.81290115039047,83.81290115039047 0 0,0 -1.3495065601629734,0.5102679083674948 l -21.708912032144628 -58.94220634918013" fill="red" stroke="none" /><path d="M 103.41894727170886 120.7198165907248 l 1.9979017701975252 12.107866824189562 a33.27159527183278,33.27159527183278 0 0,0 -0.5658771710300523,0.08837837626308881 l -1.7891887355589557 -12.140463507799756" fill="red" stroke="none" /><line stroke="#e1ed5e" stroke-width="0.3" x1="102.19456741930631" x2="102.32365962044197" y1="184.97166512339345" y2="189.96999836594603" /><path d="M 102.22038585953345 185.97133177190398 a86.0,86.0 0 0,1 -42.740103519485714,-10.115201625700543" fill="none" id="id43" stroke="none" /><text fill="#e1ed5e" style="font-size:6.75px; font-family:Arial;" text-anchor="middle"><textPath startOffset="22.20632615414155" xlink:href="#id43">July</textPath></text><path d="M 92.06813273071674 119.44442032107085 l -6.84633120174868 16.783304236518415 a39.12599106309982,39.12599106309982 0 0,0 -0.6214111759519532,-0.25974992194585594 l 7.134213837198096 -16.662969271552583" fill="red" stroke="none" /><path d="M 91.40352486487194 119.15986991738527 l -7.823376785353323 17.436784166284756 a40.11142763864605,40.11142763864605 0 0,0 -0.6275184626073578,-0.28806294834604723 l 8.1223632437281 -17.299534147604636" fill="red" stroke="none" /><path d="M 91.07499286063937 119.00905698771935 l -8.484288908279128 18.070386817562447 a40.96301675637935,40.96301675637935 0 0,0 -0.6356822972094213,-0.30516613301011036 l 8.794083873488791 -17.921666408052776" fill="red" stroke="none" /><path d="M 90.7491055286396 118.85261126421891 l -9.37508692642952 19.105705933563133 a42.281923176675065,42.281923176675065 0 0,0 -0.6506303928666795,-0.32623958584874674 l 9.70257122697896 -18.941498506805086" fill="red" stroke="none" /><line stroke="#e1ed5e" stroke-width="0.3" x1="58.666819895761336" x2="56.23545636021788" y1="174.27360380694188" y2="178.64263932499728" /><path d="M 58.180547188652646 175.14741091055294 a86.0,86.0 0 0,1 -31.652253787137756,-30.449443065178592" fill="none" id="id44" stroke="none" /><text fill="#e1ed5e" style="font-size:6.75px; font-family:Arial;" text-anchor="middle"><textPath startOffset="22.20632615414155" xlink:href="#id44">August</textPath></text><path d="M 89.7882731507175 118.34994917583269 l -9.806396166225355 17.621590736238645 a41.16645397298323,41.16645397298323 0 0,0 -0.6162250270423164,-0.3499086528399264 l 10.108269960188878 -17.450178917604084" fill="red" stroke="none" /><path d="M 89.4739219176387 118.17145234162733 l -9.763682028164126 16.855307481605482 a40.47898552406056,40.47898552406056 0 0,0 -0.5999219449173653,-0.3544444595364239 l 10.052371844109874 -16.68474444977531" fill="red" stroke="none" /><path d="M 88.8546689885994 117.79835938074946 l -10.220676897962738 16.321747676976727 a40.2577694316721,40.2577694316721 0 0,0 -0.5841559502299797,-0.3728359658189688 l 10.500114650239642 -16.143397282333954" fill="red" stroke="none" /><path d="M 87.65650970185807 116.9893568818739 l -11.657288996029337 16.044881815842338 a40.83256461533139,40.83256461533139 0 0,0 -0.5650741415985913,-0.4180283409398471 l 11.931748108046492 -15.841843526162723" fill="red" stroke="none" /><path d="M 86.79598089348748 116.32954008644616 l -12.036258442807968 14.885359006767683 a40.142764431043545,40.142764431043545 0 0,0 -0.5335735559760963,-0.43909471106557385 l 12.290702127328753 -14.675969176844928" fill="red" stroke="none" /><path d="M 82.44556493220864 111.52570212397912 l -15.9531170285261 10.4743259529402 a40.08437704234241,40.08437704234241 0 0,0 -0.3737298133072117,-0.5800369697034495 l 16.131051705210357 -10.198167383315303" fill="red" stroke="none" /><path d="M 82.24976979558568 111.22182372390057 l -16.032241631861528 10.135698941357267 a39.967476499846384,39.967476499846384 0 0,0 -0.36262940649813025,-0.5846740669916857 l 16.204335678027615 -9.858228543000317" fill="red" stroke="none" /><path d="M 82.05923443525364 110.91462005526583 l -16.288503072538177 9.90943344441933 a40.0659960016114,40.0659960016114 0 0,0 -0.3533804139855527,-0.5922859002432233 l 16.45666436222196 -9.627585450289995" fill="red" stroke="none" /><line stroke="#e1ed5e" stroke-width="0.3" x1="26.63291911575756" x2="22.317208475507996" y1="142.92168965132927" y2="145.44649492493687" /><path d="M 25.769776987707644 143.4266507060508 a86.0,86.0 0 0,1 -11.730757126820373,-40.83630448921669" fill="none" id="id45" stroke="none" /><text fill="#e1ed5e" style="font-size:6.75px; font-family:Arial;" text-anchor="middle"><textPath startOffset="21.46611528233685" xlink:href="#id45">September</textPath></text><path d="M 81.87401531095188 110.60418214915194 l -16.373178838632466 9.578744203088942 a39.969273201418446,39.969273201418446 0 0,0 -0.342304476215023,-0.596836707211059 l 16.535635310999865 -9.295487650019576" fill="red" stroke="none" /><path d="M 80.73074385275274 108.34839909993369 l -17.571036924425176 7.612646161524422 a40.149248553927265,40.149248553927265 0 0,0 -0.2692848697469933,-0.6365098866173106 l 17.699472775364473 -7.309061749240953" fill="red" stroke="none" /><path d="M 80.58989483394504 108.01547362559985 l -17.555370741843454 7.249554289636714 a39.993343025438236,39.993343025438236 0 0,0 -0.2572855280878209,-0.6385615808813796 l 17.677558884188663 -6.946293340912529" fill="red" stroke="none" /><path d="M 80.32549172779595 107.34259656027581 l -17.907854887350968 6.683275224903563 a40.11432537125571,40.11432537125571 0 0,0 -0.2358640937853699,-0.6489966864998826 l 18.020243242141557 -6.374030741397564" fill="red" stroke="none" /><path d="M 79.86692584326677 105.97154293290107 l -28.81740980262152 8.547348433314518 a51.058281271102494,51.058281271102494 0 0,0 -0.24266630565696945,-0.8447532448203932 l 28.960268745164594 -8.050037712989528" fill="red" stroke="none" /><path d="M 79.76711848015287 105.62410040840567 l -30.577661785851124 8.499621765155043 a52.736996871799285,52.736996871799285 0 0,0 -0.23558852973816255,-0.8767125602399225 l 30.71943839193106 -7.972018271739581" fill="red" stroke="none" /><path d="M 79.67330655649465 105.27499134158121 l -30.663912160043772 7.9576086289095675 a52.67963137490359,52.67963137490359 0 0,0 -0.22022264770587915,-0.8796800073326851 l 30.79634612204471 -7.428600782179491" fill="red" stroke="none" /><path d="M 79.58551787078972 104.9243191809786 l -12.605458181466584 3.0406502166029132 a33.96700156953913,33.96700156953913 0 0,0 -0.13221159453952727,-0.5695640889773762 l 12.655930341936667 -2.823217470276963" fill="red" stroke="none" /><path d="M 79.29508885075956 103.50808413554451 l -38.58059160787624 6.536804740863492 a60.13044677784686,60.13044677784686 0 0,0 -0.16412246279895043,-1.0219907325162056 l 38.68739582503648 -5.871734778654074" fill="red" stroke="none" /><path d="M 79.23777060512086 103.15116336523772 l -31.033787539777514 4.710117228742192 a52.38918879761859,52.38918879761859 0 0,0 -0.12764488387146264,-0.8927480205000706 l 31.110266474665575 -4.17522373626172" fill="red" stroke="none" /><line stroke="#e1ed5e" stroke-width="0.3" x1="15.007084014347285" x2="10.007500721073583" y1="101.09737516637583" y2="101.16192664675087" /><path d="M 14.007167355692545 101.11028546245083 a86.0,86.0 0 0,1 10.666146001902534,-42.60595125391555" fill="none" id="id46" stroke="none" /><text fill="#e1ed5e" style="font-size:6.75px; font-family:Arial;" text-anchor="middle"><textPath startOffset="22.20632615414155" xlink:href="#id46">October</textPath></text><line stroke="#e1ed5e" stroke-width="0.3" x1="26.266209847984257" x2="21.92892807433627" y1="57.711370442889674" y2="55.22380399835377" /><path d="M 25.39875349325466 57.213857153982495 a86.0,86.0 0 0,1 29.58750427330802,-30.492523968695096" fill="none" id="id47" stroke="none" /><text fill="#e1ed5e" style="font-size:6.75px; font-family:Arial;" text-anchor="middle"><textPath startOffset="21.46611528233685" xlink:href="#id47">November</textPath></text><path d="M 84.07557802195018 86.31012108654704 l -23.8783941625696 -20.527735649298133 a52.48913524805823,52.48913524805823 0 0,0 0.5948972029905174,-0.6800703413979304 l 23.52150509600124 20.935721546899003" fill="red" stroke="none" /><path d="M 86.10567301691215 84.25364557470407 l -20.855846639580907 -23.635801390466096 a52.521698025697745,52.521698025697745 0 0,0 0.6830476874485508,-0.5923322236916988 l 20.44590515348558 23.991298607577473" fill="red" stroke="none" /><path d="M 87.80319425747017 82.90503203632743 l -18.287136727152085 -25.63113843880263 a52.486102130092576,52.486102130092576 0 0,0 0.7399762116834406,-0.5184006250486152 l 17.843229375884988 25.942123906615187" fill="red" stroke="none" /><path d="M 88.09926311788651 82.69761687909137 l -17.87416625872386 -25.98710278521298 a52.54069324878144,52.54069324878144 0 0,0 0.7495688119029019,-0.5061122077999245 l 17.42419275241442 26.290926905311572" fill="red" stroke="none" /><line stroke="#e1ed5e" stroke-width="0.3" x1="56.762969772571076" x2="54.21961505331055" y1="26.818313649435495" y2="22.513508569990535" /><path d="M 56.25429882871897 25.957352633546506 a86.0,86.0 0 0,1 42.265352541879196,-11.944610805530505" fill="none" id="id48" stroke="none" /><text fill="#e1ed5e" style="font-size:6.75px; font-family:Arial;" text-anchor="middle"><textPath startOffset="22.20632615414155" xlink:href="#id48">December</textPath></text><path d="M 92.23578459929587 80.48803036053334 l -4.617274040661381 -11.603504829388422 a33.48841638848601,33.48841638848601 0 0,0 0.5374361952581183,-0.208516894187894 l 4.416854680403586 11.681264427466868" fill="red" stroke="none" /></svg>