<?xml version="1.0" encoding="utf-8" ?>
<svg baseProfile="full" height="200mm" version="1.1" viewBox="0,0,200,200" width="200mm" xmlns="http://www.w3.org/2000/svg" xmlns:ev="http://www.w3.org/2001/xml-events" xmlns:xlink="http://www.w3.org/1999/xlink"><defs /><rect fill="#1a1a1a" height="200" width="200" x="0" y="0" /><text alignment-baseline="middle" fill="#e1ed5e" style="dominant-baseline: central; font-size:9.0px; font-family:Arial;" text-anchor="middle" x="100.0" y="100.0">2025</text><line stroke="#e1ed5e" stroke-width="0.3" x1="100.0" x2="100.0" y1="15.0" y2="10.0" /><path d="M 100.0 14.0 a86.0,86.0 0 0,1 42.46469731375804,11.215312516191453" fill="none" id="id73" stroke="none" /><text fill="#e1ed5e" style="font-size:6.75px; font-family:Arial;" text-anchor="middle"><textPath startOffset="22.20632615414155" xlink:href="#id73">January</textPath></text><path d="M 101.08401301168833 79.027996857942 l 2.11922235082944 -40.99981948656996 a62.054552747576935,62.054552747576935 0 0,0 1.06626846064809,0.06432022539915325 l -2.824652860317142 40.95726599179051" fill="#bdff1f" stroke="none" /><path d="M 101.80526077348638 79.07773832637324 l 3.556806599060759 -41.22198824733577 a62.37515182143276,62.37515182143276 0 0,0 1.06891665878404,0.10150651663240735 l -4.265848384935043 41.154656186188184" fill="#b7ff1f" stroke="none" /><path d="M 103.2404852339499 79.25152402106235 l 6.877268878205235 -44.03440775633626 a65.56821618232456,65.56821618232456 0 0,0 1.113631796086074,0.183758788319637 l -7.634229880430184 43.909502705076996" fill="#7bff26" stroke="none" /><path d="M 103.95276090670814 79.375362276772 l 9.595832114771643 -50.068943123833556 a71.9801830078371,71.9801830078371 0 0,0 1.2148664147943389,0.24369077393789376 l -10.456264939033106 49.89634839381846" fill="#34ff58" stroke="none" /><path d="M 105.01212808612495 79.60689891045804 l 10.076335791328654 -40.998101180531606 a63.21820511803786,63.21820511803786 0 0,0 1.054513110768358,0.26881887164870116 l -10.780557790782037 40.818579312714036" fill="#a6ff21" stroke="none" /><path d="M 106.0581310904928 79.89281104454417 l 11.815488751615355 -39.2160983942108 a61.957394298270145,61.957394298270145 0 0,0 1.0185047038329713,0.3164543693077593 l -12.488778828159043 39.006903890020524" fill="#bfff1e" stroke="none" /><path d="M 106.74666289553966 80.11325718540242 l 13.467642197832234 -39.69777960662259 a62.92005596447614,62.92005596447614 0 0,0 1.022654638381984,0.3567841229812751 l -14.148978840277492 39.46007463046911" fill="#acff20" stroke="none" /><path d="M 107.76421540070413 80.48803036053334 l 14.998766708325052 -37.692859553553966 a61.56740889057008,61.56740889057008 0 0,0 0.981314517301006,0.4003028309472219 l -15.645365095214444 37.429095836423166" fill="#c6ff1e" stroke="none" /><path d="M 108.09893153111575 80.62456947434976 l 15.719130690019881 -37.60556851702861 a61.75867825554281,61.75867825554281 0 0,0 0.9773053277009026,0.4184311378377503 l -16.3641197755111 37.32941785122807" fill="#c3ff1e" stroke="none" /><line stroke="#e1ed5e" stroke-width="0.3" x1="143.23703022742887" x2="145.7803849466894" y1="26.81831364943548" y2="22.513508569990506" /><path d="M 143.74570117128098 25.957352633546492 a86.0,86.0 0 0,1 28.547481713284135,27.462654790039103" fill="none" id="id74" stroke="none" /><text fill="#e1ed5e" style="font-size:6.75px; font-family:Arial;" text-anchor="middle"><textPath startOffset="19.985693538727396" xlink:href="#id74">February</textPath></text><path d="M 113.34407831869373 83.78471172551755 l 16.860325577398037 -20.488117134035374 a47.533630024439105,47.533630024439105 0 0,0 0.6273136810593859,0.5253571673115578 l -17.21049679541654 20.194858809329997" fill="#ff0000" stroke="none" /><path d="M 114.94478906791727 85.2469230424477 l 28.030886531152284 -27.671305650628213 a60.388218494022084,60.388218494022084 0 0,0 0.7238986974404846,0.7460412402043849 l -28.503049492295876 27.184700214873715" fill="#deff1b" stroke="none" /><path d="M 115.4437574822437 85.77008943001954 l 32.059962225607954 -29.540116508037404 a64.59426179230282,64.59426179230282 0 0,0 0.7463908763626147,0.8241834478870764 l -32.56369674258661 28.98388027288078" fill="#8dff24" stroke="none" /><path d="M 116.60985879189232 87.15038557335679 l 49.829576375676965 -38.54884327992963 a84.0,84.0 0 0,0 0.874896239103546,1.1512608964758657 l -50.48574855500462 37.68539760757273" fill="#4dd2ff" stroke="none" /><path d="M 117.65298651832404 88.62581576622439 l 33.65387674902928 -21.683888668180877 a61.03466557888197,61.03466557888197 0 0,0 0.5614387172474695,0.8880612208859122 l -34.02214306252271 21.10137979958076" fill="#d1ff1d" stroke="none" /><line stroke="#e1ed5e" stroke-width="0.3" x1="172.23445277983987" x2="176.4835382374775" y1="55.19839476539836" y2="52.563006222186495" /><path d="M 173.08426987136738 54.67131705675599 a86.0,86.0 0 0,1 12.851231095245387,41.99856678651699" fill="none" id="id75" stroke="none" /><text fill="#e1ed5e" style="font-size:6.75px; font-family:Arial;" text-anchor="middle"><textPath startOffset="22.20632615414155" xlink:href="#id75">March</textPath></text><line stroke="#e1ed5e" stroke-width="0.3" x1="184.98032266829074" x2="189.97916517819016" y1="98.17113171792111" y2="98.06355123074" /><path d="M 185.9800911702706 98.14961562048488 a86.0,86.0 0 0,1 -9.607161424134198,41.387399972396054" fill="none" id="id76" stroke="none" /><text fill="#e1ed5e" style="font-size:6.75px; font-family:Arial;" text-anchor="middle"><textPath startOffset="21.466115282336823" xlink:href="#id76">April</textPath></text><line stroke="#e1ed5e" stroke-width="0.3" x1="174.80103733775053" x2="179.2010983576182" y1="140.37084112569926" y2="142.7455964860345" /><path d="M 175.68104954172406 140.8457921977663 a86.0,86.0 0 0,1 -30.038265399797805,32.042727171017184" fill="none" id="id77" stroke="none" /><text fill="#e1ed5e" style="font-size:6.75px; font-family:Arial;" text-anchor="middle"><textPath startOffset="22.206326154141568" xlink:href="#id77">May</textPath></text><line stroke="#e1ed5e" stroke-width="0.3" x1="143.8653032363475" x2="146.44561519142675" y1="172.8068346515853" y2="177.08958963109032" /><path d="M 144.38136562736335 173.6633856474863 a86.0,86.0 0 0,1 -40.68145358897372,12.25698825130547" fill="none" id="id78" stroke="none" /><text fill="#e1ed5e" style="font-size:6.75px; font-family:Arial;" text-anchor="middle"><textPath startOffset="21.466115282336833" xlink:href="#id78">June</textPath></text><line stroke="#e1ed5e" stroke-width="0.3" x1="102.19456741930631" x2="102.32365962044197" y1="184.97166512339345" y2="189.96999836594603" /><path d="M 102.22038585953345 185.97133177190398 a86.0,86.0 0 0,1 -42.740103519485714,-10.115201625700543" fill="none" id="id79" stroke="none" /><text fill="#e1ed5e" style="font-size:6.75px; font-family:Arial;" text-anchor="middle"><textPath startOffset="22.20632615414155" xlink:href="#id79">July</textPath></text><line stroke="#e1ed5e" stroke-width="0.3" x1="58.666819895761336" x2="56.23545636021788" y1="174.27360380694188" y2="178.64263932499728" /><path d="M 58.180547188652646 175.14741091055294 a86.0,86.0 0 0,1 -31.652253787137756,-30.449443065178592" fill="none" id="id80" stroke="none" /><text fill="#e1ed5e" style="font-size:6.75px; font-family:Arial;" text-anchor="middle"><textPath startOffset="22.20632615414155" xlink:href="#id80">August</textPath></text><line stroke="#e1ed5e" stroke-width="0.3" x1="26.63291911575756" x2="22.317208475507996" y1="142.92168965132927" y2="145.44649492493687" /><path d="M 25.769776987707644 143.4266507060508 a86.0,86.0 0 0,1 -11.730757126820373,-40.83630448921669" fill="none" id="id81" stroke="none" /><text fill="#e1ed5e" style="font-size:6.75px; font-family:Arial;" text-anchor="middle"><textPath startOffset="21.46611528233685" xlink:href="#id81">September</textPath></text><line stroke="#e1ed5e" stroke-width="0.3" x1="15.007084014347285" x2="10.007500721073583" y1="101.09737516637583" y2="101.16192664675087" /><path d="M 14.007167355692545 101.11028546245083 a86.0,86.0 0 0,1 10.666146001902534,-42.60595125391555" fill="none" id="id82" stroke="none" /><text fill="#e1ed5e" style="font-size:6.75px; font-family:Arial;" text-anchor="middle"><textPath startOffset="22.20632615414155" xlink:href="#id82">October</textPath></text><line stroke="#e1ed5e" stroke-width="0.3" x1="26.266209847984243" x2="21.928928074336255" y1="57.711370442889674" y2="55.22380399835377" /><path d="M 25.398753493254645 57.213857153982495 a86.0,86.0 0 0,1 29.58750427330803,-30.492523968695096" fill="none" id="id83" stroke="none" /><text fill="#e1ed5e" style="font-size:6.75px; font-family:Arial;" text-anchor="middle"><textPath startOffset="21.46611528233685" xlink:href="#id83">November</textPath></text><line stroke="#e1ed5e" stroke-width="0.3" x1="56.762969772571076" x2="54.21961505331055" y1="26.818313649435495" y2="22.513508569990535" /><path d="M 56.25429882871897 25.957352633546506 a86.0,86.0 0 0,1 42.265352541879196,-11.944610805530505" fill="none" id="id84" stroke="none" /><text fill="#e1ed5e" style="font-size:6.75px; font-family:Arial;" text-anchor="middle"><textPath startOffset="22.20632615414155" xlink:href="#id84">December</textPath></text></svg>