<?xml version="1.0" encoding="utf-8" ?>
<svg baseProfile="full" height="200mm" version="1.1" viewBox="0,0,200,200" width="200mm" xmlns="http://www.w3.org/2000/svg" xmlns:ev="http://www.w3.org/2001/xml-events" xmlns:xlink="http://www.w3.org/1999/xlink"><defs /><rect fill="#1a1a1a" height="200" width="200" x="0" y="0" /><text alignment-baseline="middle" fill="#e1ed5e" style="dominant-baseline: central; font-size:9.0px; font-family:Arial;" text-anchor="middle" x="100.0" y="100.0">2026</text><line stroke="#e1ed5e" stroke-width="0.3" x1="100.0" x2="100.0" y1="15.0" y2="10.0" /><path d="M 100.0 14.0 a86.0,86.0 0 0,1 42.46469731375804,11.215312516191453" fill="none" id="id85" stroke="none" /><text fill="#e1ed5e" style="font-size:6.75px; font-family:Arial;" text-anchor="middle"><textPath startOffset="22.20632615414155" xlink:href="#id85">January</textPath></text><path d="M 102.16513564639614 79.11191278185805 l 3.1306723522927813 -30.203076308389786 a51.36489630918945,51.36489630918945 0 0,0 0.8786657630967272,0.09872833640961366 l -3.650104818899234 30.144712018509573" fill="red" stroke="none" /><path d="M 105.01212808612495 79.60689891045804 l 8.083422977246862 -32.88943520435242 a54.868225154123124,54.868225154123124 0 0,0 0.9152310269103834,0.23331276722834066 l -8.64836289284227 32.7454194409552" fill="red" stroke="none" /><path d="M 106.0581310904928 79.89281104454417 l 11.105198835274722 -36.85861663165385 a59.495234265688225,59.495234265688225 0 0,0 0.9780297677389556,0.3038786096414552 l -11.738013975724396 36.66199788712988" fill="red" stroke="none" /><path d="M 106.74666289553966 80.11325718540242 l 10.588317092199318 -31.210561741744275 a53.957724786158884,53.957724786158884 0 0,0 0.8769877375865323,0.30596380153831587 l -11.123986833849125 31.023677087033754" fill="red" stroke="none" /><path d="M 107.76421540070413 80.48803036053334 l 11.660996369343962 -29.304829320414754 a52.539687028004785,52.539687028004785 0 0,0 0.8374228921452836,0.34160582414266033 l -12.163703131077634 29.099762610088515" fill="red" stroke="none" /><path d="M 108.43124777332544 80.76684994638697 l 14.37816745310593 -32.799113435672425 a56.81219822177441,56.81219822177441 0 0,0 0.8922704220357615,0.40033572930892797 l -14.940619993608472 32.546757375846965" fill="red" stroke="none" /><path d="M 109.08828744355905 81.06846463323043 l 16.48236029320124 -34.33390380271482 a59.08523534348937,59.08523534348937 0 0,0 0.9130884078291933,0.44804851622236813 l -17.07091996804086 34.045100126357625" fill="red" stroke="none" /><path d="M 109.41281617654863 81.2277094730956 l 12.603718769527033 -25.136013072308113 a49.118906095233726,49.118906095233726 0 0,0 0.7525472808216286,0.38548394633180455 l -13.034526537937417 24.915336600663807" fill="red" stroke="none" /><line stroke="#e1ed5e" stroke-width="0.3" x1="143.23703022742887" x2="145.7803849466894" y1="26.81831364943548" y2="22.513508569990506" /><path d="M 143.74570117128098 25.957352633546492 a86.0,86.0 0 0,1 28.547481713284135,27.462654790039103" fill="none" id="id86" stroke="none" /><text fill="#e1ed5e" style="font-size:6.75px; font-family:Arial;" text-anchor="middle"><textPath startOffset="19.985693538727396" xlink:href="#id86">February</textPath></text><line stroke="#e1ed5e" stroke-width="0.3" x1="172.23445277983987" x2="176.4835382374775" y1="55.19839476539836" y2="52.563006222186495" /><path d="M 173.08426987136738 54.67131705675599 a86.0,86.0 0 0,1 12.851231095245387,41.99856678651699" fill="none" id="id87" stroke="none" /><text fill="#e1ed5e" style="font-size:6.75px; font-family:Arial;" text-anchor="middle"><textPath startOffset="22.20632615414155" xlink:href="#id87">March</textPath></text><path d="M 120.83666639777658 97.38593545837742 l 38.89769511724012 -4.879911383889754 a60.202604767392465,60.202604767392465 0 0,0 0.1201461863840892,1.0293391528993494 l -38.97593165662779 4.209628492665551" fill="red" stroke="none" /><line stroke="#e1ed5e" stroke-width="0.3" x1="184.98032266829074" x2="189.97916517819016" y1="98.17113171792111" y2="98.06355123074" /><path d="M 185.9800911702706 98.14961562048488 a86.0,86.0 0 0,1 -9.607161424134198,41.387399972396054" fill="none" id="id88" stroke="none" /><text fill="#e1ed5e" style="font-size:6.75px; font-family:Arial;" text-anchor="middle"><textPath startOffset="21.466115282336823" xlink:href="#id88">April</textPath></text><path d="M 120.95626037817324 101.35467743843564 l 33.539250571932435 2.1680808136531233 a54.609253239865374,54.609253239865374 0 0,0 -0.06871259044609097,0.937528704229631 l -33.49696142282201 -2.7450826543795244" fill="red" stroke="none" /><path d="M 120.8583938346157 102.4346265915055 l 8.603707895780575 1.0042391660018832 a29.662117862188737,29.662117862188737 0 0,0 -0.06355954934955242,0.5066321451143729 l -8.585146837184174 -1.152189065403651" fill="red" stroke="none" /><path d="M 120.81339534386255 102.79330883721812 l 30.651323544457345 4.113630261408144 a51.92613116693677,51.92613116693677 0 0,0 -0.12651665610441684,0.8848571981251198 l -30.575972837336327 -4.6406329315136725" fill="red" stroke="none" /><path d="M 120.76222939487914 103.15116336523771 l 36.375679120592046 5.520876648185156 a57.79225612066691,57.79225612066691 0 0,0 -0.1577405110637961,0.9822503129693346 l -36.27525685516696 -6.146206190847695" fill="red" stroke="none" /><path d="M 120.32669344350535 105.2749913415812 l 38.00795696042546 9.86346571490678 a60.26694218060143,60.26694218060143 0 0,0 -0.26922656090290986,1.0018921878587121 l -37.832542323180775 -10.516248835941042" fill="red" stroke="none" /><path d="M 119.41010516605496 108.01547362559984 l 36.32623449570006 15.001050845765121 a60.30174091708685,60.30174091708685 0 0,0 -0.4044495733603467,0.955999318951298 l -36.0626339411474 -15.624124690382581" fill="red" stroke="none" /><path d="M 118.64920377521936 109.65438752849418 l 26.970963629626308 13.96242638751861 a51.370746282195654,51.370746282195654 0 0,0 -0.4132837492853502,0.7817771036004533 l -26.726627372116063 -14.424618506205197" fill="red" stroke="none" /><line stroke="#e1ed5e" stroke-width="0.3" x1="174.80103733775053" x2="179.2010983576182" y1="140.37084112569926" y2="142.7455964860345" /><path d="M 175.68104954172406 140.8457921977663 a86.0,86.0 0 0,1 -30.038265399797805,32.042727171017184" fill="none" id="id89" stroke="none" /><text fill="#e1ed5e" style="font-size:6.75px; font-family:Arial;" text-anchor="middle"><textPath startOffset="22.206326154141568" xlink:href="#id89">May</textPath></text><path d="M 118.30583269289576 110.29060199501025 l 44.93634201333179 25.260911018285135 a72.54986381177788,72.54986381177788 0 0,0 -0.6213308659983319,1.0833427370026454 l -44.49485915118108 -26.030673601146095" fill="red" stroke="none" /><path d="M 117.75023020441432 111.22182372390056 l 39.004266034870305 24.658778668379416 a67.14529373982856,67.14529373982856 0 0,0 -0.6260343791132296,0.9716192587839612 l -38.574026792380025 -25.32651952708483" fill="red" stroke="none" /><path d="M 117.14729908036423 112.12312394758627 l 26.1158212550854 18.463860493980672 a52.98359367189295,52.98359367189295 0 0,0 -0.5329145550506631,0.740171706941214 l -25.794126907659134 -18.910665806373018" fill="red" stroke="none" /><path d="M 116.93607887273984 112.41649034213515 l 35.86547776036516 26.294360198358852 a65.47162998159935,65.47162998159935 0 0,0 -0.6741667778394608,0.9031565696762436 l -35.40754971583061 -26.90782964754441" fill="red" stroke="none" /><path d="M 116.71984013943494 112.70617746262583 l 25.754206758065774 19.571809224738224 a53.3471000565236,53.3471000565236 0 0,0 -0.5619054692232675,0.7263385645905829 l -25.41349447162444 -20.012225783442062" fill="red" stroke="none" /><path d="M 115.80600337817218 113.82643327865902 l 28.114918555356088 24.593759487448406 a58.353736775599366,58.353736775599366 0 0,0 -0.6678478201888389,0.750334105788293 l -27.687411885518912 -25.074067762977563" fill="red" stroke="none" /><path d="M 115.07121518719521 114.62390073753431 l 25.784320882441886 25.01904089923201 a56.92747710160251,56.92747710160251 0 0,0 -0.6884412619946803,0.697387363718347 l -25.34983899539167 -25.45916875693102" fill="red" stroke="none" /><path d="M 113.48314897796784 116.09983520530334 l 40.449446933903516 48.299505615910014 a84.0,84.0 0 0,0 -1.1165194858212355,0.9188195245712865 l -39.612057319537584 -48.98862025933848" fill="red" stroke="none" /><path d="M 112.63410532772338 116.77436683061366 l 22.731805279352315 30.181135156536424 a58.78406926993847,58.78406926993847 0 0,0 -0.8135016204666826,0.60180905074424 l -22.20891868846707 -30.56795415602043" fill="red" stroke="none" /><path d="M 111.45004920935366 117.60387380957326 l 17.809854422455228 27.38175391976938 a53.66422143985455,53.66422143985455 0 0,0 -0.778688802462236,0.4969960361169388 l -17.335883817946062 -27.684264384710126" fill="red" stroke="none" /><line stroke="#e1ed5e" stroke-width="0.3" x1="143.8653032363475" x2="146.44561519142675" y1="172.8068346515853" y2="177.08958963109032" /><path d="M 144.38136562736335 173.6633856474863 a86.0,86.0 0 0,1 -40.68145358897372,12.25698825130547" fill="none" id="id90" stroke="none" /><text fill="#e1ed5e" style="font-size:6.75px; font-family:Arial;" text-anchor="middle"><textPath startOffset="21.466115282336833" xlink:href="#id90">June</textPath></text><path d="M 109.89434966115114 118.52300852407294 l 18.09053468472306 33.86691795276382 a59.39577550718835,59.39577550718835 0 0,0 -0.9059527260212561,0.4739516482842243 l -17.504891056175307 -34.17329901999276" fill="red" stroke="none" /><path d="M 109.2508944713604 118.85261126421891 l 19.71485800283424 40.17736395192626 a65.75372833851344,65.75372833851344 0 0,0 -1.0203955760607446,0.489851885846196 l -19.020349758773264 -40.51077011427201" fill="red" stroke="none" /><path d="M 104.48393922423573 120.51570834832081 l 6.718557302543051 30.739926490405963 a52.46556995929228,52.46556995929228 0 0,0 -0.8839412682177109,0.185238487154989 l -6.188424572895961 -30.851020958287496" fill="red" stroke="none" /><line stroke="#e1ed5e" stroke-width="0.3" x1="102.19456741930631" x2="102.32365962044197" y1="184.97166512339345" y2="189.96999836594603" /><path d="M 102.22038585953345 185.97133177190398 a86.0,86.0 0 0,1 -42.740103519485714,-10.115201625700543" fill="none" id="id91" stroke="none" /><text fill="#e1ed5e" style="font-size:6.75px; font-family:Arial;" text-anchor="middle"><textPath startOffset="22.20632615414155" xlink:href="#id91">July</textPath></text><line stroke="#e1ed5e" stroke-width="0.3" x1="58.666819895761336" x2="56.23545636021788" y1="174.27360380694188" y2="178.64263932499728" /><path d="M 58.180547188652646 175.14741091055294 a86.0,86.0 0 0,1 -31.652253787137756,-30.449443065178592" fill="none" id="id92" stroke="none" /><text fill="#e1ed5e" style="font-size:6.75px; font-family:Arial;" text-anchor="middle"><textPath startOffset="22.20632615414155" xlink:href="#id92">August</textPath></text><line stroke="#e1ed5e" stroke-width="0.3" x1="26.63291911575756" x2="22.317208475507996" y1="142.92168965132927" y2="145.44649492493687" /><path d="M 25.769776987707644 143.4266507060508 a86.0,86.0 0 0,1 -11.730757126820373,-40.83630448921669" fill="none" id="id93" stroke="none" /><text fill="#e1ed5e" style="font-size:6.75px; font-family:Arial;" text-anchor="middle"><textPath startOffset="21.46611528233685" xlink:href="#id93">September</textPath></text><line stroke="#e1ed5e" stroke-width="0.3" x1="15.007084014347285" x2="10.007500721073583" y1="101.09737516637583" y2="101.16192664675087" /><path d="M 14.007167355692545 101.11028546245083 a86.0,86.0 0 0,1 10.666146001902534,-42.60595125391555" fill="none" id="id94" stroke="none" /><text fill="#e1ed5e" style="font-size:6.75px; font-family:Arial;" text-anchor="middle"><textPath startOffset="22.20632615414155" xlink:href="#id94">October</textPath></text><line stroke="#e1ed5e" stroke-width="0.3" x1="26.266209847984243" x2="21.928928074336255" y1="57.711370442889674" y2="55.22380399835377" /><path d="M 25.398753493254645 57.213857153982495 a86.0,86.0 0 0,1 29.58750427330803,-30.492523968695096" fill="none" id="id95" stroke="none" /><text fill="#e1ed5e" style="font-size:6.75px; font-family:Arial;" text-anchor="middle"><textPath startOffset="21.46611528233685" xlink:href="#id95">November</textPath></text><line stroke="#e1ed5e" stroke-width="0.3" x1="56.762969772571076" x2="54.21961505331055" y1="26.818313649435495" y2="22.513508569990535" /><path d="M 56.25429882871897 25.957352633546506 a86.0,86.0 0 0,1 42.265352541879196,-11.944610805530505" fill="none" id="id96" stroke="none" /><text fill="#e1ed5e" style="font-size:6.75px; font-family:Arial;" text-anchor="middle"><textPath startOffset="22.20632615414155" xlink:href="#id96">December</textPath></text></svg>