<?xml version="1.0" encoding="utf-8" ?>
<svg baseProfile="full" height="200mm" version="1.1" viewBox="0,0,200,200" width="200mm" xmlns="http://www.w3.org/2000/svg" xmlns:ev="http://www.w3.org/2001/xml-events" xmlns:xlink="http://www.w3.org/1999/xlink"><defs /><rect fill="#1a1a1a" height="200" width="200" x="0" y="0" /><text alignment-baseline="middle" fill="#e1ed5e" style="dominant-baseline: central; font-size:9.0px; font-family:Arial;" text-anchor="middle" x="100.0" y="100.0">2026</text><line stroke="#e1ed5e" stroke-width="0.3" x1="100.0" x2="100.0" y1="15.0" y2="10.0" /><path d="M 100.0 14.0 a86.0,86.0 0 0,1 42.46469731375804,11.215312516191453" fill="none" id="id85" stroke="none" /><text fill="#e1ed5e" style="font-size:6.75px; font-family:Arial;" text-anchor="middle"><textPath startOffset="22.20632615414155" xlink:href="#id85">January</textPath></text><path d="M 102.16513564639614 79.11191278185805 l 5.022860127160132 -48.45790636502811 a69.71753086044947,69.71753086044947 0 0,0 1.1926123063886536,0.13400388855076217 l -5.856239137058511 48.36426652300674" fill="red" stroke="none" /><path d="M 105.01212808612495 79.60689891045804 l 12.969068108851461 -52.767908648049094 a75.3382821839344,75.3382821839344 0 0,0 1.2566824090843598,0.3203563272766526 l -13.875459406620845 52.53684932460357" fill="red" stroke="none" /><path d="M 106.0581310904928 79.89281104454417 l 17.81721437346695 -59.13607525419557 a82.76186950295431,82.76186950295431 0 0,0 1.3605051397250736,0.42271556951225303 l -18.83250488590274 58.82061954980079" fill="red" stroke="none" /><path d="M 106.74666289553966 80.11325718540242 l 16.987927752064653 -50.074319020981974 a73.87747265825443,73.87747265825443 0 0,0 1.200748138694557,0.41891744828278604 l -17.847357894822483 49.77448071952698" fill="red" stroke="none" /><path d="M 107.76421540070413 80.48803036053334 l 18.708937606850277 -47.016756199014324 a71.60236861901396,71.60236861901396 0 0,0 1.141260369164868,0.46554875992365985 l -19.515481845603535 46.687746552907086" fill="red" stroke="none" /><path d="M 108.43124777332544 80.76684994638697 l 23.06837505654227 -52.62299613103497 a78.45719841374293,78.45719841374293 0 0,0 1.2322184272310563,0.5528604899935528 l -23.970775602240106 52.21811531052489" fill="red" stroke="none" /><path d="M 109.08828744355905 81.06846463323043 l 26.444348370590983 -55.08541840672309 a82.1040660004629,82.1040660004629 0 0,0 1.2688156434486717,0.6226023258344238 l -27.38863528105009 54.62206092075384" fill="red" stroke="none" /><path d="M 109.41281617654863 81.2277094730956 l 20.221444257823322 -40.32829488662661 a66.11405741379254,66.11405741379254 0 0,0 1.0129287902782205,0.5188614687481666 l -20.912633535690297 39.97424089256594" fill="red" stroke="none" /><line stroke="#e1ed5e" stroke-width="0.3" x1="143.23703022742887" x2="145.7803849466894" y1="26.81831364943548" y2="22.513508569990506" /><path d="M 143.74570117128098 25.957352633546492 a86.0,86.0 0 0,1 28.547481713284135,27.462654790039103" fill="none" id="id86" stroke="none" /><text fill="#e1ed5e" style="font-size:6.75px; font-family:Arial;" text-anchor="middle"><textPath startOffset="19.985693538727396" xlink:href="#id86">February</textPath></text><line stroke="#e1ed5e" stroke-width="0.3" x1="172.23445277983987" x2="176.4835382374775" y1="55.19839476539836" y2="52.563006222186495" /><path d="M 173.08426987136738 54.67131705675599 a86.0,86.0 0 0,1 12.851231095245387,41.99856678651699" fill="none" id="id87" stroke="none" /><text fill="#e1ed5e" style="font-size:6.75px; font-family:Arial;" text-anchor="middle"><textPath startOffset="22.20632615414155" xlink:href="#id87">March</textPath></text><path d="M 120.83666639777658 97.38593545837742 l 62.40757890225395 -7.829344484504643 a83.89677686096559,83.89677686096559 0 0,0 0.16743258582760656,1.434460146013919 l -62.53310184108515 6.753940600165871" fill="red" stroke="none" /><line stroke="#e1ed5e" stroke-width="0.3" x1="184.98032266829074" x2="189.97916517819016" y1="98.17113171792111" y2="98.06355123074" /><path d="M 185.9800911702706 98.14961562048488 a86.0,86.0 0 0,1 -9.607161424134198,41.387399972396054" fill="none" id="id88" stroke="none" /><text fill="#e1ed5e" style="font-size:6.75px; font-family:Arial;" text-anchor="middle"><textPath startOffset="21.466115282336823" xlink:href="#id88">April</textPath></text><path d="M 120.95626037817324 101.35467743843564 l 53.81047437596477 3.478475370756631 a74.92278686669785,74.92278686669785 0 0,0 -0.09427227921316772,1.2862703501891213 l -53.74262553808727 -4.404218857442523" fill="red" stroke="none" /><path d="M 120.8583938346157 102.4346265915055 l 13.803814795182868 1.611204334860933 a34.89752792076289,34.89752792076289 0 0,0 -0.07477790892620516,0.5960535087827414 l -13.774035377009815 -1.8485755979310694" fill="red" stroke="none" /><path d="M 120.81339534386255 102.79330883721812 l 49.17707557719575 6.599920749539343 a70.61797775227667,70.61797775227667 0 0,0 -0.17205884985637,1.2033791951542345 l -49.056182676322784 -7.445445416673986" fill="red" stroke="none" /><path d="M 120.76222939487914 103.15116336523771 l 58.36124886061088 8.857711080123059 a80.02960625100839,80.02960625100839 0 0,0 -0.2184360299745079,1.3602013671647342 l -58.20013107627508 -9.860991676980998" fill="red" stroke="none" /><path d="M 120.32669344350535 105.2749913415812 l 60.980080330516046 15.82497402474362 a84.0,84.0 0 0,0 -0.3752476946328911,1.396436267297807 l -60.69864455954138 -16.872301225216972" fill="red" stroke="none" /><line stroke="#e1ed5e" stroke-width="0.3" x1="174.80103733775053" x2="179.2010983576182" y1="140.37084112569926" y2="142.7455964860345" /><path d="M 175.68104954172406 140.8457921977663 a86.0,86.0 0 0,1 -30.038265399797805,32.042727171017184" fill="none" id="id89" stroke="none" /><text fill="#e1ed5e" style="font-size:6.75px; font-family:Arial;" text-anchor="middle"><textPath startOffset="22.206326154141568" xlink:href="#id89">May</textPath></text><line stroke="#e1ed5e" stroke-width="0.3" x1="143.8653032363475" x2="146.44561519142675" y1="172.8068346515853" y2="177.08958963109032" /><path d="M 144.38136562736335 173.6633856474863 a86.0,86.0 0 0,1 -40.68145358897372,12.25698825130547" fill="none" id="id90" stroke="none" /><text fill="#e1ed5e" style="font-size:6.75px; font-family:Arial;" text-anchor="middle"><textPath startOffset="21.466115282336833" xlink:href="#id90">June</textPath></text><line stroke="#e1ed5e" stroke-width="0.3" x1="102.19456741930631" x2="102.32365962044197" y1="184.97166512339345" y2="189.96999836594603" /><path d="M 102.22038585953345 185.97133177190398 a86.0,86.0 0 0,1 -42.740103519485714,-10.115201625700543" fill="none" id="id91" stroke="none" /><text fill="#e1ed5e" style="font-size:6.75px; font-family:Arial;" text-anchor="middle"><textPath startOffset="22.20632615414155" xlink:href="#id91">July</textPath></text><line stroke="#e1ed5e" stroke-width="0.3" x1="58.666819895761336" x2="56.23545636021788" y1="174.27360380694188" y2="178.64263932499728" /><path d="M 58.180547188652646 175.14741091055294 a86.0,86.0 0 0,1 -31.652253787137756,-30.449443065178592" fill="none" id="id92" stroke="none" /><text fill="#e1ed5e" style="font-size:6.75px; font-family:Arial;" text-anchor="middle"><textPath startOffset="22.20632615414155" xlink:href="#id92">August</textPath></text><line stroke="#e1ed5e" stroke-width="0.3" x1="26.63291911575756" x2="22.317208475507996" y1="142.92168965132927" y2="145.44649492493687" /><path d="M 25.769776987707644 143.4266507060508 a86.0,86.0 0 0,1 -11.730757126820373,-40.83630448921669" fill="none" id="id93" stroke="none" /><text fill="#e1ed5e" style="font-size:6.75px; font-family:Arial;" text-anchor="middle"><textPath startOffset="21.46611528233685" xlink:href="#id93">September</textPath></text><line stroke="#e1ed5e" stroke-width="0.3" x1="15.007084014347285" x2="10.007500721073583" y1="101.09737516637583" y2="101.16192664675087" /><path d="M 14.007167355692545 101.11028546245083 a86.0,86.0 0 0,1 10.666146001902534,-42.60595125391555" fill="none" id="id94" stroke="none" /><text fill="#e1ed5e" style="font-size:6.75px; font-family:Arial;" text-anchor="middle"><textPath startOffset="22.20632615414155" xlink:href="#id94">October</textPath></text><line stroke="#e1ed5e" stroke-width="0.3" x1="26.266209847984243" x2="21.928928074336255" y1="57.711370442889674" y2="55.22380399835377" /><path d="M 25.398753493254645 57.213857153982495 a86.0,86.0 0 0,1 29.58750427330803,-30.492523968695096" fill="none" id="id95" stroke="none" /><text fill="#e1ed5e" style="font-size:6.75px; font-family:Arial;" text-anchor="middle"><textPath startOffset="21.46611528233685" xlink:href="#id95">November</textPath></text><line stroke="#e1ed5e" stroke-width="0.3" x1="56.762969772571076" x2="54.21961505331055" y1="26.818313649435495" y2="22.513508569990535" /><path d="M 56.25429882871897 25.957352633546506 a86.0,86.0 0 0,1 42.265352541879196,-11.944610805530505" fill="none" id="id96" stroke="none" /><text fill="#e1ed5e" style="font-size:6.75px; font-family:Arial;" text-anchor="middle"><textPath startOffset="22.20632615414155" xlink:href="#id96">December</textPath></text></svg>