<?xml version="1.0" encoding="utf-8" ?>
<svg baseProfile="full" height="200mm" version="1.1" viewBox="0,0,200,200" width="200mm" xmlns="http://www.w3.org/2000/svg" xmlns:ev="http://www.w3.org/2001/xml-events" xmlns:xlink="http://www.w3.org/1999/xlink"><defs /><rect fill="#1a1a1a" height="200" width="200" x="0" y="0" /><text alignment-baseline="middle" fill="#e1ed5e" style="dominant-baseline: central; font-size:9.0px; font-family:Arial;" text-anchor="middle" x="100.0" y="100.0">2025</text><line stroke="#e1ed5e" stroke-width="0.3" x1="100.0" x2="100.0" y1="15.0" y2="10.0" /><path d="M 100.0 14.0 a86.0,86.0 0 0,1 42.46469731375804,11.215312516191453" fill="none" id="id73" stroke="none" /><text fill="#e1ed5e" style="font-size:6.75px; font-family:Arial;" text-anchor="middle"><textPath startOffset="22.20632615414155" xlink:href="#id73">January</textPath></text><path d="M 101.08401301168833 79.027996857942 l 1.1852343658919857 -22.930295649171182 a43.96090675606018,43.96090675606018 0 0,0 0.7553696916671248,0.04556596262651106 l -1.5797661063987223 22.906496417164366" fill="red" stroke="none" /><path d="M 101.80526077348638 79.07773832637324 l 1.9892435602088911 -23.05454974180296 a44.14021075399054,44.14021075399054 0 0,0 0.7564263207286752,0.07183179369061436 l -2.3857950080278107 23.016892403597165" fill="red" stroke="none" /><path d="M 103.2404852339499 79.25152402106235 l 3.8463049498973017 -24.627474004359826 a45.92602129508485,45.92602129508485 0 0,0 0.7800224035333733,0.12871038007286295 l -4.26965655956955 24.557617361347337" fill="red" stroke="none" /><path d="M 103.95276090670814 79.375362276772 l 5.36673746731009 -28.002456670501054 a49.512093059372525,49.512093059372525 0 0,0 0.8356547103729155,0.16762447346945228 l -5.8479585871501305 27.905928240954395" fill="red" stroke="none" /><path d="M 105.01212808612495 79.60689891045804 l 5.63547258619458 -22.92933463846508 a44.61171188695273,44.61171188695273 0 0,0 0.7441469587878167,0.18969962891821818 l -6.0293284336674215 22.82893201337799" fill="red" stroke="none" /><path d="M 106.0581310904928 79.89281104454417 l 6.608142516401671 -21.932699744709804 a43.90656817615133,43.90656817615133 0 0,0 0.7217709318324534,0.22425774192120984 l -6.984698820944842 21.815701867906075" fill="red" stroke="none" /><path d="M 106.74666289553966 80.11325718540242 l 7.532155535336049 -22.202093433452056 a44.44496363478153,44.44496363478153 0 0,0 0.7223745674906815,0.25202230240104995 l -7.913212106890004 22.069150277878798" fill="red" stroke="none" /><path d="M 107.76421540070413 80.48803036053334 l 8.388479737270481 -21.080785824161854 a43.68845793055978,43.68845793055978 0 0,0 0.6963443610555949,0.2840563490402195 l -8.750107967914465 20.933268588938056" fill="red" stroke="none" /><path d="M 108.09893153111575 80.62456947434976 l 8.791363439738667 -21.03196587080317 a43.7954306719615,43.7954306719615 0 0,0 0.6930444260410007,0.2967254547180738 l -9.152091623569984 20.877520888122305" fill="red" stroke="none" /><line stroke="#e1ed5e" stroke-width="0.3" x1="143.23703022742887" x2="145.7803849466894" y1="26.81831364943548" y2="22.513508569990506" /><path d="M 143.74570117128098 25.957352633546492 a86.0,86.0 0 0,1 28.547481713284135,27.462654790039103" fill="none" id="id74" stroke="none" /><text fill="#e1ed5e" style="font-size:6.75px; font-family:Arial;" text-anchor="middle"><textPath startOffset="19.985693538727396" xlink:href="#id74">February</textPath></text><path d="M 113.34407831869373 83.78471172551755 l 9.42960859517101 -11.45855247807054 a35.83967463089469,35.83967463089469 0 0,0 0.47298550960904717,0.396111761962512 l -9.625451641739174 11.29453955871421" fill="red" stroke="none" /><path d="M 114.94478906791727 85.2469230424477 l 15.677057204562473 -15.475951541087367 a43.02896272404147,43.02896272404147 0 0,0 0.5158060768299073,0.5315835028074211 l -15.94112754509549 15.203803842729833" fill="red" stroke="none" /><path d="M 115.4437574822437 85.77008943001954 l 17.930430463852577 -16.52113627627408 a45.38131006484828,45.38131006484828 0 0,0 0.5243839754481401,0.5790378829491646 l -18.21215807991675 16.210045606055367" fill="red" stroke="none" /><path d="M 116.60985879189232 87.15038557335679 l 27.86858412246193 -21.559518661585756 a56.23451185854576,56.23451185854576 0 0,0 0.5857067015817314,0.7707213635137153 l -28.235566764267773 21.076612522191006" fill="red" stroke="none" /><path d="M 117.65298651832404 88.62581576622439 l 18.821871736503326 -12.127321149498494 a43.39050633479413,43.39050633479413 0 0,0 0.39913563851415573,0.6313367274984755 l -19.027834971263438 11.801536774285811" fill="red" stroke="none" /><line stroke="#e1ed5e" stroke-width="0.3" x1="172.23445277983987" x2="176.4835382374775" y1="55.19839476539836" y2="52.563006222186495" /><path d="M 173.08426987136738 54.67131705675599 a86.0,86.0 0 0,1 12.851231095245387,41.99856678651699" fill="none" id="id75" stroke="none" /><text fill="#e1ed5e" style="font-size:6.75px; font-family:Arial;" text-anchor="middle"><textPath startOffset="22.20632615414155" xlink:href="#id75">March</textPath></text><path d="M 118.56541770881063 90.18545643968196 l 12.798820291365045 -6.766051873461029 a35.47719789203087,35.47719789203087 0 0,0 0.2807607441698731,0.5423403933861763 l -12.913390468695034 6.544738757814507" fill="red" stroke="none" /><path d="M 120.53481517161879 95.60439243477599 l 12.405641706830366 -2.6555063720938 a33.68667254446491,33.68667254446491 0 0,0 0.11649285135523736,0.5680605148022213 l -12.4495138541006 2.441570201128167" fill="red" stroke="none" /><path d="M 120.6074358757038 95.95851677861258 l 28.68000820019032 -5.62465765413255 a50.22635187787172,50.22635187787172 0 0,0 0.15908425884787225,0.8498344719660571 l -28.772578182948052 5.130145104703931" fill="red" stroke="none" /><path d="M 120.67395015179393 96.31383870115 l 25.58042658254546 -4.560985094010712 a46.983856703206826,46.983856703206826 0 0,0 0.1351079830908215,0.7974149642264332 l -25.655146427156502 4.119984341468441" fill="red" stroke="none" /><path d="M 120.83666639777658 97.38593545837742 l 23.369957673917114 -2.931878666595438 a44.55314913544078,44.55314913544078 0 0,0 0.08891460727832291,0.7617660559250804 l -23.416962634199027 2.529168872345505" fill="red" stroke="none" /><path d="M 120.94382443527127 98.46500227214037 l 51.624940030416894 -3.7836530712187177 a72.76340854027566,72.76340854027566 0 0,0 0.08079998493635683,1.2499400040456061 l -51.68242060635767 2.8944540029200767" fill="red" stroke="none" /><line stroke="#e1ed5e" stroke-width="0.3" x1="184.98032266829074" x2="189.97916517819016" y1="98.17113171792111" y2="98.06355123074" /><path d="M 185.9800911702706 98.14961562048488 a86.0,86.0 0 0,1 -9.607161424134198,41.387399972396054" fill="none" id="id76" stroke="none" /><text fill="#e1ed5e" style="font-size:6.75px; font-family:Arial;" text-anchor="middle"><textPath startOffset="21.466115282336823" xlink:href="#id76">April</textPath></text><path d="M 120.9904718944345 100.63252640178507 l 48.41143408119623 1.4588290515161446 a69.43340925435206,69.43340925435206 0 0,0 -0.04628188754430756,1.1943298685742967 l -48.37915006080072 -2.2919361671044474" fill="red" stroke="none" /><path d="M 120.92983693683757 101.71520430193887 l 23.286348633372544 1.9083209044075742 a44.364411427407504,44.364411427407504 0 0,0 -0.06892413494043344,0.7605720857121514 l -23.250049902155038 -2.308874378668296" fill="red" stroke="none" /><path d="M 120.64145759157962 103.86396538481128 l 22.466758965464862 4.205651590557631 a43.857006884398835,43.857006884398835 0 0,0 -0.14529213849687558,0.7408414840060534 l -22.391036893992325 -4.591756801631629" fill="red" stroke="none" /><path d="M 120.5718875245553 104.21870165774334 l 20.0774439761892 4.117305526024129 a41.49526680508563,41.49526680508563 0 0,0 -0.14951329767583388,0.6984763512017498 l -20.003596639788924 -4.462295696642047" fill="red" stroke="none" /><path d="M 120.41448212921028 104.9243191809786 l 18.791331291319334 4.5327876812296495 a40.33029476917578,40.33029476917578 0 0,0 -0.16859731294660588,0.6734624573546082 l -18.71052266407767 -4.855577977981653" fill="red" stroke="none" /><path d="M 120.23288151984713 105.62410040840565 l 23.906668854306513 6.6452969605557195 a45.81307694348769,45.81307694348769 0 0,0 -0.217737257422083,0.7579719575308662 l -23.788738959998334 -7.055826393591168" fill="red" stroke="none" /><path d="M 119.9155931802556 106.66101706037122 l 18.282200444018176 6.114708608301091 a40.277668802002225,40.277668802002225 0 0,0 -0.22557253139748756,0.6556193644025161 l -18.17423708167746 -6.4285006757929075" fill="red" stroke="none" /><path d="M 119.79798401119884 107.00284435728193 l 18.306169513249337 6.475167158776882 a40.41761138713828,40.41761138713828 0 0,0 -0.2376473540204982,0.6539034527871577 l -18.19199789822361 -6.789318408570171" fill="red" stroke="none" /><path d="M 119.54520255179757 107.68017299344265 l 17.58768578619499 6.910978232858832 a39.896780451944025,39.896780451944025 0 0,0 -0.2566643208859241,0.6370197955511101 l -17.46611885105167 -7.212697396252755" fill="red" stroke="none" /><path d="M 119.41010516605496 108.01547362559984 l 29.628850308467346 12.235341651816224 a53.055769464142244,53.055769464142244 0 0,0 -0.35585014624340444,0.841124629285535 l -29.413849181031633 -12.743540806767923" fill="red" stroke="none" /><path d="M 119.12269723197855 108.67885076344098 l 17.68601818656017 8.026812879930612 a40.42228010056381,40.42228010056381 0 0,0 -0.29301414650076124,0.6311264038004346 l -17.545229423219574 -8.330059351009877" fill="red" stroke="none" /><path d="M 118.97047184881838 109.00673069616215 l 26.600910446066706 12.629482206335991 a50.44676989688034,50.44676989688034 0 0,0 -0.37918373059663935,0.781230795540189 l -26.379573458855354 -13.085501957841455" fill="red" stroke="none" /><path d="M 118.64920377521936 109.65438752849418 l 17.15234696702829 8.879489260711624 a40.314459247113746,40.314459247113746 0 0,0 -0.32433460819379206,0.6135188500142619 l -16.996959850609606 -9.17342312581202" fill="red" stroke="none" /><line stroke="#e1ed5e" stroke-width="0.3" x1="174.80103733775053" x2="179.2010983576182" y1="140.37084112569926" y2="142.7455964860345" /><path d="M 175.68104954172406 140.8457921977663 a86.0,86.0 0 0,1 -30.038265399797805,32.042727171017184" fill="none" id="id77" stroke="none" /><text fill="#e1ed5e" style="font-size:6.75px; font-family:Arial;" text-anchor="middle"><textPath startOffset="22.206326154141568" xlink:href="#id77">May</textPath></text><path d="M 117.35343817320211 111.8261652097733 l 16.621728054974263 11.327513319729508 a41.114532098514445,41.114532098514445 0 0,0 -0.4035863023448095,0.5813961694164819 l -16.42428084546732 -11.61195075133301" fill="red" stroke="none" /><path d="M 116.498646956653 112.99209946851258 l 18.90223380111695 14.884838882024994 a45.059361404990184,45.059361404990184 0 0,0 -0.48510069085310054,0.6052376994802932 l -18.643215198208996 -15.208004415083538" fill="red" stroke="none" /><path d="M 116.27256486870786 113.27417163493432 l 15.621773646772501 12.743295620724002 a41.16014372836065,41.16014372836065 0 0,0 -0.4525734205635789,0.5451538396963217 l -15.40010422631538 -13.010310717534095" fill="red" stroke="none" /><path d="M 114.29624159901734 115.38237550388516 l 13.594617312165433 14.62744644310715 a40.96937178055925,40.96937178055925 0 0,0 -0.5207020850614673,0.47564900897637474 l -13.340815677637101 -14.859288218670107" fill="red" stroke="none" /><path d="M 114.0293411484842 115.62618273729858 l 13.17257313611966 14.671896047497254 a40.71753576527723,40.71753576527723 0 0,0 -0.5255618780941862,0.4637472513863558 l -12.918068905118886 -14.8964664406559" fill="red" stroke="none" /><path d="M 112.63410532772338 116.77436683061366 l 11.996989742936426 15.928465181427159 a40.941007144275815,40.941007144275815 0 0,0 -0.5665748572536898,0.4191385345044447 l -11.721029915264172 -16.13261366467137" fill="red" stroke="none" /><path d="M 111.7513745106137 117.40417183066458 l 26.482956503683717 39.22212888014379 a68.32570526750355,68.32570526750355 0 0,0 -0.9803935106445204,0.6497513596310375 l -25.80388829429923 -39.67217826086615" fill="red" stroke="none" /><line stroke="#e1ed5e" stroke-width="0.3" x1="143.8653032363475" x2="146.44561519142675" y1="172.8068346515853" y2="177.08958963109032" /><path d="M 144.38136562736335 173.6633856474863 a86.0,86.0 0 0,1 -40.68145358897372,12.25698825130547" fill="none" id="id78" stroke="none" /><text fill="#e1ed5e" style="font-size:6.75px; font-family:Arial;" text-anchor="middle"><textPath startOffset="21.466115282336833" xlink:href="#id78">June</textPath></text><path d="M 110.5260780823613 118.17145234162733 l 15.534586571317234 26.817775558838566 a51.99220008108474,51.99220008108474 0 0,0 -0.7782767717127962,0.4419258627545661 l -15.070661032683239 -27.08120458738776" fill="red" stroke="none" /><path d="M 109.89434966115114 118.52300852407294 l 10.749016128148728 20.123012040786506 a43.81396417365558,43.81396417365558 0 0,0 -0.6682862533904796,0.34961578261499177 l -10.401038972231753 -20.305057242346216" fill="red" stroke="none" /><path d="M 109.2508944713604 118.85261126421891 l 8.68091740419431 17.69104184949164 a40.7061231270615,40.7061231270615 0 0,0 -0.6316957077110522,0.30325232778624417 l -8.375109028483024 -17.837848453777443" fill="red" stroke="none" /><path d="M 107.93186726928326 119.44442032107085 l 7.771677039608403 19.05172512694056 a41.575888664173775,41.575888664173775 0 0,0 -0.664974511767898,0.26460708174232256 l -7.442581451798639 -19.182679053088954" fill="red" stroke="none" /><path d="M 105.88484417918355 120.15858648285463 l 5.827007854417683 19.960467633970346 a41.793611728178035,41.793611728178035 0 0,0 -0.6923188044081401,0.19565620951136217 l -5.482557881904937 -20.057812636820227" fill="red" stroke="none" /><path d="M 105.18746579009965 120.34920634021253 l 4.892519686684182 19.192202253728166 a40.80599344220332,40.80599344220332 0 0,0 -0.6821338076512162,0.16765189368758324 l -4.561432594289754 -19.27357540572978" fill="red" stroke="none" /><path d="M 104.13013068566511 120.58985236759428 l 3.950123778294854 19.692467773744827 a41.08473960209166,41.08473960209166 0 0,0 -0.6945911002681413,0.1331200375071409 l -3.610565063455008 -19.757545009600438" fill="red" stroke="none" /><path d="M 102.70371172650421 120.8252237178851 l 2.5987554770178254 20.01680270364843 a41.184794289417894,41.184794289417894 0 0,0 -0.7038139646543903,0.08522206954294481 l -2.2538140893120544 -20.058570301916728" fill="red" stroke="none" /><path d="M 101.62511606390274 120.93702456842531 l 1.9327811224808524 24.900797392642293 a45.975695258727825,45.975695258727825 0 0,0 -0.7895498956846106,0.054451983480920965 l -1.5038684660173114 -24.9303777206395" fill="red" stroke="none" /><path d="M 101.26447882468166 120.96189622390904 l 1.2222245746712712 20.261426444227332 a41.29825693171128,41.29825693171128 0 0,0 -0.7099601669558807,0.0366968311776175 l -0.8732763393019108 -20.27946308216715" fill="red" stroke="none" /><path d="M 100.90346689309514 120.98055641714683 l 0.8594076740117921 19.95740112641243 a40.975896507307965,40.975896507307965 0 0,0 -0.7049408323798126,0.024279587614854888 l -0.5157464899573272 -19.96923751245338" fill="red" stroke="none" /><line stroke="#e1ed5e" stroke-width="0.3" x1="102.19456741930631" x2="102.32365962044197" y1="184.97166512339345" y2="189.96999836594603" /><path d="M 102.22038585953345 185.97133177190398 a86.0,86.0 0 0,1 -42.740103519485714,-10.115201625700543" fill="none" id="id79" stroke="none" /><text fill="#e1ed5e" style="font-size:6.75px; font-family:Arial;" text-anchor="middle"><textPath startOffset="22.20632615414155" xlink:href="#id79">July</textPath></text><path d="M 98.73552117531835 120.96189622390904 l -1.4533624803275582 24.093114802471597 a45.13691039433796,45.13691039433796 0 0,0 -0.775145273884898,-0.05345855642510862 l 1.8678705149913863 -24.0645279015302" fill="red" stroke="none" /><path d="M 98.37488393609728 120.93702456842531 l -1.8220218409012081 23.47384097326829 a44.54444676833606,44.54444676833606 0 0,0 -0.7639493150797929,-0.06591676143615802 l 2.225815473722543 -23.43899995955347" fill="red" stroke="none" /><path d="M 96.93821686468263 120.77559828337769 l -3.23493047329931 21.95048212680062 a43.18757401714018,43.18757401714018 0 0,0 -0.7345263131750055,-0.11471790382134449 l 3.6122926500828325 -21.89154591563217" fill="red" stroke="none" /><path d="M 96.58105272829116 120.7198165907248 l -3.773836261400175 22.870547266602323 a44.179813899204404,44.179813899204404 0 0,0 -0.7492707695416702,-0.130270327491245 l 4.166956002413896 -22.80219836059007" fill="red" stroke="none" /><path d="M 95.16358092515715 120.4354850818985 l -2.91429496931867 12.313869093674155 a33.654030473502885,33.654030473502885 0 0,0 -0.5625779453750039,-0.1382679715197676 l 3.125826199436885 -12.261879863840358" fill="red" stroke="none" /><path d="M 94.81253420990036 120.34920634021253 l -5.596887291356453 21.95527044671615 a43.65742809192153,43.65742809192153 0 0,0 -0.7266042076379402,-0.19190277524005653 l 5.973981941805882 -21.855676322172513" fill="red" stroke="none" /><path d="M 93.08242187328487 119.8279376855182 l -7.656746468093618 21.946624824787293 a44.243926253467464,44.243926253467464 0 0,0 -0.7169210792855182,-0.25706239220153965 l 8.033387108008863 -21.811574891545796" fill="red" stroke="none" /><path d="M 92.7421414339146 119.70592522655815 l -8.717012547239932 23.667697006050762 a46.22193865108237,46.22193865108237 0 0,0 -0.744238757720106,-0.28140741619070125 l 9.123121525720322 -23.51414133975343" fill="red" stroke="none" /><path d="M 92.06813273071674 119.44442032107085 l -15.885574827141449 38.94238058886131 a63.057823214194435,63.057823214194435 0 0,0 -1.001503987804634,-0.41862874812671685 l 16.553550274443545 -38.663166797714624" fill="red" stroke="none" /><line stroke="#e1ed5e" stroke-width="0.3" x1="58.666819895761336" x2="56.23545636021788" y1="174.27360380694188" y2="178.64263932499728" /><path d="M 58.180547188652646 175.14741091055294 a86.0,86.0 0 0,1 -31.652253787137756,-30.449443065178592" fill="none" id="id80" stroke="none" /><text fill="#e1ed5e" style="font-size:6.75px; font-family:Arial;" text-anchor="middle"><textPath startOffset="22.20632615414155" xlink:href="#id80">August</textPath></text><path d="M 89.7882731507175 118.34994917583269 l -13.185519811806987 23.69370254166108 a48.11548400527402,48.11548400527402 0 0,0 -0.7202457965352771,-0.4089743605333514 l 13.591414375263472 -23.463225015333094" fill="red" stroke="none" /><path d="M 88.8546689885994 117.79835938074946 l -12.08434788662124 19.29790746888337 a43.76929284194992,43.76929284194992 0 0,0 -0.6351095257371177,-0.40535694849260995 l 12.414739214405282 -19.087036091566958" fill="red" stroke="none" /><path d="M 87.95078237400918 117.19931262002967 l -11.42691239272965 16.31102073385344 a40.9154142364982,40.9154142364982 0 0,0 -0.5733470609306676,-0.40906790466540566 l 11.705986781509203 -16.111908567343814" fill="red" stroke="none" /><path d="M 87.07902340077011 116.55440617244103 l -13.690924576297277 17.540866556927966 a43.25136884153006,43.25136884153006 0 0,0 -0.5829512323958573,-0.4631317154912053 l 13.990833301410493 -17.30260092743163" fill="red" stroke="none" /><path d="M 86.51685102203217 116.09983520530335 l -12.902022984704567 15.40592959465222 a41.09489646087349,41.09489646087349 0 0,0 -0.5384107025179825,-0.4588452812565707 l 13.165299163799606 -15.181559923172697" fill="red" stroke="none" /><path d="M 86.24171649860922 115.8653595955263 l -13.30750695990166 15.345546791317862 a41.311955785013836,41.311955785013836 0 0,0 -0.5332343586625206,-0.47051732342389174 l 13.569683671470768 -15.114206326121682" fill="red" stroke="none" /><path d="M 85.97065885151581 115.62618273729859 l -13.171764304065857 14.67099515291194 a40.71632505459953,40.71632505459953 0 0,0 -0.5174859762441243,-0.472711169824933 l 13.422349829776836 -14.442091216500431" fill="red" stroke="none" /><path d="M 85.18274418774928 114.88116024355367 l -15.755230668876875 15.823180434251697 a43.329360324120444,43.329360324120444 0 0,0 -0.5239951078408193,-0.5308042777674769 l 16.025266401773226 -15.549635662503555" fill="red" stroke="none" /><path d="M 84.43433777217949 114.09645910891817 l -14.64646551350127 13.26402302577522 a40.759890153198654,40.759890153198654 0 0,0 -0.4664894708393873,-0.524105865708983 l 14.872613833988995 -13.009942990325372" fill="red" stroke="none" /><path d="M 83.72743513129214 113.27417163493432 l -33.85590329569724 27.617592852067073 a64.69157382047652,64.69157382047652 0 0,0 -0.6964574324662108,-0.8689377322273217 l 34.326278640218305 -27.03072728626149" fill="red" stroke="none" /><path d="M 82.05923443525364 110.91462005526583 l -19.057916001304363 11.594260648951792 a43.307645377955176,43.307645377955176 0 0,0 -0.38197162630839876,-0.6402064166597735 l 19.25466850331099 -11.264492138405908" fill="red" stroke="none" /><line stroke="#e1ed5e" stroke-width="0.3" x1="26.63291911575756" x2="22.317208475507996" y1="142.92168965132927" y2="145.44649492493687" /><path d="M 25.769776987707644 143.4266507060508 a86.0,86.0 0 0,1 -11.730757126820373,-40.83630448921669" fill="none" id="id81" stroke="none" /><text fill="#e1ed5e" style="font-size:6.75px; font-family:Arial;" text-anchor="middle"><textPath startOffset="21.46611528233685" xlink:href="#id81">September</textPath></text><path d="M 81.87401531095188 110.60418214915194 l -18.570238237014284 10.864082266241107 a42.51469339003282,42.51469339003282 0 0,0 -0.364103940018625,-0.6348459098349195 l 18.754494173185286 -10.542816510547881" fill="red" stroke="none" /><path d="M 81.51974371655577 109.97397251340807 l -18.579152928026286 10.027347986107184 a42.112380992144764,42.112380992144764 0 0,0 -0.33879910196670676,-0.6408802211458043 l 18.74900453821788 -9.706052749875255" fill="red" stroke="none" /><path d="M 80.87730276802145 108.67885076344099 l -18.232564098142483 8.2748631598911 a41.02248121257196,41.02248121257196 0 0,0 -0.2862957308640951,-0.6455212932329303 l 18.37230091373786 -7.959793530165474" fill="red" stroke="none" /><path d="M 80.0844068197444 106.66101706037122 l -15.145150896082137 5.065483492639053 a36.96980646968824,36.96980646968824 0 0,0 -0.1966578029092274,-0.6052504824707875 l 15.230100950007614 -4.804034110190462" fill="red" stroke="none" /><path d="M 79.58551787078972 104.9243191809786 l -23.253880379086908 5.609230175820743 a44.92083643709436,44.92083643709436 0 0,0 -0.17484779753781857,-0.7532397356009107 l 23.346988742555283 -5.208121782871259" fill="red" stroke="none" /><path d="M 79.50377843672027 104.57218783832718 l -34.31936305211427 7.655780548700461 a56.1629017021162,56.1629017021162 0 0,0 -0.2023628545388269,-0.9453718863422138 l 34.44605994537754 -7.063894842942084" fill="red" stroke="none" /><path d="M 79.35854240842038 103.8639653848113 l -31.25419312695886 5.850610105268945 a52.79707890075938,52.79707890075938 0 0,0 -0.1595315471596066,-0.8947376379447302 l 31.350271116457655 -5.311753716591001" fill="red" stroke="none" /><path d="M 79.29508885075956 103.50808413554451 l -23.455886041509984 3.9741885929503122 a44.79018211289353,44.79018211289353 0 0,0 -0.1222521266928263,-0.7612641096150096 l 23.5208199225641 -3.569845253642089" fill="red" stroke="none" /><path d="M 79.18660465613746 102.79330883721812 l -25.239481624340794 3.387321765781243 a46.46576881640081,46.46576881640081 0 0,0 -0.09956616516299546,-0.7936403003727972 l 25.294049298750636 -2.9523637111210372" fill="red" stroke="none" /><path d="M 79.1416061653843 102.43462659150553 l -41.960666576257644 4.897719136663164 a63.24553458373443,63.24553458373443 0 0,0 -0.11690695680362853,-1.0824132263693986 l 42.03875583456232 -4.174709588408984" fill="red" stroke="none" /><path d="M 79.07016306316243 101.71520430193888 l -36.407764843753526 2.983623573964675 a57.529814543043784,57.529814543043784 0 0,0 -0.07238741331570403,-0.9876687426250772 l 36.45372881573357 -2.3564816948428375" fill="red" stroke="none" /><line stroke="#e1ed5e" stroke-width="0.3" x1="15.007084014347285" x2="10.007500721073583" y1="101.09737516637583" y2="101.16192664675087" /><path d="M 14.007167355692545 101.11028546245083 a86.0,86.0 0 0,1 10.666146001902534,-42.60595125391555" fill="none" id="id82" stroke="none" /><text fill="#e1ed5e" style="font-size:6.75px; font-family:Arial;" text-anchor="middle"><textPath startOffset="22.20632615414155" xlink:href="#id82">October</textPath></text><path d="M 79.12142395522702 97.74499172005258 l -21.760777517030064 -2.350291196763945 a42.88733210912804,42.88733210912804 0 0,0 0.08559014044340013,-0.7332840543011255 l 21.717097023583076 2.7245189893899324" fill="red" stroke="none" /><path d="M 79.26566170972629 96.67025291283419 l -62.20301487082115 -9.989241261497433 a84.0,84.0 0 0,0 0.2415525539191079,-1.4256568467366881 l 62.021850455381816 11.05848389654995" fill="red" stroke="none" /><path d="M 79.54389044137918 95.25157060432595 l -30.555103917536936 -7.092685596649184 a52.36750809969443,52.36750809969443 0 0,0 0.21138319137762848,-0.8763197965442276 l 30.428487925898494 7.6175906248528085" fill="red" stroke="none" /><path d="M 79.71946130924805 94.55025226153421 l -33.3091307225562 -8.95076618000729 a55.49078724386411,55.49078724386411 0 0,0 0.25582106270921323,-0.9203244743534381 l 33.150122889280624 9.522801957779672" fill="red" stroke="none" /><path d="M 80.02781315780177 93.51064311812611 l -14.347401852617416 -4.661753451683885 a36.08575106399334,36.08575106399334 0 0,0 0.19703285110836288,-0.58910314599935 l 14.26503170773728 4.908029700605557" fill="red" stroke="none" /><path d="M 80.2630227832202 92.82701384747504 l -14.886679051582716 -5.410248059834779 a36.83931808045339,36.83931808045339 0 0,0 0.2217295603856351,-0.5941249848317246 l 14.791344902695453 5.6656961816958455" fill="red" stroke="none" /><path d="M 80.65960295795068 91.81776055985345 l -18.81222385324483 -7.958788003897942 a41.42650417461548,41.42650417461548 0 0,0 0.2834939766015816,-0.6543431843574653 l 18.67243916680057 8.281430332842007" fill="red" stroke="none" /><path d="M 80.95270993114464 91.15688171328213 l -26.3484529765032 -12.232841811141883 a50.04967113465179,50.04967113465179 0 0,0 0.3695138766829889,-0.7782904620817939 l 26.13398090597846 12.68457468886421" fill="red" stroke="none" /><path d="M 81.10775173730289 90.83032412892265 l -6.770187765824446 -3.286026445117266 a28.525517402978284,28.525517402978284 0 0,0 0.21820660695769667,-0.4398912044790725 l 6.712621145913337 3.4020772380952997" fill="red" stroke="none" /><path d="M 81.6062741919709 89.86733742301443 l -5.691354955743409 -3.135231000737735 a27.49778382683296,27.49778382683296 0 0,0 0.23195344220552586,-0.41261929162303096 l 5.636543872245452 3.2327338022955505" fill="red" stroke="none" /><line stroke="#e1ed5e" stroke-width="0.3" x1="26.266209847984243" x2="21.928928074336255" y1="57.711370442889674" y2="55.22380399835377" /><path d="M 25.398753493254645 57.213857153982495 a86.0,86.0 0 0,1 29.58750427330803,-30.492523968695096" fill="none" id="id83" stroke="none" /><text fill="#e1ed5e" style="font-size:6.75px; font-family:Arial;" text-anchor="middle"><textPath startOffset="21.46611528233685" xlink:href="#id83">November</textPath></text><path d="M 82.15384107792192 88.93136811851018 l -9.234547127303633 -5.727495938520479 a31.866511416832928,31.866511416832928 0 0,0 0.2931300290307186,-0.4636613105978623 l 9.134589502026952 5.8856048968325565" fill="red" stroke="none" /><path d="M 82.54541684631803 88.32363383020206 l -28.646962871799538 -19.163587305330637 a55.465802764295084,55.465802764295084 0 0,0 0.5376895445168395,-0.7889930591734983 l 28.312848861613958 19.653858387774548" fill="red" stroke="none" /><path d="M 83.17141714833178 87.43820079747576 l -40.372517876112 -30.13631434864197 a71.37993293144748,71.37993293144748 0 0,0 0.743452796061763,-0.978296733060088 l 39.847789139826126 30.826795857583086" fill="red" stroke="none" /><path d="M 83.6137871275137 86.86637796730984 l -11.651152280627315 -9.338450042719172 a35.93171117677839,35.93171117677839 0 0,0 0.3909738183890192,-0.4792876720802778 l 11.488679970161902 9.537621884407532" fill="red" stroke="none" /><path d="M 84.5562425177563 85.77008943001954 l -9.742670493436353 -8.976917048443914 a34.247817482072975,34.247817482072975 0 0,0 0.40319903013142566,-0.43010461310481973 l 9.586704141334472 9.143291078426783" fill="red" stroke="none" /><path d="M 85.05521093208273 85.24692304244772 l -25.72185116408326 -25.391890644282647 a57.14362651697336,57.14362651697336 0 0,0 0.6970548267742088,-0.694061451824746 l 25.28096053714174 25.830887946757503" fill="red" stroke="none" /><path d="M 85.83668400450813 84.49514656593479 l -9.584660094165669 -10.492511077396987 a35.21121028730454,35.21121028730454 0 0,0 0.45102041336822,-0.40493058032463874 l 9.402628693201477 10.655940666490904" fill="red" stroke="none" /><path d="M 86.65592168130627 83.78471172551755 l -34.74587840201536 -42.222056944128155 a75.68069273995016,75.68069273995016 0 0,0 1.0130278820706797,-0.8191314292674843 l 34.01394712138018 42.813894470659775" fill="red" stroke="none" /><line stroke="#e1ed5e" stroke-width="0.3" x1="56.762969772571076" x2="54.21961505331055" y1="26.818313649435495" y2="22.513508569990535" /><path d="M 56.25429882871897 25.957352633546506 a86.0,86.0 0 0,1 42.265352541879196,-11.944610805530505" fill="none" id="id84" stroke="none" /><text fill="#e1ed5e" style="font-size:6.75px; font-family:Arial;" text-anchor="middle"><textPath startOffset="22.20632615414155" xlink:href="#id84">December</textPath></text><path d="M 89.3179101791058 81.91981866633112 l -27.789344225281575 -47.03540142061599 a75.6312789459452,75.6312789459452 0 0,0 1.1265576753389759,-0.6525749198228059 l 26.975589817477278 47.50678049782884" fill="red" stroke="none" /></svg>