<?xml version="1.0" encoding="utf-8" ?>
<svg baseProfile="full" height="200mm" version="1.1" viewBox="0,0,200,200" width="200mm" xmlns="http://www.w3.org/2000/svg" xmlns:ev="http://www.w3.org/2001/xml-events" xmlns:xlink="http://www.w3.org/1999/xlink"><defs /><rect fill="#1a1a1a" height="200" width="200" x="0" y="0" /><text alignment-baseline="middle" fill="#e1ed5e" style="dominant-baseline: central; font-size:9.0px; font-family:Arial;" text-anchor="middle" x="100.0" y="100.0">2024</text><line stroke="#e1ed5e" stroke-width="0.3" x1="100.0" x2="100.0" y1="15.0" y2="10.0" /><path d="M 100.0 14.0 a86.0,86.0 0 0,1 42.35913384403234,11.155469271406648" fill="none" id="id61" stroke="none" /><text fill="#e1ed5e" style="font-size:6.75px; font-family:Arial;" text-anchor="middle"><textPath startOffset="22.145653131862478" xlink:href="#id61">January</textPath></text><path d="M 104.29559338865022 79.4440306129975 l 9.344526467834966 -44.71694190525059 a66.682875,66.682875 0 0,0 1.118486416328017,0.24376890862864276 l -10.110775300782116 44.54994153848823" fill="#31ff3d" stroke="none" /><path d="M 108.4095320186766 80.7573450057729 l 9.509603925869726 -21.75983480065943 a44.7470625,44.7470625 0 0,0 0.7012218347776844,0.3136476075143997 l -9.881739163503042 21.59338344223518" fill="#ff910d" stroke="none" /><path d="M 108.73861861582097 80.90454125486305 l 12.031439342994998 -26.290866293538866 a49.913062499999995,49.913062499999995 0 0,0 0.7760561062612833,0.3632334431002612 l -12.480984163127786 26.080456618868073" fill="#ffe815" stroke="none" /><path d="M 109.3889696526874 81.21577127319529 l 13.530678890729119 -27.070421623916438 a51.263625000000005,51.263625000000005 0 0,0 0.7837787858944399,0.40020303272265334 l -13.993384898337137 26.83416063952095" fill="#fffe18" stroke="none" /><line stroke="#e1ed5e" stroke-width="0.3" x1="143.13028292997686" x2="145.6673583964461" y1="26.7553504044142" y2="22.446841604673864" /><path d="M 143.63769802327073 25.89364864446614 a86.0,86.0 0 0,1 29.32050498858742,28.57503671076993" fill="none" id="id62" stroke="none" /><text fill="#e1ed5e" style="font-size:6.75px; font-family:Arial;" text-anchor="middle"><textPath startOffset="20.669276256404974" xlink:href="#id62">February</textPath></text><path d="M 117.42321728460499 88.27688183743584 l 19.03268698127038 -12.806041202831025 a43.939875,43.939875 0 0,0 0.41570377711324935,0.6294285020603121 l -19.249715197304354 12.477432822431654" fill="#ff830c" stroke="none" /><line stroke="#e1ed5e" stroke-width="0.3" x1="172.87174338648825" x2="177.1583165268699" y1="56.24261187166439" y2="53.66864786411523" /><path d="M 173.72905801456457 55.72781907015455 a86.0,86.0 0 0,1 12.242430191666344,42.057860355516425" fill="none" id="id63" stroke="none" /><text fill="#e1ed5e" style="font-size:6.75px; font-family:Arial;" text-anchor="middle"><textPath startOffset="22.145653131862474" xlink:href="#id63">March</textPath></text><path d="M 118.00360718960297 89.18935116829356 l 19.042190279353203 -11.434288136185513 a43.2114375,43.2114375 0 0,0 0.37640514008735365,0.6392182178919525 l -19.235669129570322 11.105718750000003" fill="#ff760a" stroke="none" /><path d="M 118.36410011445183 89.81374322990088 l 20.72503473541605 -11.495827406104988 a44.6998125,44.6998125 0 0,0 0.3664419330093951,0.6742118835222147 l -20.919322018040784 11.13836068910817" fill="#ff900d" stroke="none" /><path d="M 119.94978838288452 93.4421083053983 l 18.09695178682412 -5.948827503465557 a40.049625,40.049625 0 0,0 0.2090881914232984,0.6549657816213135 l -18.196404694024675 5.637292688152856" fill="#ff3c05" stroke="none" /><line stroke="#e1ed5e" stroke-width="0.3" x1="184.99686870605535" x2="189.99668451229388" y1="99.2704041080226" y2="99.22748670261217" /><path d="M 185.99683186730306 99.26182062694052 a86.0,86.0 0 0,1 -10.086455211305974,41.156179273409016" fill="none" id="id64" stroke="none" /><text fill="#e1ed5e" style="font-size:6.75px; font-family:Arial;" text-anchor="middle"><textPath startOffset="21.40746469413373" xlink:href="#id64">April</textPath></text><path d="M 120.93736805541906 101.62068470465957 l 43.199024640343374 3.343877716888857 a64.32825,64.32825 0 0,0 -0.0946739602711455,1.1002549266265176 l -43.13525705737449 -4.084953690891032" fill="#43ff2d" stroke="none" /><path d="M 120.7213421655516 103.40968896794604 l 35.51120013621407 5.843354468817521 a56.98875,56.98875 0 0,0 -0.1671267890304491,0.9639429069117543 l -35.40565852969139 -6.452090408649863" fill="#a8ff21" stroke="none" /><path d="M 120.43855184770803 104.8234425847677 l 23.024028656443097 5.4336080717408235 a44.6565,44.6565 0 0,0 -0.18248022486309684,0.7445815889708762 l -22.927360905063704 -5.8280454853198" fill="#ff8f0d" stroke="none" /><line stroke="#e1ed5e" stroke-width="0.3" x1="174.33088141563837" x2="178.70328620479359" y1="141.23008692659167" y2="143.65538615756765" /><path d="M 175.20536237346943 141.71514677278685 a86.0,86.0 0 0,1 -30.301960400862466,31.631185727798858" fill="none" id="id65" stroke="none" /><text fill="#e1ed5e" style="font-size:6.75px; font-family:Arial;" text-anchor="middle"><textPath startOffset="22.145653131862474" xlink:href="#id65">May</textPath></text><path d="M 114.39649973595853 115.28858382429668 l 18.914301309349014 20.086332535658784 a48.5900625,48.5900625 0 0,0 -0.6121659022616012,0.5666116200270734 l -18.566705635773445 -20.408061901818236" fill="#ffd213" stroke="none" /><line stroke="#e1ed5e" stroke-width="0.3" x1="143.1302829299769" x2="145.66735839644613" y1="173.24464959558577" y2="177.55315839532614" /><path d="M 143.63769802327073 174.10635135553383 a86.0,86.0 0 0,1 -40.68552437913181,11.842963189579606" fill="none" id="id66" stroke="none" /><text fill="#e1ed5e" style="font-size:6.75px; font-family:Arial;" text-anchor="middle"><textPath startOffset="21.407464694133747" xlink:href="#id66">June</textPath></text><path d="M 104.64783097203109 120.47920084513623 l 4.018340364756621 17.70554908067309 a39.155812499999996,39.155812499999996 0 0,0 -0.6567689890625824,0.14313974434354798 l -3.7138089590749024 -17.771920283150358" fill="#ff2c04" stroke="none" /><path d="M 101.08105385017728 120.97215588758144 l 1.4012484874266649 27.18384630953447 a48.2199375,48.2199375 0 0,0 -0.8270275863303826,0.03551612303771236 l -0.9343951404954527 -27.203895000998013" fill="#ffcc13" stroke="none" /><path d="M 100.72087961077811 120.9876233191556 l 0.9096599588506288 26.483757175859488 a47.499375,47.499375 0 0,0 -0.8151496352362363,0.020995363068866735 l -0.45489700954364864 -26.4954702562784" fill="#ffc011" stroke="none" /><line stroke="#e1ed5e" stroke-width="0.3" x1="101.45913802915013" x2="101.54496967792366" y1="184.9874750549273" y2="189.98673829345242" /><path d="M 101.47630435890484 185.9873277026323 a86.0,86.0 0 0,1 -42.54439059252881,-10.42667462771756" fill="none" id="id67" stroke="none" /><text fill="#e1ed5e" style="font-size:6.75px; font-family:Arial;" text-anchor="middle"><textPath startOffset="22.145653131862474" xlink:href="#id67">July</textPath></text><path d="M 99.63950707515114 120.99690560180557 l -0.40487861622086424 23.582149604027876 a44.585625,44.585625 0 0,0 -0.7651459825635518,-0.019707446351180543 l 0.80963791285516 -23.571724440326648" fill="#ff8e0d" stroke="none" /><path d="M 98.55909050195518 120.95050786540614 l -4.322728494134462 62.8515235962184 a84.0,84.0 0 0,0 -1.4377240208990556,-0.1112889320197854 l 5.4010215098087535 -62.76805689720356" fill="#4dd2ff" stroke="none" /><path d="M 98.19965949673042 120.92268563240118 l -1.6881567856595985 19.618940783932185 a40.6914375,40.6914375 0 0,0 -0.6954368897733982,-0.06585859650454935 l 2.024693238818012 -19.587070431922452" fill="#ff4806" stroke="none" /><path d="M 96.05791012581884 120.62667999033965 l -6.903584892159774 36.12247333308232 a57.77625,57.77625 0 0,0 -0.9725765441829515,-0.19454254743130234 l 7.522657921873684 -35.998641388988155" fill="#9dff22" stroke="none" /><path d="M 94.6519064749342 120.30758222061772 l -6.017607983234985 22.849837669861305 a44.6289375,44.6289375 0 0,0 -0.7391797390010976,-0.20146672485104114 l 6.4089691231707775 -22.74317045086612" fill="#ff8f0d" stroke="none" /><path d="M 93.95794788825049 120.11202640906438 l -6.819966321137256 22.701449809231423 a44.70375,44.70375 0 0,0 -0.7330550027745099,-0.2271023137065959 l 7.208661956783399 -22.58103090771818" fill="#ff900d" stroke="none" /><path d="M 92.93061703081489 119.77432235084164 l -7.966310933400469 22.28318949910468 a44.664375,44.664375 0 0,0 -0.7197575730756459,-0.2643049505145796 l 8.347657658130233 -22.143153699581383" fill="#ff8f0d" stroke="none" /><path d="M 91.59046798132341 119.24265499422711 l -11.54208269563362 26.4105439795767 a49.822500000000005,49.822500000000005 0 0,0 -0.7807579517250057,-0.3492231009663692 l 11.993754050214262 -26.20851712770048" fill="#ffe715" stroke="none" /><path d="M 90.93487009805054 118.94263497670748 l -12.822626246307514 26.794357174552733 a50.704499999999996,50.704499999999996 0 0,0 -0.7819110781567333,-0.38247189039025953 l 13.280697573726318 -26.57029153406525" fill="#fff517" stroke="none" /><path d="M 89.97174638481275 118.45085714620012 l -9.713038451191137 17.870896747871104 a41.33991313962249,41.33991313962249 0 0,0 -0.6206022799232328,-0.3442376231891746 l 10.018384919270472 -17.701526209248783" fill="#ff5407" stroke="none" /><line stroke="#e1ed5e" stroke-width="0.3" x1="58.13341422392154" x2="55.67067388415222" y1="173.97424548756322" y2="178.32567169271397" /><path d="M 57.64086615596768 174.84453072859336 a86.0,86.0 0 0,1 -31.369924170532247,-30.572349798747897" fill="none" id="id68" stroke="none" /><text fill="#e1ed5e" style="font-size:6.75px; font-family:Arial;" text-anchor="middle"><textPath startOffset="22.145653131862474" xlink:href="#id68">August</textPath></text><path d="M 89.03521579738668 117.91015095944536 l -10.96813853564657 17.915630010367252 a42.00642429366567,42.00642429366567 0 0,0 -0.6117653033467725,-0.38178679525458814 l 11.274067967783056 -17.724707418271116" fill="#ff6008" stroke="none" /><path d="M 87.83215693770417 117.11559508785305 l -11.88896707591448 16.723321088411097 a41.518698944091796,41.518698944091796 0 0,0 -0.5773451674400797,-0.41795337763690144 l 12.174293253728514 -16.51676693940113" fill="#ff5708" stroke="none" /><path d="M 86.68645165197938 116.24036423190432 l -11.302775935355081 13.787548835473338 a38.82832708740234,38.82832708740234 0 0,0 -0.5118417856833319,-0.42699662190096527 l 11.537792055200304 -13.591490029660504" fill="#ff2603" stroke="none" /><path d="M 85.86807049272751 115.53346607816431 l -14.201770168781804 15.610233199446164 a42.10378298950195,42.10378298950195 0 0,0 -0.5304479759085536,-0.49097472737250064 l 14.467647916004324 -15.364140725941287" fill="#ff6209" stroke="none" /><path d="M 85.08716467003676 114.78537596483092 l -15.085947643891817 14.957008695223452 a42.24377380371094,42.24377380371094 0 0,0 -0.5061471932482545,-0.5193516094067395 l 15.340481638290882 -14.695834393748976" fill="#ff6509" stroke="none" /><path d="M 84.3458050057657 113.99807769240083 l -14.848843320335833 13.277927259555954 a40.91962600708008,40.91962600708008 0 0,0 -0.4637342026970141,-0.5276443961557475 l 15.07458858699144 -13.021070585588907" fill="#ff4c07" stroke="none" /><path d="M 83.64595745247003 113.17365903436017 l -16.488787221269895 13.282199805450073 a42.173023773193364,42.173023773193364 0 0,0 -0.4493105304483251,-0.5676891774044671 l 16.714364182359784 -12.997190684130924" fill="#ff6309" stroke="none" /><path d="M 83.20337586046588 112.60449989151573 l -21.882483332930693 16.42102344523082 a48.358601715087886,48.358601715087886 0 0,0 -0.4925622496479626,-0.6682552909665542 l 22.161147602162487 -16.042961844995386" fill="#ffce13" stroke="none" /><path d="M 82.576782715395 111.72311816256416 l -18.947150618313927 12.74848852046733 a43.836779022216795,43.836779022216795 0 0,0 -0.41472841276890665,-0.6279516761279502 l 19.163203470003563 -12.42135696600032" fill="#ff810b" stroke="none" /><path d="M 82.37810715431573 111.42229804090323 l -19.6197636537364 12.717293761092295 a44.38086154174805,44.38086154174805 0 0,0 -0.4089005494632942,-0.6428595803323328 l 19.835181894825585 -12.37862050608129" fill="#ff8a0c" stroke="none" /><path d="M 81.99639281039703 110.81064883170644 l -18.62464812481796 11.183566069347636 a42.72440258789062,42.72440258789062 0 0,0 -0.37216268820594683,-0.632013607108756 l 18.813884523153675 -10.86220129394532" fill="#ff6d0a" stroke="none" /><line stroke="#e1ed5e" stroke-width="0.3" x1="26.387840678322732" x2="22.057713659400548" y1="142.50000000000003" y2="145.00000000000006" /><path d="M 25.521815274538298 143.00000000000003 a86.0,86.0 0 0,1 -11.493303480769221,-40.785679425670985" fill="none" id="id69" stroke="none" /><text fill="#e1ed5e" style="font-size:6.75px; font-family:Arial;" text-anchor="middle"><textPath startOffset="21.40746469413373" xlink:href="#id69">September</textPath></text><path d="M 81.81346652052679 110.50000000000001 l -20.089020375258077 11.598401321411142 a44.19680264282226,44.19680264282226 0 0,0 -0.373708453433343,-0.6603070291643208 l 20.2851621937128 -11.2518375221477" fill="#ff870c" stroke="none" /><path d="M 81.4637452351635 109.86951160357371 l -21.0275069275565 11.195963059886019 a44.822376800537114,44.822376800537114 0 0,0 -0.35578707342923654,-0.6822686255846315 l 21.216602069960686 -10.833348191196885" fill="#ff920d" stroke="none" /><path d="M 81.1358732173502 109.22738970284198 l -19.61022694550207 9.592344680048958 a42.830576660156254,42.830576660156254 0 0,0 -0.3173964819932567,-0.6632365742488066 l 19.772002685455238 -9.254295603735049" fill="#ff6f0a" stroke="none" /><path d="M 80.9802524753101 108.90220220490708 l -29.63696900467532 13.871597952480442 a53.72263989257812,53.72263989257812 0 0,0 -0.38377288442305807,-0.8386130124428472 l 29.870726353953433 -13.360795957822905" fill="#daff1c" stroke="none" /><path d="M 80.28708602549918 107.23885506374661 l -36.599687432737056 13.439912183795776 a59.989336486816406,59.989336486816406 0 0,0 -0.34668074643889096,-0.9697277489131767 l 36.82500834921989 -12.80964947850168" fill="#7dff26" stroke="none" /><path d="M 80.16572619554312 106.89939002012753 l -21.705756901884275 7.550388989513867 a43.981476379394536,43.981476379394536 0 0,0 -0.24192865250431642,-0.7152190732246403 l 21.832170975960956 -7.176668241815065" fill="#ff830c" stroke="none" /><path d="M 79.83685265289637 105.86919833188381 l -15.995614066095863 4.656090132063272 a37.659497131347656,37.659497131347656 0 0,0 -0.17535249605792327,-0.6222641473512144 l 16.07318505422836 -4.380818060809062" fill="#ff1001" stroke="none" /><path d="M 79.64726062577567 105.17358676015961 l -25.908441572842534 6.585824533643902 a47.732385406494146,47.732385406494146 0 0,0 -0.1950492408099446,-0.7958674632212035 l 26.01767834016877 -6.1401012458145985" fill="#ffc412" stroke="none" /><path d="M 79.06263194458094 101.62068470465958 l -51.774740059881275 4.007692326975979 a72.92961877441405,72.92961877441405 0 0,0 -0.08590428010575389,-1.249029379339756 l 51.83590830115209 -3.1183195234818797" fill="#3bff9b" stroke="none" /><path d="M 79.00696218219943 100.54070618675478 l -51.250683518396855 1.3200358087437187 a72.26768041992187,72.26768041992187 0 0,0 -0.02129683254687763,-1.2404337277677984 l 51.265791782542394 -0.44005516500686787" fill="#3aff91" stroke="none" /><line stroke="#e1ed5e" stroke-width="0.3" x1="15.003131293944662" x2="10.003315487706104" y1="100.72959589197737" y2="100.7725132973878" /><path d="M 14.003168132696942 100.73817937305945 a86.0,86.0 0 0,1 10.791469493833604,-42.45332614584628" fill="none" id="id70" stroke="none" /><text fill="#e1ed5e" style="font-size:6.75px; font-family:Arial;" text-anchor="middle"><textPath startOffset="22.145653131862435" xlink:href="#id70">October</textPath></text><path d="M 79.00077361379809 99.81974689727619 l -15.842742599797843 -0.13599089112848053 a36.84332624816895,36.84332624816895 0 0,0 0.01085749736283128,-0.6323947891481362 l 15.838073670836344 0.40793259624566913" fill="#ff0000" stroke="none" /><line stroke="#e1ed5e" stroke-width="0.3" x1="26.387840678322718" x2="22.05771365940052" y1="57.49999999999999" y2="54.99999999999999" /><path d="M 25.521815274538284 56.99999999999999 a86.0,86.0 0 0,1 29.574782752854787,-30.34633250058573" fill="none" id="id71" stroke="none" /><text fill="#e1ed5e" style="font-size:6.75px; font-family:Arial;" text-anchor="middle"><textPath startOffset="21.40746469413373" xlink:href="#id71">November</textPath></text><line stroke="#e1ed5e" stroke-width="0.3" x1="56.869717070023135" x2="54.33264160355391" y1="26.7553504044142" y2="22.446841604673864" /><path d="M 56.362301976729285 25.89364864446614 a86.0,86.0 0 0,1 42.16139366436587,-11.88097634709845" fill="none" id="id72" stroke="none" /><text fill="#e1ed5e" style="font-size:6.75px; font-family:Arial;" text-anchor="middle"><textPath startOffset="22.145653131862474" xlink:href="#id72">December</textPath></text></svg>