<?xml version="1.0" encoding="utf-8" ?>
<svg baseProfile="full" height="200mm" version="1.1" viewBox="0,0,200,200" width="200mm" xmlns="http://www.w3.org/2000/svg" xmlns:ev="http://www.w3.org/2001/xml-events" xmlns:xlink="http://www.w3.org/1999/xlink"><defs /><rect fill="#1a1a1a" height="200" width="200" x="0" y="0" /><text alignment-baseline="middle" fill="#e1ed5e" style="dominant-baseline: central; font-size:9.0px; font-family:Arial;" text-anchor="middle" x="100.0" y="100.0">2026</text><line stroke="#e1ed5e" stroke-width="0.3" x1="100.0" x2="100.0" y1="15.0" y2="10.0" /><path d="M 100.0 14.0 a86.0,86.0 0 0,1 42.46469731375804,11.215312516191453" fill="none" id="id85" stroke="none" /><text fill="#e1ed5e" style="font-size:6.75px; font-family:Arial;" text-anchor="middle"><textPath startOffset="22.20632615414155" xlink:href="#id85">January</textPath></text><path d="M 102.16513564639614 79.11191278185805 l 3.8260500340911183 -36.911713566812864 a58.109476650874576,58.109476650874576 0 0,0 0.9940408978389678,0.11169207711118745 l -4.460857635439812 36.840385536231075" fill="red" stroke="none" /><path d="M 105.01212808612495 79.60689891045804 l 9.878894140748434 -40.19476027016764 a62.39095677343495,62.39095677343495 0 0,0 1.040714170674814,0.2653012145726391 l -10.569317200108273 40.01875605942613" fill="red" stroke="none" /><path d="M 106.0581310904928 79.89281104454417 l 13.57185984383648 -45.045567070220876 a68.04570641725458,68.04570641725458 0 0,0 1.118589199022306,0.3475511091494443 l -14.345234415569504 44.80527582618891" fill="red" stroke="none" /><path d="M 106.74666289553966 80.11325718540242 l 12.940169526813559 -38.142979327923 a61.278218175498225,61.278218175498225 0 0,0 0.9959694582016445,0.34747418759360277 l -13.594820989078476 37.91458428715719" fill="red" stroke="none" /><path d="M 107.76421540070413 80.48803036053334 l 14.251109837089846 -35.813950041208784 a59.54520915941432,59.54520915941432 0 0,0 0.9490829521137747,0.38715476622094513 l -14.865476658792009 35.56333438880426" fill="red" stroke="none" /><path d="M 108.43124777332544 80.76684994638697 l 17.571812659934032 -40.084376439715335 a64.76672063013888,64.76672063013888 0 0,0 1.0172010758136327,0.4563884720179099 l -18.259195854214447 39.7759676371809" fill="red" stroke="none" /><path d="M 109.08828744355905 81.06846463323043 l 20.143383933333137 -41.960070883384816 a67.54463948538373,67.54463948538373 0 0,0 1.043817917734702,0.5121969189809732 l -20.862673118078273 41.607118804269014" fill="red" stroke="none" /><path d="M 109.41281617654863 81.2277094730956 l 15.403227550308015 -30.719165996974073 a55.364612299809465,55.364612299809465 0 0,0 0.8482373031513468,0.4345000923897176 l -15.929725341048117 30.449473379271854" fill="red" stroke="none" /><line stroke="#e1ed5e" stroke-width="0.3" x1="143.23703022742887" x2="145.7803849466894" y1="26.81831364943548" y2="22.513508569990506" /><path d="M 143.74570117128098 25.957352633546492 a86.0,86.0 0 0,1 28.547481713284135,27.462654790039103" fill="none" id="id86" stroke="none" /><text fill="#e1ed5e" style="font-size:6.75px; font-family:Arial;" text-anchor="middle"><textPath startOffset="19.985693538727396" xlink:href="#id86">February</textPath></text><line stroke="#e1ed5e" stroke-width="0.3" x1="172.23445277983987" x2="176.4835382374775" y1="55.19839476539836" y2="52.563006222186495" /><path d="M 173.08426987136738 54.67131705675599 a86.0,86.0 0 0,1 12.851231095245387,41.99856678651699" fill="none" id="id87" stroke="none" /><text fill="#e1ed5e" style="font-size:6.75px; font-family:Arial;" text-anchor="middle"><textPath startOffset="22.20632615414155" xlink:href="#id87">March</textPath></text><path d="M 120.83666639777658 97.38593545837742 l 47.53756093970972 -5.963825982306734 a68.91019641416483,68.91019641416483 0 0,0 0.13752390505576195,1.1782208340842935 l -47.63317519776908 5.144661409897587" fill="red" stroke="none" /><line stroke="#e1ed5e" stroke-width="0.3" x1="184.98032266829074" x2="189.97916517819016" y1="98.17113171792111" y2="98.06355123074" /><path d="M 185.9800911702706 98.14961562048488 a86.0,86.0 0 0,1 -9.607161424134198,41.387399972396054" fill="none" id="id88" stroke="none" /><text fill="#e1ed5e" style="font-size:6.75px; font-family:Arial;" text-anchor="middle"><textPath startOffset="21.466115282336823" xlink:href="#id88">April</textPath></text><path d="M 120.95626037817324 101.35467743843564 l 40.98891112005191 2.6496498954656698 a62.074462618226136,62.074462618226136 0 0,0 -0.07810575816359344,1.0656910148284549 l -40.937228803223974 -3.354814046790895" fill="red" stroke="none" /><path d="M 120.8583938346157 102.4346265915055 l 10.514743538669348 1.2272984403823717 a31.58612739134353,31.58612739134353 0 0,0 -0.06768228863558329,0.539494433623406 l -10.492059740786916 -1.4081106282931726" fill="red" stroke="none" /><path d="M 120.81339534386255 102.79330883721812 l 37.45952443931809 5.027340274165799 a58.79537169353039,58.79537169353039 0 0,0 -0.14325338040624463,1.001913808910701 l -37.36743700789524 -5.67139955505691" fill="red" stroke="none" /><path d="M 120.76222939487914 103.15116336523771 l 44.45536059929819 6.74716096449119 a65.96446671644608,65.96446671644608 0 0,0 -0.18004607174666049,1.1211470606338514 l -44.33263277319024 -7.5113872548182465" fill="red" stroke="none" /><path d="M 120.32669344350535 105.2749913415812 l 46.4501962071085 12.05431584277344 a68.98882430437544,68.98882430437544 0 0,0 -0.308189253281553,1.1468868606769793 l -46.235818877485166 -12.852093636625966" fill="red" stroke="none" /><path d="M 119.41010516605496 108.01547362559984 l 44.39493344900409 18.333049467092444 a69.0313524554989,69.0313524554989 0 0,0 -0.46299991715832933,1.0943950361977726 l -44.07278255065345 -19.09451902895638" fill="red" stroke="none" /><path d="M 118.64920377521936 109.65438752849418 l 32.961691516209946 17.063728153103245 a58.116626006316835,58.116626006316835 0 0,0 -0.4675551521047228,0.8844381450225495 l -32.66308385588033 -17.628581313211928" fill="red" stroke="none" /><line stroke="#e1ed5e" stroke-width="0.3" x1="174.80103733775053" x2="179.2010983576182" y1="140.37084112569926" y2="142.7455964860345" /><path d="M 175.68104954172406 140.8457921977663 a86.0,86.0 0 0,1 -30.038265399797805,32.042727171017184" fill="none" id="id89" stroke="none" /><text fill="#e1ed5e" style="font-size:6.75px; font-family:Arial;" text-anchor="middle"><textPath startOffset="22.206326154141568" xlink:href="#id89">May</textPath></text><path d="M 118.30583269289576 110.29060199501025 l 54.91749807868728 30.871805985030733 a84.0,84.0 0 0,0 -0.7193920153904818,1.2543206165667395 l -54.37795406714442 -31.812546447455787" fill="red" stroke="none" /><line stroke="#e1ed5e" stroke-width="0.3" x1="143.8653032363475" x2="146.44561519142675" y1="172.8068346515853" y2="177.08958963109032" /><path d="M 144.38136562736335 173.6633856474863 a86.0,86.0 0 0,1 -40.68145358897372,12.25698825130547" fill="none" id="id90" stroke="none" /><text fill="#e1ed5e" style="font-size:6.75px; font-family:Arial;" text-anchor="middle"><textPath startOffset="21.466115282336833" xlink:href="#id90">June</textPath></text><line stroke="#e1ed5e" stroke-width="0.3" x1="102.19456741930631" x2="102.32365962044197" y1="184.97166512339345" y2="189.96999836594603" /><path d="M 102.22038585953345 185.97133177190398 a86.0,86.0 0 0,1 -42.740103519485714,-10.115201625700543" fill="none" id="id91" stroke="none" /><text fill="#e1ed5e" style="font-size:6.75px; font-family:Arial;" text-anchor="middle"><textPath startOffset="22.20632615414155" xlink:href="#id91">July</textPath></text><line stroke="#e1ed5e" stroke-width="0.3" x1="58.666819895761336" x2="56.23545636021788" y1="174.27360380694188" y2="178.64263932499728" /><path d="M 58.180547188652646 175.14741091055294 a86.0,86.0 0 0,1 -31.652253787137756,-30.449443065178592" fill="none" id="id92" stroke="none" /><text fill="#e1ed5e" style="font-size:6.75px; font-family:Arial;" text-anchor="middle"><textPath startOffset="22.20632615414155" xlink:href="#id92">August</textPath></text><line stroke="#e1ed5e" stroke-width="0.3" x1="26.63291911575756" x2="22.317208475507996" y1="142.92168965132927" y2="145.44649492493687" /><path d="M 25.769776987707644 143.4266507060508 a86.0,86.0 0 0,1 -11.730757126820373,-40.83630448921669" fill="none" id="id93" stroke="none" /><text fill="#e1ed5e" style="font-size:6.75px; font-family:Arial;" text-anchor="middle"><textPath startOffset="21.46611528233685" xlink:href="#id93">September</textPath></text><line stroke="#e1ed5e" stroke-width="0.3" x1="15.007084014347285" x2="10.007500721073583" y1="101.09737516637583" y2="101.16192664675087" /><path d="M 14.007167355692545 101.11028546245083 a86.0,86.0 0 0,1 10.666146001902534,-42.60595125391555" fill="none" id="id94" stroke="none" /><text fill="#e1ed5e" style="font-size:6.75px; font-family:Arial;" text-anchor="middle"><textPath startOffset="22.20632615414155" xlink:href="#id94">October</textPath></text><line stroke="#e1ed5e" stroke-width="0.3" x1="26.266209847984243" x2="21.928928074336255" y1="57.711370442889674" y2="55.22380399835377" /><path d="M 25.398753493254645 57.213857153982495 a86.0,86.0 0 0,1 29.58750427330803,-30.492523968695096" fill="none" id="id95" stroke="none" /><text fill="#e1ed5e" style="font-size:6.75px; font-family:Arial;" text-anchor="middle"><textPath startOffset="21.46611528233685" xlink:href="#id95">November</textPath></text><line stroke="#e1ed5e" stroke-width="0.3" x1="56.762969772571076" x2="54.21961505331055" y1="26.818313649435495" y2="22.513508569990535" /><path d="M 56.25429882871897 25.957352633546506 a86.0,86.0 0 0,1 42.265352541879196,-11.944610805530505" fill="none" id="id96" stroke="none" /><text fill="#e1ed5e" style="font-size:6.75px; font-family:Arial;" text-anchor="middle"><textPath startOffset="22.20632615414155" xlink:href="#id96">December</textPath></text></svg>