<?xml version="1.0" encoding="utf-8" ?>
<svg baseProfile="full" height="200mm" version="1.1" viewBox="0,0,200,200" width="200mm" xmlns="http://www.w3.org/2000/svg" xmlns:ev="http://www.w3.org/2001/xml-events" xmlns:xlink="http://www.w3.org/1999/xlink"><defs /><rect fill="#1a1a1a" height="200" width="200" x="0" y="0" /><text alignment-baseline="middle" fill="#e1ed5e" style="dominant-baseline: central; font-size:9.0px; font-family:Arial;" text-anchor="middle" x="100.0" y="100.0">2020</text><line stroke="#e1ed5e" stroke-width="0.3" x1="100.0" x2="100.0" y1="15.0" y2="10.0" /><path d="M 100.0 14.0 a86.0,86.0 0 0,1 42.35913384403234,11.155469271406648" fill="none" id="id13" stroke="none" /><text fill="#e1ed5e" style="font-size:6.75px; font-family:Arial;" text-anchor="middle"><textPath startOffset="22.145653131862478" xlink:href="#id13">January</textPath></text><line stroke="#e1ed5e" stroke-width="0.3" x1="143.13028292997686" x2="145.6673583964461" y1="26.7553504044142" y2="22.446841604673864" /><path d="M 143.63769802327073 25.89364864446614 a86.0,86.0 0 0,1 29.32050498858742,28.57503671076993" fill="none" id="id14" stroke="none" /><text fill="#e1ed5e" style="font-size:6.75px; font-family:Arial;" text-anchor="middle"><textPath startOffset="20.669276256404974" xlink:href="#id14">February</textPath></text><line stroke="#e1ed5e" stroke-width="0.3" x1="172.87174338648825" x2="177.1583165268699" y1="56.24261187166439" y2="53.66864786411523" /><path d="M 173.72905801456457 55.72781907015455 a86.0,86.0 0 0,1 12.242430191666344,42.057860355516425" fill="none" id="id15" stroke="none" /><text fill="#e1ed5e" style="font-size:6.75px; font-family:Arial;" text-anchor="middle"><textPath startOffset="22.145653131862474" xlink:href="#id15">March</textPath></text><line stroke="#e1ed5e" stroke-width="0.3" x1="184.99686870605535" x2="189.99668451229388" y1="99.2704041080226" y2="99.22748670261217" /><path d="M 185.99683186730306 99.26182062694052 a86.0,86.0 0 0,1 -10.086455211305974,41.156179273409016" fill="none" id="id16" stroke="none" /><text fill="#e1ed5e" style="font-size:6.75px; font-family:Arial;" text-anchor="middle"><textPath startOffset="21.40746469413373" xlink:href="#id16">April</textPath></text><line stroke="#e1ed5e" stroke-width="0.3" x1="174.33088141563837" x2="178.70328620479359" y1="141.23008692659167" y2="143.65538615756765" /><path d="M 175.20536237346943 141.71514677278685 a86.0,86.0 0 0,1 -30.301960400862466,31.631185727798858" fill="none" id="id17" stroke="none" /><text fill="#e1ed5e" style="font-size:6.75px; font-family:Arial;" text-anchor="middle"><textPath startOffset="22.145653131862474" xlink:href="#id17">May</textPath></text><line stroke="#e1ed5e" stroke-width="0.3" x1="143.1302829299769" x2="145.66735839644613" y1="173.24464959558577" y2="177.55315839532614" /><path d="M 143.63769802327073 174.10635135553383 a86.0,86.0 0 0,1 -40.68552437913181,11.842963189579606" fill="none" id="id18" stroke="none" /><text fill="#e1ed5e" style="font-size:6.75px; font-family:Arial;" text-anchor="middle"><textPath startOffset="21.407464694133747" xlink:href="#id18">June</textPath></text><line stroke="#e1ed5e" stroke-width="0.3" x1="101.45913802915013" x2="101.54496967792366" y1="184.9874750549273" y2="189.98673829345242" /><path d="M 101.47630435890484 185.9873277026323 a86.0,86.0 0 0,1 -42.54439059252881,-10.42667462771756" fill="none" id="id19" stroke="none" /><text fill="#e1ed5e" style="font-size:6.75px; font-family:Arial;" text-anchor="middle"><textPath startOffset="22.145653131862474" xlink:href="#id19">July</textPath></text><path d="M 94.30408787586889 120.21278271476187 l -3.437881729997704 12.199829437869615 a33.67497018152556,33.67497018152556 0 0,0 -0.5550597029372866,-0.16156978999825578 l 3.6468014453165973 -12.13901595356884" fill="red" stroke="none" /><path d="M 92.93061703081489 119.77432235084164 l -6.236782981768335 17.44539200257056 a39.5267148756877,39.5267148756877 0 0,0 -0.636965195876535,-0.23390244281314884 l 6.535337329298989 -17.335758710748692" fill="red" stroke="none" /><path d="M 92.25597844496254 119.51999308798841 l -6.992556484849458 17.625810217798346 a39.962200084052874,39.962200084052874 0 0,0 -0.6354856399564022,-0.25844647745440463 l 7.294096585996301 -17.50317648376465" fill="red" stroke="none" /><path d="M 90.6110303473126 118.78422872680471 l -6.787427885185441 13.579402488059214 a36.18121698775502,36.18121698775502 0 0,0 -0.5531811361924874,-0.2824582297115341 l 7.01953624309151 -13.460886306674846" fill="red" stroke="none" /><line stroke="#e1ed5e" stroke-width="0.3" x1="58.13341422392154" x2="55.670673884152215" y1="173.97424548756322" y2="178.32567169271397" /><path d="M 57.64086615596767 174.84453072859336 a86.0,86.0 0 0,1 -31.369924170532244,-30.572349798747897" fill="none" id="id20" stroke="none" /><text fill="#e1ed5e" style="font-size:6.75px; font-family:Arial;" text-anchor="middle"><textPath startOffset="22.145653131862474" xlink:href="#id20">August</textPath></text><path d="M 87.54013794807813 116.9041958592261 l -9.777661218289783 13.265275296818851 a37.479386748299845,37.479386748299845 0 0,0 -0.514622340301414,-0.38618219819739574 l 10.003936547501963 -13.095474071357442" fill="red" stroke="none" /><path d="M 82.18462484594161 111.11811171558189 l -10.970141709224219 6.846179774728738 a33.931132457304955,33.931132457304955 0 0,0 -0.3041393395605618,-0.4967887542134584 l 11.086049013240185 -6.656853904390722" fill="red" stroke="none" /><line stroke="#e1ed5e" stroke-width="0.3" x1="26.387840678322732" x2="22.057713659400548" y1="142.50000000000003" y2="145.00000000000006" /><path d="M 25.521815274538298 143.00000000000003 a86.0,86.0 0 0,1 -11.493303480769221,-40.785679425670985" fill="none" id="id21" stroke="none" /><text fill="#e1ed5e" style="font-size:6.75px; font-family:Arial;" text-anchor="middle"><textPath startOffset="21.40746469413373" xlink:href="#id21">September</textPath></text><path d="M 79.94057633289273 106.21446072829308 l -60.04967957886461 18.60354423349454 a83.86537899012379,83.86537899012379 0 0,0 -0.4142297968164724,-1.3788362726620158 l 60.36018569568471 -17.5699703572418" fill="red" stroke="none" /><path d="M 79.407916724674 104.11899336999214 l -61.649443623361236 12.331615318038237 a83.87068184314586,83.87068184314586 0 0,0 -0.2702780956737744,-1.4142092052173767 l 61.852048011317166 -11.271503547787546" fill="red" stroke="none" /><path d="M 79.22317932658666 103.0534771498775 l -18.82384026177791 2.7664562839411575 a40.02604116919462,40.02604116919462 0 0,0 -0.09407164820412221,-0.6806555846659101 l 18.868556426537246 -2.442912391075162" fill="red" stroke="none" /><path d="M 79.13060592940153 102.33845913500099 l -31.441855299152866 3.5231254677043222 a52.63862635630779,52.63862635630779 0 0,0 -0.09291371152761169,-0.8988558745052605 l 31.497701403162143 -2.9828650709161306" fill="red" stroke="none" /><path d="M 79.03789590574601 101.26102812881392 l -31.542768732371506 1.8975346393349823 a52.599792673550084,52.599792673550084 0 0,0 -0.046484216520709686,-0.9017813821435243 l 31.570694538348786 -1.3557814638147272" fill="red" stroke="none" /><line stroke="#e1ed5e" stroke-width="0.3" x1="15.003131293944662" x2="10.003315487706104" y1="100.72959589197737" y2="100.7725132973878" /><path d="M 14.003168132696942 100.73817937305945 a86.0,86.0 0 0,1 10.791469493833615,-42.45332614584628" fill="none" id="id22" stroke="none" /><text fill="#e1ed5e" style="font-size:6.75px; font-family:Arial;" text-anchor="middle"><textPath startOffset="22.145653131862435" xlink:href="#id22">October</textPath></text><path d="M 79.00077361379809 99.81974689727619 l -62.82039112995202 -0.5392375036700325 a83.82270544003592,83.82270544003592 0 0,0 0.024702026009549117,-1.4387691756037446 l 62.80187767234381 1.6175535952428295" fill="red" stroke="none" /><path d="M 79.22317932658666 96.9465228501225 l -37.72062790998213 -5.543633321605753 a59.125813307098646,59.125813307098646 0 0,0 0.15620056658996184,-1.0029196882334894 l 37.6199058512539 6.190341191770693" fill="red" stroke="none" /><path d="M 79.48165901384962 95.52812308129327 l -61.55502295845111 -13.41563075612017 a84.0,84.0 0 0,0 0.31915655376935304,-1.4062626642439673 l 61.315655543124095 14.470327754303144" fill="red" stroke="none" /><line stroke="#e1ed5e" stroke-width="0.3" x1="26.387840678322718" x2="22.05771365940052" y1="57.49999999999999" y2="54.99999999999999" /><path d="M 25.521815274538284 56.99999999999999 a86.0,86.0 0 0,1 29.574782752854787,-30.34633250058573" fill="none" id="id23" stroke="none" /><text fill="#e1ed5e" style="font-size:6.75px; font-family:Arial;" text-anchor="middle"><textPath startOffset="21.40746469413373" xlink:href="#id23">November</textPath></text><path d="M 82.576782715395 88.27688183743585 l -26.134283510780463 -17.584312282068694 a52.499346232186525,52.499346232186525 0 0,0 0.5095193129812344,-0.7434039048087677 l 25.828574460983916 18.030350921947498" fill="red" stroke="none" /><line stroke="#e1ed5e" stroke-width="0.3" x1="56.869717070023135" x2="54.33264160355391" y1="26.7553504044142" y2="22.446841604673864" /><path d="M 56.362301976729285 25.89364864446614 a86.0,86.0 0 0,1 42.16139366436587,-11.88097634709845" fill="none" id="id24" stroke="none" /><text fill="#e1ed5e" style="font-size:6.75px; font-family:Arial;" text-anchor="middle"><textPath startOffset="22.145653131862474" xlink:href="#id24">December</textPath></text></svg>