<?xml version="1.0" encoding="utf-8" ?>
<svg baseProfile="full" height="200mm" version="1.1" viewBox="0,0,200,200" width="200mm" xmlns="http://www.w3.org/2000/svg" xmlns:ev="http://www.w3.org/2001/xml-events" xmlns:xlink="http://www.w3.org/1999/xlink"><defs /><rect fill="#1a1a1a" height="200" width="200" x="0" y="0" /><text alignment-baseline="middle" fill="#e1ed5e" style="dominant-baseline: central; font-size:9.0px; font-family:Arial;" text-anchor="middle" x="100.0" y="100.0">2025</text><line stroke="#e1ed5e" stroke-width="0.3" x1="100.0" x2="100.0" y1="15.0" y2="10.0" /><path d="M 100.0 14.0 a86.0,86.0 0 0,1 42.46469731375804,11.215312516191453" fill="none" id="id73" stroke="none" /><text fill="#e1ed5e" style="font-size:6.75px; font-family:Arial;" text-anchor="middle"><textPath startOffset="22.20632615414155" xlink:href="#id73">January</textPath></text><path d="M 101.08401301168833 79.027996857942 l 1.4425202504409393 -27.9079115273828 a48.945167569602404,48.945167569602404 0 0,0 0.8410130469055811,0.050732203696352965 l -1.9226953461861322 27.878946054306144" fill="red" stroke="none" /><path d="M 101.80526077348638 79.07773832637324 l 2.4210605102569764 -28.05913819611562 a49.16339415452335,49.16339415452335 0 0,0 0.8425081058653011,0.08000629642935743 l -2.903693743212522 28.013306355171082" fill="red" stroke="none" /><path d="M 103.2404852339499 79.25152402106235 l 4.681245278795537 -29.97350649865853 a51.33686122830394,51.33686122830394 0 0,0 0.8719218594589316,0.14387457772550366 l -5.196496344393344 29.888485657993403" fill="red" stroke="none" /><path d="M 103.95276090670814 79.375362276772 l 6.531727140369166 -34.08111675777546 a55.7013829536138,55.7013829536138 0 0,0 0.9401162456140951,0.18857847471573172 l -7.117409795450387 33.96363432698252" fill="red" stroke="none" /><path d="M 105.01212808612495 79.60689891045804 l 6.8587981924338655 -27.906741904357727 a49.7372468472707,49.7372468472707 0 0,0 0.8296435938989375,0.21149462487003318 l -7.338150675017828 27.784544283318827" fill="red" stroke="none" /><path d="M 106.0581310904928 79.89281104454417 l 8.042611378834987 -26.6937615370056 a48.879033390443894,48.879033390443894 0 0,0 0.8035122521020213,0.2496551680253231 l -8.500909003647728 26.551366234097756" fill="red" stroke="none" /><path d="M 106.74666289553966 80.11325718540242 l 9.167205408371741 -27.02163411861035 a49.53430155863863,49.53430155863863 0 0,0 0.8050927875295237,0.28088106515777533 l -9.630980199964538 26.85983220028037" fill="red" stroke="none" /><path d="M 107.76421540070413 80.48803036053334 l 10.209417006162745 -25.656917586654814 a48.61357665450316,48.61357665450316 0 0,0 0.7748451553935048,0.31607879408821427 l -10.649546031144638 25.47737790638302" fill="red" stroke="none" /><path d="M 108.09893153111575 80.62456947434976 l 10.69975707400714 -25.597499995187597 a48.74377060614499,48.74377060614499 0 0,0 0.7713498418554757,0.3302517471769405 l -11.138790673652931 25.409528720047867" fill="red" stroke="none" /><line stroke="#e1ed5e" stroke-width="0.3" x1="143.23703022742887" x2="145.7803849466894" y1="26.81831364943548" y2="22.513508569990506" /><path d="M 143.74570117128098 25.957352633546492 a86.0,86.0 0 0,1 28.547481713284135,27.462654790039103" fill="none" id="id74" stroke="none" /><text fill="#e1ed5e" style="font-size:6.75px; font-family:Arial;" text-anchor="middle"><textPath startOffset="19.985693538727396" xlink:href="#id74">February</textPath></text><path d="M 113.34407831869373 83.78471172551755 l 11.47654990751909 -13.94592872601816 a39.06101120676677,39.06101120676677 0 0,0 0.515498326414803,0.43171502343417234 l -11.71490577089301 13.746312545190166" fill="red" stroke="none" /><path d="M 114.94478906791727 85.2469230424477 l 19.08016940420315 -18.83540853631954 a47.81092089472402,47.81092089472402 0 0,0 0.5731293987840838,0.5906602249434559 l -19.401563066690343 18.50418411582597" fill="red" stroke="none" /><path d="M 115.4437574822437 85.77008943001954 l 21.82269582080919 -20.107477748406485 a50.67390628633556,50.67390628633556 0 0,0 0.5855402673907796,0.6465681879803662 l -22.165579728816006 19.728856773156572" fill="red" stroke="none" /><path d="M 116.60985879189232 87.15038557335679 l 33.91818369822042 -26.239571813032487 a63.88307724869467,63.88307724869467 0 0,0 0.6653698098481461,0.8755486759877287 l -34.364829448292674 25.651838361163726" fill="red" stroke="none" /><path d="M 117.65298651832404 88.62581576622439 l 22.907647561058287 -14.759870996979295 a48.25094693087068,48.25094693087068 0 0,0 0.4438453048592913,0.7020566826068829 l -23.158320462163534 14.363366666658205" fill="red" stroke="none" /><line stroke="#e1ed5e" stroke-width="0.3" x1="172.23445277983987" x2="176.4835382374775" y1="55.19839476539836" y2="52.563006222186495" /><path d="M 173.08426987136738 54.67131705675599 a86.0,86.0 0 0,1 12.851231095245387,41.99856678651699" fill="none" id="id75" stroke="none" /><text fill="#e1ed5e" style="font-size:6.75px; font-family:Arial;" text-anchor="middle"><textPath startOffset="22.20632615414155" xlink:href="#id75">March</textPath></text><path d="M 118.56541770881063 90.18545643968196 l 15.57713645786324 -8.234799060737712 a38.61984948283097,38.61984948283097 0 0,0 0.30563117508679366,0.5903821498184979 l -15.71657706611015 7.9654441886588705" fill="red" stroke="none" /><path d="M 120.53481517161879 95.60439243477599 l 15.09860825571806 -3.2319529598160126 a36.44064413145064,36.44064413145064 0 0,0 0.12601643972080864,0.6145009139063131 l -15.152003991353865 2.9715763897462875" fill="red" stroke="none" /><path d="M 120.6074358757038 95.95851677861258 l 34.90574843436243 -6.845635598641811 a56.570690188867395,56.570690188867395 0 0,0 0.17917897646819717,0.957181257008481 l -35.018413134740484 6.2437762641707675" fill="red" stroke="none" /><path d="M 120.67395015179393 96.31383870115 l 31.133322169973574 -5.551065299324367 a52.62432727026349,52.62432727026349 0 0,0 0.15132786488579883,0.8931456247352533 l -31.224261896379595 5.014333886273276" fill="red" stroke="none" /><path d="M 120.83666639777658 97.38593545837742 l 28.443013607019655 -3.5683190347056875 a49.66597153041474,49.66597153041474 0 0,0 0.09911825402730878,0.8491846700083338 l -28.500222214050552 3.0781906263725007" fill="red" stroke="none" /><path d="M 120.94382443527127 98.46500227214037 l 62.831473305813795 -4.6049931835789 a84.0,84.0 0 0,0 0.09327763598233796,1.442963742987859 l -62.90143153280055 3.5227703763380056" fill="red" stroke="none" /><line stroke="#e1ed5e" stroke-width="0.3" x1="184.98032266829074" x2="189.97916517819016" y1="98.17113171792111" y2="98.06355123074" /><path d="M 185.9800911702706 98.14961562048488 a86.0,86.0 0 0,1 -9.607161424134198,41.387399972396054" fill="none" id="id76" stroke="none" /><text fill="#e1ed5e" style="font-size:6.75px; font-family:Arial;" text-anchor="middle"><textPath startOffset="21.466115282336823" xlink:href="#id76">April</textPath></text><path d="M 120.9904718944345 100.63252640178507 l 58.92039247651755 1.7755057643471726 a79.94713793142205,79.94713793142205 0 0,0 -0.05328997217574189,1.375177393187583 l -58.881100371490604 -2.7894604045487617" fill="red" stroke="none" /><path d="M 120.92983693683757 101.71520430193887 l 28.341255053963597 2.322571491483874 a49.43626340373979,49.43626340373979 0 0,0 -0.07680371676665983,0.847522614569596 l -28.297076740919863 -2.8100754946020405" fill="red" stroke="none" /><path d="M 120.64145759157962 103.86396538481128 l 27.34375217433757 5.118597435464009 a48.818713533841375,48.818713533841375 0 0,0 -0.1617295796471999,0.8246556423015506 l -27.251592661714707 -5.588516804833504" fill="red" stroke="none" /><path d="M 120.5718875245553 104.21870165774334 l 24.435774346578288 5.011073564402077 a45.9442964660209,45.9442964660209 0 0,0 -0.16554377891574495,0.7733654227326158 l -24.3458965289381 -5.430952806550862" fill="red" stroke="none" /><path d="M 120.41448212921028 104.9243191809786 l 22.870477519500955 5.516746906171709 a44.52643701023922,44.52643701023922 0 0,0 -0.18613892305965052,0.7435324700150638 l -22.772127282146243 -5.909607215584169" fill="red" stroke="none" /><path d="M 120.23288151984713 105.62410040840565 l 29.096231880662188 8.087831159520098 a51.19939937346713,51.19939937346713 0 0,0 -0.24333700211815468,0.847088027188883 l -28.952702241657935 -8.587476662213563" fill="red" stroke="none" /><path d="M 119.9155931802556 106.66101706037122 l 22.25082660615323 7.442064832790804 a44.462387210864925,44.462387210864925 0 0,0 -0.24900878162619744,0.7237360778327057 l -22.1194269935838 -7.82397361371281" fill="red" stroke="none" /><path d="M 119.79798401119884 107.00284435728193 l 22.27999878403228 7.880770268162309 a44.63270796663029,44.63270796663029 0 0,0 -0.26243126664369426,0.7220981360592688 l -22.14104325638336 -8.263116201227708" fill="red" stroke="none" /><path d="M 119.54520255179757 107.68017299344265 l 21.405549514154607 8.411185448333454 a43.998817157610105,43.998817157610105 0 0,0 -0.28305357970286243,0.7025157717673872 l -21.257593320194353 -8.778400587943656" fill="red" stroke="none" /><path d="M 119.41010516605496 108.01547362559984 l 36.060561351578684 14.891340153240943 a60.014306306155135,60.014306306155135 0 0,0 -0.40252172179267515,0.9514424473234693 l -35.7988886485937 -15.509857126230575" fill="red" stroke="none" /><path d="M 119.12269723197855 108.67885076344098 l 21.525227514458354 9.769240969557979 a44.638390145491826,44.638390145491826 0 0,0 -0.3235760020738376,0.696953921794532 l -21.353876895544683 -10.13831495863134" fill="red" stroke="none" /><path d="M 118.97047184881838 109.00673069616215 l 32.37532854503321 15.371039145926582 a56.83895566034884,56.83895566034884 0 0,0 -0.42723066897174833,0.8802217196259744 l -32.10594461944675 -15.926049821517832" fill="red" stroke="none" /><path d="M 118.64920377521936 109.65438752849418 l 20.875709104086514 10.807012891926789 a44.50716397706692,44.50716397706692 0 0,0 -0.35806541523565943,0.6773248251509465 l -20.686591180625964 -11.164752732163869" fill="red" stroke="none" /><line stroke="#e1ed5e" stroke-width="0.3" x1="174.80103733775053" x2="179.2010983576182" y1="140.37084112569926" y2="142.7455964860345" /><path d="M 175.68104954172406 140.8457921977663 a86.0,86.0 0 0,1 -30.038265399797805,32.042727171017184" fill="none" id="id77" stroke="none" /><text fill="#e1ed5e" style="font-size:6.75px; font-family:Arial;" text-anchor="middle"><textPath startOffset="22.206326154141568" xlink:href="#id77">May</textPath></text><path d="M 117.35343817320211 111.8261652097733 l 20.229905583760118 13.786444116942203 a45.48091340856013,45.48091340856013 0 0,0 -0.44644734435609623,0.6431406971613083 l -19.989597332241885 -14.132626076290531" fill="red" stroke="none" /><path d="M 116.498646956653 112.99209946851258 l 23.005454297775 18.115979530944944 a50.28207031295141,50.28207031295141 0 0,0 -0.5413274020265094,0.6753891669211881 l -22.690208983693637 -18.50929653144438" fill="red" stroke="none" /><path d="M 116.27256486870786 113.27417163493432 l 19.012885115185398 15.509558716191469 a45.536426226617216,45.536426226617216 0 0,0 -0.500692522203737,0.6031163974382308 l -18.74309659308812 -15.83453637074347" fill="red" stroke="none" /><path d="M 114.29624159901734 115.38237550388516 l 16.545681878735518 17.8027133819585 a45.30424227562919,45.30424227562919 0 0,0 -0.5757963178298943,0.525976284338682 l -16.23678601143876 -18.084882432883767" fill="red" stroke="none" /><path d="M 114.0293411484842 115.62618273729858 l 16.0320220591702 17.856811926771247 a44.99773871625824,44.99773871625824 0 0,0 -0.5808086276644334,0.5124960844526708 l -15.72227107859918 -18.130131152996206" fill="red" stroke="none" /><path d="M 112.63410532772338 116.77436683061366 l 14.60124777557722 19.386152008307583 a45.269720358772304,45.269720358772304 0 0,0 -0.6264791010099017,0.4634542619270847 l -14.265383704148753 -19.634616218974436" fill="red" stroke="none" /><path d="M 111.7513745106137 117.40417183066458 l 32.23176963769529 47.736310052427235 a78.59897804127189,78.59897804127189 0 0,0 -1.127802892238914,0.747446259763905 l -31.40529204671641 -48.28405433328246" fill="red" stroke="none" /><line stroke="#e1ed5e" stroke-width="0.3" x1="143.8653032363475" x2="146.44561519142675" y1="172.8068346515853" y2="177.08958963109032" /><path d="M 144.38136562736335 173.6633856474863 a86.0,86.0 0 0,1 -40.68145358897372,12.25698825130547" fill="none" id="id78" stroke="none" /><text fill="#e1ed5e" style="font-size:6.75px; font-family:Arial;" text-anchor="middle"><textPath startOffset="21.466115282336833" xlink:href="#id78">June</textPath></text><path d="M 110.5260780823613 118.17145234162733 l 18.906771821865302 32.639269859755494 a58.71986158116203,58.71986158116203 0 0,0 -0.8789838521073711,0.4991099712959545 l -18.342139202836734 -32.959882996846076" fill="red" stroke="none" /><path d="M 109.89434966115114 118.52300852407294 l 13.082369093728996 24.491234142418367 a48.76632728546062,48.76632728546062 0 0,0 -0.7438237276144487,0.38913341900746423 l -12.658854463588051 -24.71279698037055" fill="red" stroke="none" /><path d="M 109.2508944713604 118.85261126421891 l 10.565335859571835 21.531341693829614 a44.98384866867701,44.98384866867701 0 0,0 -0.6980793536055445,0.335120511943118 l -10.193143837966058 -21.71001648227229" fill="red" stroke="none" /><path d="M 107.93186726928326 119.44442032107085 l 9.458721272467463 23.18739659625327 a46.04241939234638,46.04241939234638 0 0,0 -0.7364132515204959,0.29303403061744293 l -9.058186944905101 -23.34677747127678" fill="red" stroke="none" /><path d="M 105.88484417918355 120.15858648285463 l 7.091911162354827 24.293405252895955 a46.30740489888613,46.30740489888613 0 0,0 -0.7670906119182179,0.21678746918910813 l -6.672689382332003 -24.411881515423584" fill="red" stroke="none" /><path d="M 105.18746579009965 120.34920634021253 l 5.954568081065977 23.3583679298109 a45.10539842807972,45.10539842807972 0 0,0 -0.7540048551679102,0.18531604855328807 l -5.551609941154856 -23.457405236678216" fill="red" stroke="none" /><path d="M 104.13013068566511 120.58985236759428 l 4.807600678748705 23.96722906646745 a45.44465367745731,45.44465367745731 0 0,0 -0.7683011333366875,0.14724674077608504 l -4.3943319308403135 -24.046433005592004" fill="red" stroke="none" /><path d="M 102.70371172650421 120.8252237178851 l 3.1628828098662747 24.3619693117515 a45.56642783181286,45.56642783181286 0 0,0 -0.7786924465879042,0.09428881091932771 l -2.74306294022699 -24.41280365139618" fill="red" stroke="none" /><path d="M 101.62511606390274 120.93702456842531 l 2.3523414348101053 30.30616182309293 a51.39731821515542,51.39731821515542 0 0,0 -0.8826565211657356,0.060873161496866994 l -1.8303221528654394 -30.34216332910608" fill="red" stroke="none" /><path d="M 101.26447882468166 120.96189622390904 l 1.4875401442000944 24.65969498498415 a45.70452048579489,45.70452048579489 0 0,0 -0.7857084391815479,0.04061215162408737 l -1.0628436366050669 -24.68164694337044" fill="red" stroke="none" /><path d="M 100.90346689309514 120.98055641714683 l 1.0459644175212304 24.289673080274472 a45.31218336368272,45.31218336368272 0 0,0 -0.7795414128802364,0.0268489824451478 l -0.6277026529663416 -24.30407886114571" fill="red" stroke="none" /><line stroke="#e1ed5e" stroke-width="0.3" x1="102.19456741930631" x2="102.32365962044197" y1="184.97166512339345" y2="189.96999836594603" /><path d="M 102.22038585953345 185.97133177190398 a86.0,86.0 0 0,1 -42.740103519485714,-10.115201625700543" fill="none" id="id79" stroke="none" /><text fill="#e1ed5e" style="font-size:6.75px; font-family:Arial;" text-anchor="middle"><textPath startOffset="22.20632615414155" xlink:href="#id79">July</textPath></text><path d="M 98.73552117531835 120.96189622390904 l -1.7688525319849147 29.32315076150175 a50.376453323396106,50.376453323396106 0 0,0 -0.8651250022999365,-0.05966408531194997 l 2.273340295063781 -29.288358331673514" fill="red" stroke="none" /><path d="M 98.37488393609728 120.93702456842531 l -2.2175389761565496 28.569447473020418 a49.65538008864036,49.65538008864036 0 0,0 -0.8516032044584445,-0.07347990784007942 l 2.7089864983565355 -28.527043312901675" fill="red" stroke="none" /><path d="M 96.93821686468263 120.77559828337769 l -3.937156102448024 26.715404046711072 a48.00396288610377,48.00396288610377 0 0,0 -0.8164425689325737,-0.12751153827778963 l 4.396434534989115 -26.643674201086174" fill="red" stroke="none" /><path d="M 96.58105272829116 120.7198165907248 l -4.593045380371795 27.8351932074733 a49.211594190394884,49.211594190394884 0 0,0 -0.8346076136385348,-0.14510723169126882 l 5.07150196548238 -27.752007397261025" fill="red" stroke="none" /><path d="M 95.16358092515715 120.4354850818985 l -3.5469183395104626 14.986914014711068 a36.40091625168771,36.40091625168771 0 0,0 -0.6084962896424979,-0.14955358335295205 l 3.804367913896171 -14.923639173044085" fill="red" stroke="none" /><path d="M 94.81253420990036 120.34920634021253 l -6.8118369577827425 26.72123179575592 a48.57581098393902,48.57581098393902 0 0,0 -0.8084623898604439,-0.21352226516246045 l 7.270789790454676 -26.60001818128988" fill="red" stroke="none" /><path d="M 93.08242187328487 119.8279376855182 l -9.318842037123103 26.710709417170776 a49.289623795331536,49.289623795331536 0 0,0 -0.7986807067367093,-0.2863784857373242 l 9.777242304489539 -26.546343390393496" fill="red" stroke="none" /><path d="M 92.7421414339146 119.70592522655815 l -10.60926639034639 28.805384989689045 a51.697015127623345,51.697015127623345 0 0,0 -0.8323952529740759,-0.31474065944430946 l 11.103531864080749 -28.618496080138105" fill="red" stroke="none" /><path d="M 92.06813273071674 119.44442032107085 l -19.333951189308248 47.39583513302382 a72.18756544852792,72.18756544852792 0 0,0 -1.146505397451378,-0.47923934911901855 l 20.146928046257088 -47.05601074088483" fill="red" stroke="none" /><line stroke="#e1ed5e" stroke-width="0.3" x1="58.666819895761336" x2="56.23545636021788" y1="174.27360380694188" y2="178.64263932499728" /><path d="M 58.180547188652646 175.14741091055294 a86.0,86.0 0 0,1 -31.652253787137756,-30.449443065178592" fill="none" id="id80" stroke="none" /><text fill="#e1ed5e" style="font-size:6.75px; font-family:Arial;" text-anchor="middle"><textPath startOffset="22.20632615414155" xlink:href="#id80">August</textPath></text><path d="M 89.7882731507175 118.34994917583269 l -16.047779146875637 28.837035701835923 a54.00160365218418,54.00160365218418 0 0,0 -0.8083557474426827,-0.4590054901870407 l 16.541783661239528 -28.55652704585425" fill="red" stroke="none" /><path d="M 88.8546689885994 117.79835938074946 l -14.707569271926541 23.487019205732892 a48.71195888166305,48.71195888166305 0 0,0 -0.706829539484987,-0.4511320545815049 l 15.109680613458453 -23.230372722327584" fill="red" stroke="none" /><path d="M 87.95078237400918 117.19931262002967 l -13.907420338864224 19.851751173480473 a45.23857184603989,45.23857184603989 0 0,0 -0.6339274010206796,-0.45229036881183926 l 14.24707506773379 -19.609416542824416" fill="red" stroke="none" /><path d="M 87.07902340077011 116.55440617244103 l -16.662895134419507 21.34856695587645 a48.08160603306608,48.08160603306608 0 0,0 -0.6480542059892964,-0.5148534550953746 l 17.02790683312616 -21.058579586775945" fill="red" stroke="none" /><path d="M 86.51685102203217 116.09983520530335 l -15.702741974650861 18.75018650883304 a45.45701534608192,45.45701534608192 0 0,0 -0.595561631117794,-0.5075505424722481 l 16.02316908234571 -18.477111576137837" fill="red" stroke="none" /><path d="M 86.24171649860922 115.8653595955263 l -16.19624677191592 18.676696050663068 a45.72119303079142,45.72119303079142 0 0,0 -0.5901466192966687,-0.5207357763584484 l 16.515335744119174 -18.39513713253233" fill="red" stroke="none" /><path d="M 85.97065885151581 115.62618273729859 l -16.03103764912406 17.855715469631438 a44.996265189401214,44.996265189401214 0 0,0 -0.5718820691123843,-0.5224007109411747 l 16.3360192677033 -17.577121992103688" fill="red" stroke="none" /><line stroke="#e1ed5e" stroke-width="0.3" x1="26.63291911575756" x2="22.317208475507996" y1="142.92168965132927" y2="145.44649492493687" /><path d="M 25.769776987707644 143.4266507060508 a86.0,86.0 0 0,1 -11.730757126820373,-40.83630448921669" fill="none" id="id81" stroke="none" /><text fill="#e1ed5e" style="font-size:6.75px; font-family:Arial;" text-anchor="middle"><textPath startOffset="21.46611528233685" xlink:href="#id81">September</textPath></text><line stroke="#e1ed5e" stroke-width="0.3" x1="15.007084014347285" x2="10.007500721073583" y1="101.09737516637583" y2="101.16192664675087" /><path d="M 14.007167355692545 101.11028546245083 a86.0,86.0 0 0,1 10.666146001902534,-42.60595125391555" fill="none" id="id82" stroke="none" /><text fill="#e1ed5e" style="font-size:6.75px; font-family:Arial;" text-anchor="middle"><textPath startOffset="22.20632615414155" xlink:href="#id82">October</textPath></text><line stroke="#e1ed5e" stroke-width="0.3" x1="26.266209847984243" x2="21.928928074336255" y1="57.711370442889674" y2="55.22380399835377" /><path d="M 25.398753493254645 57.213857153982495 a86.0,86.0 0 0,1 29.58750427330803,-30.492523968695096" fill="none" id="id83" stroke="none" /><text fill="#e1ed5e" style="font-size:6.75px; font-family:Arial;" text-anchor="middle"><textPath startOffset="21.46611528233685" xlink:href="#id83">November</textPath></text><line stroke="#e1ed5e" stroke-width="0.3" x1="56.762969772571076" x2="54.21961505331055" y1="26.818313649435495" y2="22.513508569990535" /><path d="M 56.25429882871897 25.957352633546506 a86.0,86.0 0 0,1 42.265352541879196,-11.944610805530505" fill="none" id="id84" stroke="none" /><text fill="#e1ed5e" style="font-size:6.75px; font-family:Arial;" text-anchor="middle"><textPath startOffset="22.20632615414155" xlink:href="#id84">December</textPath></text></svg>