<?xml version="1.0" encoding="utf-8" ?>
<svg baseProfile="full" height="200mm" version="1.1" viewBox="0,0,200,200" width="200mm" xmlns="http://www.w3.org/2000/svg" xmlns:ev="http://www.w3.org/2001/xml-events" xmlns:xlink="http://www.w3.org/1999/xlink"><defs /><rect fill="#1a1a1a" height="200" width="200" x="0" y="0" /><text alignment-baseline="middle" fill="#e1ed5e" style="dominant-baseline: central; font-size:9.0px; font-family:Arial;" text-anchor="middle" x="100.0" y="100.0">2025</text><line stroke="#e1ed5e" stroke-width="0.3" x1="100.0" x2="100.0" y1="15.0" y2="10.0" /><path d="M 100.0 14.0 a86.0,86.0 0 0,1 42.46469731375804,11.215312516191453" fill="none" id="id73" stroke="none" /><text fill="#e1ed5e" style="font-size:6.75px; font-family:Arial;" text-anchor="middle"><textPath startOffset="22.20632615414155" xlink:href="#id73">January</textPath></text><path d="M 101.08401301168833 79.027996857942 l 0.8083051892467409 -15.637984771255068 a36.658860909560715,36.658860909560715 0 0,0 0.6299003934514061,0.037997311916348045 l -1.077367631537759 15.621754189958416" fill="#ffa50f" stroke="none" /><path d="M 101.80526077348638 79.07773832637324 l 1.356622739488675 -15.722723478425294 a36.781142507319416,36.781142507319416 0 0,0 0.6303147135855806,0.059855977014155896 l -1.6270625801644998 15.69704195689596" fill="#ffa60f" stroke="none" /><path d="M 103.2404852339499 79.25152402106235 l 2.62309998756039 -16.795425114746806 a37.999028158392086,37.999028158392086 0 0,0 0.6453877875811876,0.10649451484684791 l -2.9118169812804533 16.747784336960333" fill="#ffb711" stroke="none" /><path d="M 103.95276090670814 79.375362276772 l 3.6600033453189535 -19.097093106466485 a40.444654525210666,40.444654525210666 0 0,0 0.6826163867253378,0.13692642545554823 l -3.9881861415114166 19.03126272493373" fill="#ffd814" stroke="none" /><path d="M 105.01212808612495 79.60689891045804 l 3.8432751077468823 -15.637329381938809 a37.10269647459933,37.10269647459933 0 0,0 0.6188926086128381,0.15776950615417282 l -4.1118766050447455 15.568856879615769" fill="#ffab0f" stroke="none" /><path d="M 106.0581310904928 79.89281104454417 l 4.506615772374816 -14.95764511054959 a36.621803128095216,36.621803128095216 0 0,0 0.6020181960727068,0.18704998399420852 l -4.763419341158241 14.87785499167286" fill="#ffa40f" stroke="none" /><path d="M 106.74666289553966 80.11325718540242 l 5.136773435390361 -15.141366003924805 a36.98897763433741,36.98897763433741 0 0,0 0.6011906532333542,0.2097436142251999 l -5.396646092686988 15.050701536527399" fill="#ffa90f" stroke="none" /><path d="M 107.76421540070413 80.48803036053334 l 5.7207687328775885 -14.376657533251144 a36.47305647645147,36.47305647645147 0 0,0 0.5813390632420018,0.23714280045099748 l -5.967391665707978 14.276053846616568" fill="#ffa20f" stroke="none" /><path d="M 108.09893153111575 80.62456947434976 l 5.995527039537803 -14.343363340326768 a36.54600966146808,36.54600966146808 0 0,0 0.5783253618313288,0.2476087383671469 l -6.241536159159447 14.23803507399683" fill="#ffa30f" stroke="none" /><line stroke="#e1ed5e" stroke-width="0.3" x1="143.23703022742887" x2="145.7803849466894" y1="26.81831364943548" y2="22.513508569990506" /><path d="M 143.74570117128098 25.957352633546492 a86.0,86.0 0 0,1 28.547481713284135,27.462654790039103" fill="none" id="id74" stroke="none" /><text fill="#e1ed5e" style="font-size:6.75px; font-family:Arial;" text-anchor="middle"><textPath startOffset="19.985693538727396" xlink:href="#id74">February</textPath></text><path d="M 113.34407831869373 83.78471172551755 l 6.430796962511474 -7.814494496461973 a31.120349490421823,31.120349490421823 0 0,0 0.4107033480223134,0.3439522427727023 l -6.5643578474929045 7.702641096295451" fill="#ff5607" stroke="none" /><path d="M 114.94478906791727 85.2469230424477 l 10.691426991343821 -10.554277111073937 a36.02329446055606,36.02329446055606 0 0,0 0.4318262168984663,0.44503487510997486 l -10.871517471945396 10.368678040413847" fill="#ff9c0e" stroke="none" /><path d="M 115.4437574822437 85.77008943001954 l 12.228180692729513 -11.26707136467044 a37.627546427257975,37.627546427257975 0 0,0 0.43478873469473883,0.4801045803366387 l -12.420313068040288 11.05491399706425" fill="#ffb210" stroke="none" /><path d="M 116.60985879189232 87.15038557335679 l 19.005794812735125 -14.703143372582453 a45.02920434593091,45.02920434593091 0 0,0 0.46899858966761904,0.6171471686058496 l -19.25606934262686 14.37381142809557" fill="#ebff1a" stroke="none" /><path d="M 117.65298651832404 88.62581576622439 l 12.836125102145992 -8.270580822573555 a36.269859684380336,36.269859684380336 0 0,0 0.3336350466216025,0.5277305211256234 l -12.976587745013552 8.048402653733724" fill="#ff9f0e" stroke="none" /><line stroke="#e1ed5e" stroke-width="0.3" x1="172.23445277983987" x2="176.4835382374775" y1="55.19839476539836" y2="52.563006222186495" /><path d="M 173.08426987136738 54.67131705675599 a86.0,86.0 0 0,1 12.851231095245387,41.99856678651699" fill="none" id="id75" stroke="none" /><text fill="#e1ed5e" style="font-size:6.75px; font-family:Arial;" text-anchor="middle"><textPath startOffset="22.20632615414155" xlink:href="#id75">March</textPath></text><path d="M 118.56541770881063 90.18545643968196 l 8.728529272741028 -4.614306669985295 a30.873147892631195,30.873147892631195 0 0,0 0.24432504516228273,0.47195822015357924 l -8.806663751063427 4.46337572757137" fill="#ff5207" stroke="none" /><path d="M 120.53481517161879 95.60439243477599 l 8.460389654682544 -1.811000121504087 a29.652046841594608,29.652046841594608 0 0,0 0.10254059615229012,0.50002436339007 l -8.490309546749831 1.6651001019506053" fill="#ff4006" stroke="none" /><path d="M 120.6074358757038 95.95851677861258 l 19.559169159262794 -3.835899548989346 a40.93176418560569,40.93176418560569 0 0,0 0.12964507923323382,0.6925691972989729 l -19.622299962405886 3.4986522742278106" fill="#ffde14" stroke="none" /><path d="M 120.67395015179393 96.31383870115 l 17.445318955340785 -3.110496983262357 a38.720449907845364,38.720449907845364 0 0,0 0.11134551862067778,0.6571675538076568 l -17.49627633548169 2.809743641138862" fill="#ffc111" stroke="none" /><path d="M 120.83666639777658 97.38593545837742 l 15.937825128861821 -1.99948027887919 a37.06275789594695,37.06275789594695 0 0,0 0.07396605238726593,0.6336959665471315 l -15.969881534252677 1.7248405740072061" fill="#ffaa0f" stroke="none" /><path d="M 120.94382443527127 98.46500227214037 l 35.20713550162167 -2.5803727092184023 a56.30156814573579,56.30156814573579 0 0,0 0.06251996641348496,0.9671562084244872 l -35.24633605903957 1.9739574365408799" fill="#66ff29" stroke="none" /><line stroke="#e1ed5e" stroke-width="0.3" x1="184.98032266829074" x2="189.97916517819016" y1="98.17113171792111" y2="98.06355123074" /><path d="M 185.9800911702706 98.14961562048488 a86.0,86.0 0 0,1 -9.607161424134198,41.387399972396054" fill="none" id="id76" stroke="none" /><text fill="#e1ed5e" style="font-size:6.75px; font-family:Arial;" text-anchor="middle"><textPath startOffset="21.466115282336823" xlink:href="#id76">April</textPath></text><path d="M 120.9904718944345 100.63252640178507 l 33.01559127275053 0.9948910751309276 a54.030577883844174,54.030577883844174 0 0,0 -0.03601489767575093,0.9293844804107784 l -32.99357424222357 -1.5630528025557122" fill="#7fff26" stroke="none" /><path d="M 120.92983693683757 101.71520430193887 l 15.880805501955154 1.301435171110495 a36.93404270408274,36.93404270408274 0 0,0 -0.05738038354002093,0.6331877509338889 l -15.856050522138057 -1.5746043105929544" fill="#ffa80f" stroke="none" /><path d="M 120.64145759157962 103.86396538481128 l 15.321862392737915 2.8681669234701763 a36.58800335780323,36.58800335780323 0 0,0 -0.12121094504233319,0.618051997389173 l -15.270221514719918 -3.1314826479272946" fill="#ffa40f" stroke="none" /><path d="M 120.5718875245553 104.21870165774334 l 13.692399258564384 2.8079167447148436 a34.9773457387726,34.9773457387726 0 0,0 -0.1260283089615111,0.5887623024837553 l -13.64203691087843 -3.043192866614768" fill="#ff8d0d" stroke="none" /><path d="M 120.41448212921028 104.9243191809786 l 12.815297153653674 3.09126693414282 a34.18285903719556,34.18285903719556 0 0,0 -0.14289848897679047,0.5708084301975056 l -12.760187350381822 -3.3114032037377217" fill="#ff820c" stroke="none" /><path d="M 120.23288151984713 105.62410040840565 l 16.30385099237026 4.531954330619112 a37.92200245940858,37.92200245940858 0 0,0 -0.1802330985463059,0.6274150604008747 l -16.223425256937855 -4.811926866524569" fill="#ffb610" stroke="none" /><path d="M 119.9155931802556 106.66101706037122 l 12.468080503747132 4.170104108567435 a34.14696922199981,34.14696922199981 0 0,0 -0.1912379369526891,0.5558269612785263 l -12.394451735851211 -4.384103772935261" fill="#ff810b" stroke="none" /><path d="M 119.79798401119884 107.00284435728193 l 12.484426910498826 4.415929343847941 a34.242407154797974,34.242407154797974 0 0,0 -0.20133840611421863,0.5539968222216967 l -12.40656424337938 -4.630173963075769" fill="#ff830c" stroke="none" /><path d="M 119.54520255179757 107.68017299344265 l 11.994435950330965 4.713143433186743 a33.887211288264936,33.887211288264936 0 0,0 -0.2180035073881892,0.5410668269999704 l -11.911529828685383 -4.918909628029527" fill="#ff7e0b" stroke="none" /><path d="M 119.41010516605496 108.01547362559984 l 20.206259744860972 8.344248558745504 a42.86136813849754,42.86136813849754 0 0,0 -0.287475316526791,0.679506729433642 l -20.059633447141874 -8.69082981384531" fill="#fff817" stroke="none" /><path d="M 119.12269723197855 108.67885076344098 l 12.061496602446326 5.474119457443888 a34.245591120263,34.245591120263 0 0,0 -0.24824039189659544,0.5346877196432623 l -11.9654815937099 -5.680927244365981" fill="#ff830c" stroke="none" /><path d="M 118.97047184881838 109.00673069616215 l 18.14126772814405 8.613044220328566 a41.08208469072711,41.08208469072711 0 0,0 -0.30879396570998935,0.6362070311140161 l -17.990320505819344 -8.924040207407858" fill="#ffe015" stroke="none" /><path d="M 118.64920377521936 109.65438752849418 l 11.697543929023286 6.055627016765058 a34.172059540466876,34.172059540466876 0 0,0 -0.27491827372149963,0.5200417682245632 l -11.591573147076893 -6.256083800075756" fill="#ff820b" stroke="none" /><line stroke="#e1ed5e" stroke-width="0.3" x1="174.80103733775053" x2="179.2010983576182" y1="140.37084112569926" y2="142.7455964860345" /><path d="M 175.68104954172406 140.8457921977663 a86.0,86.0 0 0,1 -30.038265399797805,32.042727171017184" fill="none" id="id77" stroke="none" /><text fill="#e1ed5e" style="font-size:6.75px; font-family:Arial;" text-anchor="middle"><textPath startOffset="22.206326154141568" xlink:href="#id77">May</textPath></text><path d="M 117.35343817320211 111.8261652097733 l 11.335672865823948 7.725128515581165 a34.71769258670067,34.71769258670067 0 0,0 -0.34079398358315743,0.4909391509678904 l -11.201017975078654 -7.919108928736075" fill="#ff890c" stroke="none" /><path d="M 116.498646956653 112.99209946851258 l 12.890930358992295 10.151150570450916 a37.407984136521925,37.407984136521925 0 0,0 -0.4027273885430371,0.502464339374247 l -12.714285058394402 -10.371542743403413" fill="#ffaf10" stroke="none" /><path d="M 116.27256486870786 113.27417163493432 l 10.653724754615284 8.69066260206228 a34.74879876971026,34.74879876971026 0 0,0 -0.3820779349914485,0.4602374860292272 l -10.502550819730294 -8.872761345205278" fill="#ff8a0c" stroke="none" /><path d="M 114.29624159901734 115.38237550388516 l 9.271246291426154 9.975614279876359 a34.61869626862852,34.61869626862852 0 0,0 -0.43998788718889276,0.4019185029349382 l -9.098158854770398 -10.13372554939788" fill="#ff880c" stroke="none" /><path d="M 114.0293411484842 115.62618273729858 l 8.98342094024978 10.00592798569052 a34.446949343421466,34.446949343421466 0 0,0 -0.44462423993208505,0.3923291961661269 l -8.809854347411108 -10.159080323628935" fill="#ff860c" stroke="none" /><path d="M 112.63410532772338 116.77436683061366 l 8.181697513687498 10.862882003251793 a34.599352176557964,34.599352176557964 0 0,0 -0.4788138931566145,0.35421507133376096 l -7.993498650112318 -11.002107023325323" fill="#ff880c" stroke="none" /><path d="M 111.7513745106137 117.40417183066458 l 18.06082559242473 26.74867622764655 a53.275146800773,53.275146800773 0 0,0 -0.7644356980674076,0.5066262972745184 l -17.597715195617358 -27.055600546012386" fill="#88ff25" stroke="none" /><line stroke="#e1ed5e" stroke-width="0.3" x1="143.8653032363475" x2="146.44561519142675" y1="172.8068346515853" y2="177.08958963109032" /><path d="M 144.38136562736335 173.6633856474863 a86.0,86.0 0 0,1 -40.68145358897372,12.25698825130547" fill="none" id="id78" stroke="none" /><text fill="#e1ed5e" style="font-size:6.75px; font-family:Arial;" text-anchor="middle"><textPath startOffset="21.466115282336833" xlink:href="#id78">June</textPath></text><path d="M 110.5260780823613 118.17145234162733 l 10.594264982308815 18.289165225098714 a42.136035937382744,42.136035937382744 0 0,0 -0.6307388025699493,0.35814995337078975 l -10.277877412817665 -18.468818344264132" fill="#ffee16" stroke="none" /><path d="M 109.89434966115114 118.52300852407294 l 7.330605461427648 13.723475730980205 a36.55864912419827,36.55864912419827 0 0,0 -0.5576222812296414,0.29172162268276786 l -7.093292277671511 -13.84762677260769" fill="#ffa30f" stroke="none" /><path d="M 109.2508944713604 118.85261126421891 l 5.920205140147004 12.064922636092835 a34.439166161497084,34.439166161497084 0 0,0 -0.5344422846031881,0.25656477461368005 l -5.711650187543583 -12.165041687206074" fill="#ff850c" stroke="none" /><path d="M 107.93186726928326 119.44442032107085 l 5.30012212018303 12.99288033436249 a35.0323281700478,35.0323281700478 0 0,0 -0.5603152709287558,0.2229610098918597 l -5.075685773212408 -13.082188188660417" fill="#ff8e0d" stroke="none" /><path d="M 105.88484417918355 120.15858648285463 l 3.9738981774821136 13.6126238258267 a35.180810771900894,35.180810771900894 0 0,0 -0.5827765499216223,0.16469847420546688 l -3.7389904594558856 -13.679011093370686" fill="#ff900d" stroke="none" /><path d="M 105.18746579009965 120.34920634021253 l 3.336596680828156 13.088682813450621 a34.50727563950744,34.50727563950744 0 0,0 -0.576841226938557,0.14177353910417284 l -3.1108021691463885 -13.144177610868823" fill="#ff860c" stroke="none" /><path d="M 104.13013068566511 120.58985236759428 l 2.6939022694973493 13.42985349451365 a34.697374723709046,34.697374723709046 0 0,0 -0.5866043674408511,0.11242412315020048 l -2.462330287484794 -13.474234816012318" fill="#ff890c" stroke="none" /><path d="M 102.70371172650421 120.8252237178851 l 1.7722971912614376 13.651043171795548 a34.76560993971495,34.76560993971495 0 0,0 -0.5941154299169548,0.07193910468909513 l -1.5370543382931026 -13.679527805209993" fill="#ff8a0c" stroke="none" /><path d="M 101.62511606390274 120.93702456842531 l 1.318116531158521 16.98182598148589 a38.03290476857023,38.03290476857023 0 0,0 -0.6531467512045249,0.045044824021372096 l -1.0256070191750657 -17.001999150023547" fill="#ffb711" stroke="none" /><path d="M 101.26447882468166 120.96189622390904 l 0.8335317423809091 13.817871475642493 a34.842989102174826,34.842989102174826 0 0,0 -0.5989873713344864,0.03096080522043218 l -0.5955563026329431 -13.830172087625128" fill="#ff8b0c" stroke="none" /><path d="M 100.90346689309514 120.98055641714683 l 0.5860981613196912 13.610532531443702 a34.62314599658205,34.62314599658205 0 0,0 -0.5956494290267779,0.020515370702774025 l -0.35172838061826106 -13.61860470057257" fill="#ff880c" stroke="none" /><line stroke="#e1ed5e" stroke-width="0.3" x1="102.19456741930631" x2="102.32365962044197" y1="184.97166512339345" y2="189.96999836594603" /><path d="M 102.22038585953345 185.97133177190398 a86.0,86.0 0 0,1 -42.740103519485714,-10.115201625700543" fill="none" id="id79" stroke="none" /><text fill="#e1ed5e" style="font-size:6.75px; font-family:Arial;" text-anchor="middle"><textPath startOffset="22.20632615414155" xlink:href="#id79">July</textPath></text><path d="M 98.73552117531835 120.96189622390904 l -0.9911629872638535 16.431003251664105 a37.46087093453801,37.46087093453801 0 0,0 -0.6433230986975529,-0.04436732742874933 l 1.2738488467403364 -16.41150757971907" fill="#ffb010" stroke="none" /><path d="M 98.37488393609728 120.93702456842531 l -1.2425810044859622 16.00867137864841 a37.056823062557115,37.056823062557115 0 0,0 -0.6355345424964871,-0.05483659451648726 l 1.5179598647239911 -15.984910531853256" fill="#ffaa0f" stroke="none" /><path d="M 96.93821686468263 120.77559828337769 l -2.2061553087455312 14.96977232533074 a36.13146406394782,36.13146406394782 0 0,0 -0.614517293283801,-0.09597496302448714 l 2.463508465637849 -14.929579054959147" fill="#ff9d0e" stroke="none" /><path d="M 96.58105272829116 120.7198165907248 l -2.57367784907384 15.597237616878425 a36.808151028763,36.808151028763 0 0,0 -0.6242505165288602,-0.10853395398640446 l 2.8417773370747503 -15.550625084371013" fill="#ffa70f" stroke="none" /><path d="M 95.16358092515715 120.4354850818985 l -1.9874885630093428 8.397802641025482 a29.629785628027356,29.629785628027356 0 0,0 -0.49530661516580154,-0.1217343152576781 l 2.131748462918355 -8.362347067453776" fill="#ff4006" stroke="none" /><path d="M 94.81253420990036 120.34920634021253 l -3.8169607390922065 14.973037859934594 a36.45189477180084,36.45189477180084 0 0,0 -0.6066802666844905,-0.1602297724625125 l 4.0741314485881865 -14.9051167381685" fill="#ffa20e" stroke="none" /><path d="M 93.08242187328487 119.8279376855182 l -5.221741860521408 14.967141725574622 a36.851874321081354,36.851874321081354 0 0,0 -0.5971415231236027,-0.21411370491436058 l 5.478602944274737 -14.875040479620303" fill="#ffa70f" stroke="none" /><path d="M 92.7421414339146 119.70592522655815 l -5.9448212770647215 16.140877161550204 a38.200837641245684,38.200837641245684 0 0,0 -0.6150876570669845,-0.2325735209440788 l 6.22177915489199 -16.03615539049949" fill="#ffba11" stroke="none" /><path d="M 92.06813273071674 119.44442032107085 l -10.833631673582452 26.557893710674588 a49.682560791992366,49.682560791992366 0 0,0 -0.7890739042562771,-0.32983295597491347 l 11.289177037336193 -26.3674757116797" fill="#b2ff20" stroke="none" /><line stroke="#e1ed5e" stroke-width="0.3" x1="58.666819895761336" x2="56.23545636021788" y1="174.27360380694188" y2="178.64263932499728" /><path d="M 58.180547188652646 175.14741091055294 a86.0,86.0 0 0,1 -31.652253787137756,-30.449443065178592" fill="none" id="id80" stroke="none" /><text fill="#e1ed5e" style="font-size:6.75px; font-family:Arial;" text-anchor="middle"><textPath startOffset="22.20632615414155" xlink:href="#id80">August</textPath></text><path d="M 89.7882731507175 118.34994917583269 l -8.992250303827749 16.158612396021855 a39.492196194383226,39.492196194383226 0 0,0 -0.5911628843187606,-0.33567771411974495 l 9.269061955067718 -16.001431516107477" fill="#ffcb12" stroke="none" /><path d="M 88.8546689885994 117.79835938074946 l -8.241273950968962 13.160771571926746 a36.528184204965974,36.528184204965974 0 0,0 -0.5300382126397746,-0.33829546519676673 l 8.46659396565566 -13.016961677906176" fill="#ffa30f" stroke="none" /><path d="M 87.95078237400918 117.19931262002967 l -7.792916616250913 11.123776934330344 a34.58189834568715,34.58189834568715 0 0,0 -0.4845956016306436,-0.3457460949522342 l 7.983239545730444 -10.987986577533892" fill="#ff880c" stroke="none" /><path d="M 87.07902340077011 116.55440617244103 l -9.336925842745389 11.962506209629774 a36.17497080749606,36.17497080749606 0 0,0 -0.4875740208680982,-0.3873582903076332 l 9.541457356330845 -11.80001400531701" fill="#ff9e0e" stroke="none" /><path d="M 86.51685102203217 116.09983520530335 l -8.798911363381638 10.50652359979088 a34.70430149017487,34.70430149017487 0 0,0 -0.45468340243930516,-0.38749105970453745 l 8.978460242397999 -10.35350814986339" fill="#ff890c" stroke="none" /><path d="M 86.24171649860922 115.8653595955263 l -9.075443001967349 10.465343783645661 a34.852331435244,34.852331435244 0 0,0 -0.4498567121217622,-0.39694624450440735 l 9.2542420669957 -10.307574397368965" fill="#ff8b0c" stroke="none" /><path d="M 85.97065885151581 115.62618273729859 l -8.98286933360967 10.005313594318462 a34.446123663917376,34.446123663917376 0 0,0 -0.4377945678580947,-0.3999149577293511 l 9.153763450934619 -9.849205870002534" fill="#ff860c" stroke="none" /><path d="M 85.18274418774928 114.88116024355367 l -10.744739668300477 10.791079995193742 a36.228159376701456,36.228159376701456 0 0,0 -0.438118129080744,-0.4438113516780937 l 10.928898422436754 -10.604528149534984" fill="#ff9f0e" stroke="none" /><path d="M 84.43433777217949 114.09645910891817 l -9.988584890362025 9.045787863190798 a34.475834155176386,34.475834155176386 0 0,0 -0.39456960191372387,-0.4433031305537037 l 10.142813341924088 -8.87251056289623" fill="#ff860c" stroke="none" /><path d="M 83.72743513129214 113.27417163493432 l -23.089021975795333 18.83462398597369 a50.79674472978173,50.79674472978173 0 0,0 -0.546868290920252,-0.6823022777667455 l 23.409808178770447 -18.434393874628682" fill="#a4ff21" stroke="none" /><path d="M 82.05923443525364 110.91462005526583 l -12.997102381932352 7.907044646797805 a36.213350235003645,36.213350235003645 0 0,0 -0.3194002389790764,-0.5353331723963541 l 13.131283496609662 -7.68214938051534" fill="#ff9e0e" stroke="none" /><line stroke="#e1ed5e" stroke-width="0.3" x1="26.63291911575756" x2="22.317208475507996" y1="142.92168965132927" y2="145.44649492493687" /><path d="M 25.769776987707644 143.4266507060508 a86.0,86.0 0 0,1 -11.730757126820373,-40.83630448921669" fill="none" id="id81" stroke="none" /><text fill="#e1ed5e" style="font-size:6.75px; font-family:Arial;" text-anchor="middle"><textPath startOffset="21.46611528233685" xlink:href="#id81">September</textPath></text><path d="M 81.87401531095188 110.60418214915194 l -12.66451628849821 7.409078174675935 a35.67257346957567,35.67257346957567 0 0,0 -0.3055067205052786,-0.532676718439067 l 12.790175005155865 -7.189981610378561" fill="#ff970d" stroke="none" /><path d="M 81.51974371655577 109.97397251340807 l -12.670595922377295 6.838442796462035 a35.39820478075818,35.39820478075818 0 0,0 -0.2847827576690924,-0.5387016543255628 l 12.786431188271274 -6.619326127050346" fill="#ff930d" stroke="none" /><path d="M 80.87730276802145 108.67885076344099 l -12.434229548103964 5.643284589890313 a34.65491579679037,34.65491579679037 0 0,0 -0.2418565175193538,-0.5453225987502348 l 12.529527150354598 -5.4284136546473825" fill="#ff890c" stroke="none" /><path d="M 80.0844068197444 106.66101706037122 l -10.328677950554603 3.454554399511052 a31.891075902106916,31.891075902106916 0 0,0 -0.16964191912829998,-0.5221041417159868 l 10.386612120699152 -3.276251357817262" fill="#ff6108" stroke="none" /><path d="M 79.58551787078972 104.9243191809786 l -15.858662827746485 3.8253783296125836 a37.31351298920063,37.31351298920063 0 0,0 -0.14523740166095897,-0.6256789251394588 l 15.922160795338 -3.5518307471245505" fill="#ffae10" stroke="none" /><path d="M 79.50377843672027 104.57218783832718 l -23.40509189150099 5.2210831235826625 a44.98036770846029,44.98036770846029 0 0,0 -0.16207060767565581,-0.75713992297715 l 23.49149653790109 -4.817429381189348" fill="#ebff1a" stroke="none" /><path d="M 79.35854240842038 103.8639653848113 l -21.314709746226647 3.9899944217271246 a42.68494655403381,42.68494655403381 0 0,0 -0.12897674844833487,-0.7233701002159789 l 21.38023293701417 -3.6225055707779323" fill="#fff517" stroke="none" /><path d="M 79.29508885075956 103.50808413554451 l -15.996426488582387 2.710313972637284 a37.22440945720038,37.22440945720038 0 0,0 -0.10160180214398584,-0.6326745189371039 l 16.040710045087664 -2.434560224006966" fill="#ffac10" stroke="none" /><path d="M 79.18660465613746 102.79330883721812 l -17.212801584181918 2.3100830010686124 a38.36712474326829,38.36712474326829 0 0,0 -0.0822125099040468,-0.6553145935452668 l 17.250015603332812 -2.0134506532359366" fill="#ffbc11" stroke="none" /><path d="M 79.1416061653843 102.43462659150553 l -28.616301985401847 3.3401425975853676 a49.810576042348025,49.810576042348025 0 0,0 -0.09207294870813304,-0.8524811542217922 l 28.66955723561103 -2.8470651214787934" fill="#b0ff20" stroke="none" /><path d="M 79.07016306316243 101.71520430193888 l -24.829338482717397 2.0347692296110305 a45.91257383947156,45.91257383947156 0 0,0 -0.05776991435317374,-0.7882245829383601 l 24.860684955734904 -1.6070715101759097" fill="#e0ff1b" stroke="none" /><line stroke="#e1ed5e" stroke-width="0.3" x1="15.007084014347285" x2="10.007500721073583" y1="101.09737516637583" y2="101.16192664675087" /><path d="M 14.007167355692545 101.11028546245083 a86.0,86.0 0 0,1 10.666146001902534,-42.60595125391555" fill="none" id="id82" stroke="none" /><text fill="#e1ed5e" style="font-size:6.75px; font-family:Arial;" text-anchor="middle"><textPath startOffset="22.20632615414155" xlink:href="#id82">October</textPath></text><path d="M 79.12142395522702 97.74499172005258 l -14.840397726589533 -1.6028497192245272 a35.92670532655421,35.92670532655421 0 0,0 0.07169883514190328,-0.6142718337550872 l 14.810608538444042 1.8580652913044762" fill="#ff9a0e" stroke="none" /><path d="M 79.26566170972629 96.67025291283419 l -42.42116255972535 -6.812454802750697 a63.964689843616526,63.964689843616526 0 0,0 0.18393850229010947,-1.0856154526778643 l 42.297612195915015 7.541656043744389" fill="#33ff4f" stroke="none" /><path d="M 79.54389044137918 95.25157060432595 l -20.837945443753124 -4.837064076481244 a42.391988201119055,42.391988201119055 0 0,0 0.1711166729135925,-0.7093890815806589 l 20.751595970578716 5.1950383897213" fill="#fff116" stroke="none" /><path d="M 79.71946130924805 94.55025226153421 l -22.716134451668342 -6.104236393440406 a44.52199962531408,44.52199962531408 0 0,0 0.2052532649795206,-0.7384052008896652 l 22.607694416122463 6.494352897749014" fill="#f1ff19" stroke="none" /><path d="M 80.02781315780177 93.51064311812611 l -9.784629693006927 -3.179218907603284 a31.288168500356857,31.288168500356857 0 0,0 0.17083743205598587,-0.5107821772486134 l 9.72845496717917 3.3471741877742196" fill="#ff5808" stroke="none" /><path d="M 80.2630227832202 92.82701384747504 l -10.15240552782087 -3.68967666456872 a31.802085534302655,31.802085534302655 0 0,0 0.1914113184578391,-0.5128871697467706 l 10.087389620861403 3.863886971344832" fill="#ff6008" stroke="none" /><path d="M 80.65960295795068 91.81776055985345 l -12.829545446402363 -5.427727906643984 a34.93045105478877,34.93045105478877 0 0,0 0.2390395393313656,-0.5517362140404457 l 12.734215197228316 5.6477632652710295" fill="#ff8c0c" stroke="none" /><path d="M 80.95270993114464 91.15688171328213 l -17.969096984040867 -8.342543719392623 a40.811271593005934,40.811271593005934 0 0,0 0.3013072980664028,-0.6346300126690565 l 17.822831492132714 8.650616147702213" fill="#ffdd14" stroke="none" /><path d="M 81.10775173730289 90.83032412892265 l -4.617127262566577 -2.2410016989267474 a26.13224636716985,26.13224636716985 0 0,0 0.19989922466287574,-0.4029846389043239 l 4.577868024950289 2.320145926330033" fill="#ff0b01" stroke="none" /><path d="M 81.6062741919709 89.86733742301443 l -3.881385721641992 -2.138162341822036 a25.43135344112295,25.43135344112295 0 0,0 0.2145223777945895,-0.38161137304640963 l 3.8440057025549716 2.2046572248032303" fill="#ff0000" stroke="none" /><line stroke="#e1ed5e" stroke-width="0.3" x1="26.266209847984243" x2="21.928928074336255" y1="57.711370442889674" y2="55.22380399835377" /><path d="M 25.398753493254645 57.213857153982495 a86.0,86.0 0 0,1 29.58750427330803,-30.492523968695096" fill="none" id="id83" stroke="none" /><text fill="#e1ed5e" style="font-size:6.75px; font-family:Arial;" text-anchor="middle"><textPath startOffset="21.46611528233685" xlink:href="#id83">November</textPath></text><path d="M 82.15384107792192 88.93136811851018 l -6.297769097950167 -3.906033120303265 a28.410734804862614,28.410734804862614 0 0,0 0.2613414254606572,-0.41337937379968476 l 6.229600076243547 4.013860141817165" fill="#ff2d04" stroke="none" /><path d="M 82.54541684631803 88.32363383020206 l -19.536632932515328 -13.069168013723777 a44.50496072982857,44.50496072982857 0 0,0 0.43143434099840844,-0.6330766592136623 l 19.308774125848178 13.403522696207855" fill="#f1ff19" stroke="none" /><path d="M 83.17141714833178 87.43820079747576 l -27.533217599254233 -20.55233966697037 a55.358066551457846,55.358066551457846 0 0,0 0.5765781455942298,-0.7587092538714708 l 27.175363513435894 21.023233696722865" fill="#70ff27" stroke="none" /><path d="M 83.6137871275137 86.86637796730984 l -7.945843556474571 -6.368628725484712 a31.183116500710256,31.183116500710256 0 0,0 0.3393042448652295,-0.41594688441925554 l 7.835040819532949 6.504459779512049" fill="#ff5708" stroke="none" /><path d="M 84.5562425177563 85.77008943001954 l -6.644298666651545 -6.122070741877242 a30.034736019398512,30.034736019398512 0 0,0 0.3535984866660144,-0.3771942116338 l 6.537932858015075 6.235534370389093" fill="#ff4606" stroke="none" /><path d="M 85.05521093208273 85.24692304244772 l -17.541767578865144 -17.316741366264004 a45.64920163690912,45.64920163690912 0 0,0 0.5568424385866572,-0.5544511801914219 l 17.241089340111174 17.616128397105534" fill="#e3ff1b" stroke="none" /><path d="M 85.83668400450813 84.49514656593479 l -6.536538860354229 -7.155674351128133 a30.691749877721463,30.691749877721463 0 0,0 0.39313064231236966,-0.3529565722892905 l 6.412397230445888 7.267129932186702" fill="#ff4f07" stroke="none" /><path d="M 86.65592168130627 83.78471172551755 l -23.695966490263555 -28.794564780380657 a58.29109530168337,58.29109530168337 0 0,0 0.7802585134883814,-0.6309147878984713 l 23.19680457821067 29.198185665543264" fill="#50ff2b" stroke="none" /><line stroke="#e1ed5e" stroke-width="0.3" x1="56.762969772571076" x2="54.21961505331055" y1="26.818313649435495" y2="22.513508569990535" /><path d="M 56.25429882871897 25.957352633546506 a86.0,86.0 0 0,1 42.265352541879196,-11.944610805530505" fill="none" id="id84" stroke="none" /><text fill="#e1ed5e" style="font-size:6.75px; font-family:Arial;" text-anchor="middle"><textPath startOffset="22.20632615414155" xlink:href="#id84">December</textPath></text><path d="M 89.3179101791058 81.91981866633112 l -18.95175485074157 -32.07716561439312 a58.25739612178783,58.25739612178783 0 0,0 0.867766850712258,-0.502666570407102 l 18.39679126756399 32.398636342190265" fill="#51ff2b" stroke="none" /><path d="M 90.91171255644093 81.06846463323043 l -27.264862330677197 -56.79460610030868 a84.0,84.0 0 0,0 1.3088871548015661,-0.6145400694399696 l 26.28319696457602 57.25551115238866" fill="#4dd2ff" stroke="none" /></svg>